<?xml version="1.0" encoding="utf-8"?>
<!-- Generator: Adobe Illustrator 22.0.1, SVG Export Plug-In . SVG Version: 6.00 Build 0)  -->
<svg version="1.1" id="chech-circle" xmlns="http://www.w3.org/2000/svg" xmlns:xlink="http://www.w3.org/1999/xlink" x="0px"
	 y="0px" viewBox="0 0 77 74" style="enable-background:new 0 0 77 74;" xml:space="preserve">
<style type="text/css">
	.st0{fill:#03A9F4;}
</style>
<path id="_x2D_check-circle-a_2_" class="st0" d="M73.7,34v3c0,20.3-16.3,36.7-36.7,36.7l0,0C16.7,73.7,0.3,57.3,0.3,37
	S16.7,0.3,37,0.3l0,0c5,0,10.3,1,15,3.3c1.7,0.7,2.3,2.7,1.7,4.3C53,9.7,51,10.3,49.3,9.7C45.3,8,41.3,7,37,7l0,0
	C20.3,7,7,20.3,7,37s13.3,30,30,30l0,0c16.7,0,30-13.3,30-30v-3c0-2,1.3-3.3,3.3-3.3S73.7,32,73.7,34z M76,4.7
	c-1.3-1.3-3.3-1.3-4.7,0L37,39l-7.7-7.7C28,30,26,30,24.7,31.3c-1.3,1.3-1.3,3.3,0,4.7l10,10c0.7,0.7,1.7,1,2.3,1s1.7-0.3,2.3-1
	L76,9.3C77.3,8,77.3,6,76,4.7z"/>
</svg>
