<svg xmlns="http://www.w3.org/2000/svg" width="92" height="91" viewBox="0 0 92 91">
  <g fill="#259ED0">
    <path d="M60.0083575 53.0815011C59.1065761 52.181187 57.9184965 51.7298727 56.7292578 51.7298727 55.5411781 51.7298727 54.3530985 52.181187 53.4513171 53.0803439L46.0747915 60.4460241 30.5022551 44.8988263 37.8787807 37.5343032C39.6823435 35.733675 39.6823435 32.7874029 37.8787807 30.9890891L36.2386513 29.3527856C35.338029 28.4513143 34.1499493 28 32.9607106 28 31.772631 28 30.5845514 28.4513143 29.6827699 29.3504712L22.3062443 36.7149942 15.0328788 29.4534634 9.65348608 34.8241032C-2.80570213 47.2630187-3.20443324 67.1833361 8.45613364 80.1024963L1.04715317 87.4994214C.367919356 88.1763928.367919356 89.2757481 1.04715317 89.9538767 1.72522789 90.6320053 2.82753396 90.6320053 3.50560867 89.9538767L10.9145891 82.5569516C17.170263 88.1856505 25.0649073 91 32.9607106 91 41.3966555 91 49.8326004 87.7887254 56.2679351 81.3627046L61.6473279 75.9920648 54.2708023 68.6275417 61.6473279 61.2630187C63.4508907 59.4623905 63.4508907 56.5161184 61.6473279 54.7178046L60.0083575 53.0815011zM32.1412254 31.8049264C32.431001 31.5156224 32.7798907 31.4716482 32.9618697 31.4716482 33.1426896 31.4716482 33.4904203 31.5156224 33.7813549 31.8060837L35.4214843 33.4423872C35.7112598 33.7316912 35.7553057 34.078856 35.7553057 34.2605389 35.7553057 34.4410646 35.7112598 34.7882295 35.4203252 35.0786907L28.0449587 42.4432138 24.7658589 39.1706067 32.1412254 31.8049264zM53.8094796 78.9082493C48.2411533 84.4675153 40.8368092 87.5283518 32.9607106 87.5283518 25.0857711 87.5283518 17.680268 84.4663581 12.1131007 78.9082493.617126302 67.4309803.617126302 48.7546702 12.1119416 37.2774012L15.0328788 34.3612167 56.7304169 75.9920648 53.8094796 78.9082493zM59.1888724 58.8085634L51.8123468 66.1730865 48.5344061 62.9004794 55.9109317 55.5347991C56.2007072 55.2454951 56.549597 55.2015209 56.731576 55.2015209 56.9123959 55.2015209 57.2601265 55.2454951 57.5510611 55.5359564L59.1911906 57.1722599C59.4809661 57.4615639 59.525012 57.8087287 59.525012 57.9904116 59.5226938 58.1709373 59.479807 58.5181022 59.1888724 58.8085634zM82.2921222 56.5898921C94.8225075 44.0595645 95.2223514 23.9916895 83.4939854 10.9787538L90.9464696 3.52630391C91.6295849 2.84319182 91.6295849 1.73575753 90.9464696 1.05381115 90.2645201.370699056 89.155915.370699056 88.4739655 1.05381115L81.0214812 8.50626105C74.7312255 2.83736322 66.7903022 0 58.8505447 0 50.3652275 0 41.8834075 3.23487384 35.4101328 9.70811868L30 15.1182266 76.8819894 62 82.2921222 56.5898921zM37.8838027 12.1806114C43.4851146 6.58049111 50.9306045 3.49716091 58.8517104 3.49716091 66.7728163 3.49716091 74.2194719 6.58165683 79.8196181 12.1817772 85.4197642 17.7818975 88.5042743 25.2285188 88.5042743 33.1495882 88.5042743 41.0706577 85.4197642 48.5161133 79.8207838 54.1162336L76.8831551 57.0538488 34.9473398 15.1170609 37.8838027 12.1806114zM15.155 17.5116667C15.805 18.1627778 16.8616667 18.1627778 17.5116667 17.5116667 18.1627778 16.8605556 18.1627778 15.805 17.5116667 15.155L10.845 8.48833333C10.195 7.83722222 9.13833333 7.83722222 8.48833333 8.48833333 7.83722222 9.13833333 7.83722222 10.1938889 8.48833333 10.845L15.155 17.5116667zM22.5 13C23.329 13 24 12.2392894 24 11.3019854L24 1.69801463C24 .759578544 23.329 0 22.5 0 21.671 0 21 .759578544 21 1.69801463L21 11.3019854C21 12.2392894 21.672 13 22.5 13zM2.69801463 24L12.3019854 24C13.2404215 24 14 23.328 14 22.5 14 21.671 13.2404215 21 12.3019854 21L2.69801463 21C1.75957854 21 1 21.671 1 22.5 1 23.328 1.76071055 24 2.69801463 24zM74.845 72.4883333C74.195 71.8372222 73.1383333 71.8372222 72.4883333 72.4883333 71.8372222 73.1383333 71.8372222 74.1938889 72.4883333 74.845L79.155 81.5116667C79.805 82.1627778 80.8616667 82.1627778 81.5116667 81.5116667 82.1627778 80.8605556 82.1627778 79.805 81.5116667 79.155L74.845 72.4883333zM67.5 78C66.671 78 66 78.7595785 66 79.6980146L66 89.3019854C66 90.2392894 66.671 91 67.5 91 68.329 91 69 90.2392894 69 89.3019854L69 79.6980146C69 78.7595785 68.329 78 67.5 78zM88.3019854 66L78.6980146 66C77.7595785 66 77 66.671 77 67.5 77 68.328 77.7595785 69 78.6980146 69L88.3019854 69C89.2404215 69 90 68.328 90 67.5 90 66.67 89.2392894 66 88.3019854 66z"/>
  </g>
</svg>
