<svg xmlns="http://www.w3.org/2000/svg" width="56" height="20" viewBox="0 0 56 20">
  <path fill="#FFF" d="M33.9245283,12.4054054 C34.5973046,12.6756757 36.0463612,12.9189189 37.1849057,12.9189189 C38.4269542,12.9189189 38.9444744,12.4864865 38.9444744,11.9189189 C38.9444744,11.4324324 38.4787062,11.1351351 37.1072776,10.5945946 C35.2700809,9.89189189 33.9504043,9.32432432 33.9504043,8.08108108 C33.9504043,6.78378378 35.554717,6.02702703 38.012938,6.02702703 C39.3326146,6.02702703 39.7725067,6.10810811 40.6264151,6.27027027 L40.6264151,7.51351351 C39.7983827,7.35135135 39.0738544,7.08108108 37.93531,7.08108108 C36.7191375,7.08108108 36.2016173,7.48648649 36.2016173,7.89189189 C36.2016173,8.48648649 37.0037736,8.78378378 38.4010782,9.2972973 C40.341779,10.027027 41.4285714,10.5945946 41.4285714,11.8108108 C41.4285714,13.0810811 40.0830189,13.972973 37.0037736,13.972973 C35.7617251,13.972973 34.8819407,13.8918919 33.9245283,13.7297297 L33.9245283,12.4054054 Z M27.4296496,7.10810811 L25.980593,7.10810811 L25.980593,12.8648649 L27.4296496,12.8648649 C29.6549865,12.8648649 31.0781671,11.8648649 31.0781671,10 C31.0781671,8.13513514 29.6808625,7.10810811 27.4296496,7.10810811 Z M31.3369272,13.4054054 C30.6123989,13.7567568 29.2668464,13.972973 28.0765499,13.972973 L23.522372,13.972973 L23.522372,6.05405405 L28.0765499,6.05405405 C29.2668464,6.05405405 30.6382749,6.27027027 31.3628032,6.62162162 C33.122372,7.45945946 33.6916442,8.75675676 33.6916442,10.027027 C33.6916442,11.2702703 33.122372,12.5945946 31.3628032,13.4324324 L31.3369272,13.4054054 Z M20.3137466,9.62162162 C20.3137466,9.62162162 22.4355795,9.27027027 22.4355795,7.89189189 C22.4355795,6.54054054 20.1843666,6 17.7778976,6 C15.6043127,6 14.1811321,6.27027027 14.1811321,6.27027027 L14.1811321,7.48648649 C15.1644205,7.24324324 16.0959569,7.02702703 17.3897574,7.02702703 C18.761186,7.02702703 19.8221024,7.45945946 19.8221024,8.05405405 C19.8221024,8.78378378 18.787062,9.21621622 16.5358491,9.21621622 L15.5008086,9.21621622 L15.5008086,10.3243243 L16.458221,10.3243243 C18.812938,10.3243243 20.1584906,10.7027027 20.1584906,11.5945946 C20.1584906,12.4054054 18.9681941,12.8918919 17.4673854,12.8918919 C16.1735849,12.8918919 14.9832884,12.5945946 14,12.3243243 L14,13.6486486 C14.4657682,13.7297297 15.7078167,14 17.9849057,14 C20.5207547,14 22.7460916,13.1351351 22.7460916,11.6486486 C22.7460916,10.3783784 21.219407,9.64864865 20.3137466,9.62162162"/>
</svg>
