<svg xmlns="http://www.w3.org/2000/svg" width="56" height="20" viewBox="0 0 56 20">
  <path fill="#FFF" d="M25.0538843,10.1621699 C24.9379026,10.0609043 24.808713,9.97668689 24.6700415,9.91194664 C25.1036636,9.67590627 25.3745265,9.21379074 25.3740954,8.71076962 C25.3740954,8.32702379 25.2360556,7.07906132 23.4707893,7.07906132 L21.0933246,7.07906132 L21.0933246,9.6648774 L20.3015205,9.6648774 C20.1988887,9.80207968 19.9654015,10.1316806 19.876625,10.2667801 L21.0933246,10.2667801 L21.0933246,13.0765355 L23.4713025,13.0770612 C24.7593311,13.0770612 25.5593457,12.4073459 25.5593457,11.3260237 C25.5593457,10.8539638 25.3853849,10.4528706 25.0538843,10.1621699 Z M21.750681,7.70514527 L23.4713025,7.70514527 C23.9367375,7.70514527 24.7167389,7.82394877 24.7167389,8.6582017 C24.7167389,9.28901676 24.2625934,9.6648774 23.4713025,9.6648774 L21.750681,9.6648774 L21.750681,7.70514527 Z M23.4707893,12.451503 L21.7501678,12.451503 L21.7501678,10.2683571 L23.4707893,10.2683571 C24.1230142,10.2683571 24.9035287,10.4528706 24.9035287,11.3128818 C24.9035287,12.3032614 24.006014,12.451503 23.4707893,12.451503 Z M28.6521539,6.94133336 C27.0074799,6.94133336 25.8580041,8.22977313 25.8580041,10.0749072 C25.8580041,11.9226697 27.0074799,13.2100581 28.6521539,13.2100581 C30.2952884,13.2100581 31.4416852,11.9226697 31.4416852,10.0749072 C31.4416852,8.22977313 30.2952884,6.94133336 28.6521539,6.94133336 Z M28.6521539,12.5755632 C27.39902,12.5755632 26.5210053,11.546809 26.5210053,10.0749072 C26.5210053,8.60300538 27.39902,7.57477682 28.6521539,7.57477682 C29.903235,7.57477682 30.7761182,8.60300538 30.7761182,10.0749072 C30.7761182,11.546809 29.903235,12.5755632 28.6521539,12.5755632 Z M5.45634924,6.43773267 L5.45173081,6.4419381 L5.45173081,6.44246378 C4.52150886,7.3806618 3.9983997,8.66247449 4.00000453,9.99973507 C3.99854638,11.0940987 4.34915177,12.1584604 4.99758526,13.0281731 C5.00425632,13.0365839 5.0145195,13.041315 5.02375636,13.0365839 C5.03248006,13.0313271 5.03299322,13.0202879 5.02940111,13.0108256 C4.65736097,11.8322528 6.55912752,8.97571194 7.54182665,7.77821468 C7.5449056,7.77400925 7.54901087,7.76927813 7.54901087,7.76349566 C7.54901087,7.75666183 7.54439244,7.75140504 7.53977401,7.74719961 C5.88688948,6.06187203 5.4455729,6.44719489 5.45173081,6.4419381 L5.45634924,6.43773267 Z M12.3049667,6.43773267 L12.3095852,6.4419381 L12.3095852,6.44246378 C13.2397163,7.38068156 13.762654,8.66252726 13.7607983,9.99973507 C13.7622564,11.0940987 13.411651,12.1584604 12.7632176,13.0281731 C12.7570597,13.0365839 12.7462833,13.041315 12.7370465,13.0365839 C12.7288359,13.0313271 12.7283228,13.0202879 12.7314017,13.0108256 C13.1034419,11.8322528 11.2032148,8.97360923 10.2210288,7.77558628 C10.2174367,7.77138085 10.2138446,7.76664974 10.2138446,7.76139295 C10.2138446,7.75403344 10.2179499,7.74877664 10.2230814,7.74457121 C11.8764791,6.05924363 12.3147168,6.44719489 12.309072,6.4419381 L12.3049667,6.43773267 Z M8.88065799,5 C9.86540975,5 10.6756875,5.27650727 11.4228467,5.73174547 C11.4320836,5.73647659 11.4346494,5.74699017 11.4310573,5.7564524 C11.4274652,5.76538895 11.417202,5.76749166 11.407452,5.76486327 C10.4627266,5.55564294 9.02639509,6.39199858 8.89092117,6.47558157 C8.88784221,6.47768429 8.88476326,6.47978701 8.88065799,6.47978701 C8.87603956,6.47978701 8.87296061,6.47768429 8.86988165,6.47558157 C8.50964417,6.26373285 7.18210232,5.55091182 6.34616662,5.77012006 C6.33692976,5.77222277 6.32666658,5.77064574 6.32256131,5.76118351 C6.31894192,5.75200155 6.32243537,5.74148917 6.33077185,5.73647659 C7.07793108,5.27650727 7.89847202,5 8.88065799,5 Z M8.88065799,9.00988109 C8.88630274,9.00988109 8.89246064,9.01461221 8.89605275,9.01776628 C10.3565027,10.1553361 12.8560993,12.9677199 12.0930322,13.7630726 L12.0940585,13.7620212 L12.0935453,13.7630726 L12.092519,13.7630726 C11.2041824,14.5618224 10.0621395,15.0015655 8.88014483,14.9999958 C7.6980161,15.0014522 6.55584984,14.5617319 5.66725751,13.7630726 L5.66623119,13.7620212 L5.66725751,13.7630726 C4.90572983,12.9677199 7.40481325,10.1553361 8.86372375,9.01776628 C8.86782902,9.01461221 8.87450008,9.00988109 8.88065799,9.00988109 Z M47.4804638,7.079587 L47.4804638,12.0015215 L43.9412075,7.07590724 L43.3608249,7.07485588 L43.3608249,13.067599 L44.0125366,13.067599 L44.0125366,8.25448005 L47.4794375,13.0712788 L48.1326887,13.0723301 L48.1326887,7.079587 L47.4804638,7.079587 Z M39.9775688,6.940282 C38.3328948,6.940282 37.1829059,8.22924745 37.1829059,10.0738558 C37.1829059,11.9216183 38.3328948,13.2111094 39.9775688,13.2111094 C41.6207033,13.2111094 42.7671001,11.9216183 42.7671001,10.0738558 C42.7671001,8.22977313 41.6207033,6.940282 39.9775688,6.940282 Z M39.9775688,12.5755632 C38.724435,12.5755632 37.8464203,11.546809 37.8464203,10.0738558 C37.8464203,8.6024797 38.724435,7.57372546 39.9775688,7.57372546 C41.22865,7.57372546 42.1015332,8.6024797 42.1015332,10.0738558 C42.1015332,11.546809 41.22865,12.5755632 39.9775688,12.5755632 Z M49.5197569,12.4856721 L49.5197569,10.2683571 L52.7408548,10.2683571 L52.7408548,9.68169914 L49.5197569,9.68169914 L49.5197569,7.66151389 L52.9594605,7.66151389 L52.9594605,7.07538156 L48.8644531,7.07538156 L48.8644531,13.0723301 L53,13.0723301 L53,12.4856721 L49.5197569,12.4856721 Z M35.3493895,13.0775869 L33.4789256,10.4770518 L31.6105144,13.0775869 L30.8407762,13.0775869 L33.0894381,9.9356022 L31.0357765,7.079587 L31.8055148,7.079587 L33.4789256,9.40887162 L35.1523365,7.079587 L35.9215616,7.079587 L33.8694395,9.93507652 L36.1186146,13.0775869 L35.3493895,13.0775869 Z M20.7741398,13.0765355 L18.5229121,9.93507652 L20.5765736,7.079587 L19.8068354,7.079587 L18.1329114,9.4093973 L16.4605268,7.079587 L15.6928412,7.079587 L17.7454765,9.93507652 L15.4947619,13.0765355 L16.2655265,13.0765355 L18.1339377,10.4770518 L20.0038884,13.0765355 L20.7741398,13.0765355 Z"/>
</svg>
