<svg xmlns="http://www.w3.org/2000/svg" width="56" height="20" viewBox="0 0 56 20">
  <path fill="#FFF" d="M22.6366914,5.54995993 L24.8194928,5.54995993 C24.8194928,5.54995993 22.739932,12.9305425 22.4597075,13.7940225 C22.223729,14.464546 21.7124421,15 20.9307632,15 C20.05076,15 19.6377975,14.3632439 19.4362325,13.7940225 C19.2543324,13.2103293 17.9072883,8.33818002 17.9072883,8.33818002 C17.9072883,8.33818002 16.5651604,13.2055054 16.3635954,13.7940225 C16.1816953,14.3632439 15.7638166,15 14.8690647,15 C14.1070507,15 13.576099,14.4597221 13.3597853,13.7940225 C13.0746446,12.9305425 11,5.54995993 11,5.54995993 L13.1582203,5.54995993 L14.9624729,12.4722711 C14.9624729,12.4722711 16.3390143,7.27209587 16.555328,6.52438979 C16.7913065,5.79597935 17.2386825,5.46795346 17.9023721,5.46795346 C18.551313,5.46795346 19.0134377,5.79115544 19.2297513,6.52438979 C19.4657299,7.27691978 20.8422713,12.4722711 20.8422713,12.4722711 L22.6366914,5.54995993 Z M25.7093285,6.13847698 C25.7093285,5.50172083 26.2402802,4.99521026 26.9039698,5.00003417 C27.602073,5.00003417 28.1477734,5.50172083 28.1477734,6.13847698 C28.1477734,6.77040921 27.602073,7.27691978 26.9039698,7.27691978 C26.2402802,7.27691978 25.7093285,6.75593748 25.7093285,6.13847698 Z M27.9658732,14.9324653 L25.9108935,14.9324653 L25.9108935,8.40089086 L27.9658732,8.40089086 L27.9658732,14.9324653 Z M29.8782826,6.13847698 C29.8782826,5.50172083 30.423983,4.99521026 31.0925888,5.00003417 C31.7759433,5.00003417 32.3216437,5.50172083 32.3216437,6.13847698 C32.3216437,6.77040921 31.7710271,7.27691978 31.0925888,7.27691978 C30.423983,7.27691978 29.8782826,6.75593748 29.8782826,6.13847698 Z M32.1348273,14.9324653 L30.0749314,14.9324653 L30.0749314,8.40089086 L32.1348273,8.40089086 L32.1348273,14.9324653 Z M34.8977426,10.8610851 L34.8928264,6.21565954 C34.8928264,5.48242519 35.5466836,5.00968199 36.3086976,5.00968199 L37.4787578,5.00968199 L37.4787578,9.05211873 C37.4787578,11.9416409 42.7636937,11.9657605 42.7636937,8.9894079 L42.7636937,5.07239282 L44.3024704,5.07239282 C44.8481708,5.07239282 45.2857143,5.69950115 45.2857143,6.27837037 L45.2857143,11.0395697 C45.2857143,12.0043518 44.4892867,12.6700514 43.5011266,12.6700514 L36.8642304,12.6700514 C35.6941702,12.6700514 34.8977426,11.994704 34.8977426,10.8610851 Z M38.7078127,8.44912996 L38.7078127,5.00968199 L41.470728,5.00968199 L41.470728,8.81092322 C41.470728,10.4172853 38.7078127,10.7453112 38.7078127,8.44912996 Z"/>
</svg>
