<svg xmlns="http://www.w3.org/2000/svg" width="56" height="20" viewBox="0 0 56 20">
  <path fill="#FFF" fill-rule="evenodd" d="M47.4712252,11.8404835 C47.4712252,11.8645616 47.4521248,11.8829674 47.4297831,11.8829674 L41.9110461,11.8829674 C41.8660155,11.8829674 41.8425162,11.872086 41.8361494,11.8554165 C41.8295511,11.829139 41.8442526,11.8101544 41.8765496,11.7880443 L47.3692407,8.40646633 C47.407673,8.38296707 47.4712252,8.38655562 47.4712252,8.46203107 L47.4712252,11.8404835 Z M49.9574004,11.8850511 C49.9806681,11.8850511 50,11.9040357 50,11.925567 L50,12.4710276 C50,12.4940639 49.9806681,12.5131642 49.9574004,12.5131642 L48.7772283,12.5131642 C48.7551181,12.5131642 48.7357862,12.5321489 48.7357862,12.5556481 L48.7357862,13.0994881 C48.7357862,13.1229873 48.7166858,13.141972 48.6945757,13.141972 L47.5106993,13.141972 C47.4885892,13.141972 47.4700676,13.1229873 47.4700676,13.0994881 L47.4700676,12.5440721 C47.4656687,12.5271712 47.4507357,12.5144376 47.4323298,12.5131642 L40.8482545,12.5125854 C40.5414908,12.5125854 40.3884562,12.4269231 40.3303447,12.3038704 C40.2629725,12.1607911 40.3563907,11.9675879 40.6352563,11.7964947 L47.7242763,7.44288099 C48.3148833,7.07812157 48.7357862,7.2774601 48.7357862,7.88554681 L48.7357862,11.8430302 C48.7357862,11.8651404 48.7551181,11.884125 48.7782701,11.884125 L48.7357862,11.884125 L49.9574004,11.8850511 Z M29.4709093,10.4226564 L24.5130289,10.4226564 C24.0551986,10.4226564 23.735354,10.8097574 23.735354,11.3637843 L23.735354,13.1006457 C23.735354,13.1235661 23.7169482,13.141972 23.6940277,13.141972 L22.5152447,13.141972 C22.49244,13.141972 22.4738027,13.1240292 22.4738027,13.1006457 L22.4732239,11.3637843 C22.4732239,10.4684973 23.0781851,9.79396439 23.8810957,9.79396439 L29.0531319,9.79396439 C29.607506,9.79396439 29.870281,9.3950558 29.870281,8.84137624 C29.870281,8.2873494 29.6065799,7.88855657 29.0531319,7.88855657 L22.5152447,7.88855657 C22.4917455,7.88855657 22.4732239,7.87003499 22.4732239,7.84734605 L22.4732239,7.30107512 C22.4732239,7.27873346 22.4917455,7.26032764 22.5145502,7.26032764 L29.4709093,7.26032764 C30.5862559,7.26032764 31.1317165,7.94770988 31.1317165,8.8426496 C31.1317165,9.73701052 30.5862559,10.4226564 29.4709093,10.4226564 Z M40.8297329,7.88739897 L37.4023141,7.88739897 C36.848866,7.88739897 36.5857438,8.28596028 36.5857438,8.8403344 L36.5857438,11.5613864 C36.5857438,12.4564419 36.038894,13.141972 34.9238948,13.141972 L30.8924408,13.141972 C30.8694046,13.141972 30.8509988,13.1235661 30.8509988,13.1006457 L30.8509988,12.5544905 C30.8509988,12.531107 30.8694046,12.5131642 30.8915147,12.5131642 L34.5065804,12.5131642 C35.0606072,12.5131642 35.3237294,12.1146029 35.3237294,11.5608076 L35.3237294,8.84137624 C35.3237294,7.9473626 35.8695373,7.25963308 36.9845366,7.25963308 L40.8297329,7.25905428 C40.8518431,7.25905428 40.8703646,7.2774601 40.8703646,7.30038056 L40.8703646,7.84665149 C40.8703646,7.86887739 40.8524219,7.88739897 40.8297329,7.88739897 Z M13.4395535,10.3178937 L13.4395535,7.33568733 C13.4395535,6.98643974 13.3753067,6.664743 13.0463171,6.57329268 C12.7945394,6.49121892 12.6390738,6.72586422 12.6390738,7.07511181 L12.6390738,14.5425509 L10.6239256,13.9030933 L10.6239256,5 C11.4811276,5.15882257 12.7285562,5.53469494 13.3998478,5.75984793 C15.1053383,6.34628754 15.683559,7.07511181 15.683559,8.7168186 C15.683559,10.3173149 14.6955483,10.9244755 13.4395535,10.3178937 M18.2566698,12.3032916 C18.0147317,12.6082031 17.4235459,12.8259475 17.4235459,12.8259475 L13.0205027,14.4073433 L13.0205027,13.2415255 L16.260622,12.086126 C16.628507,11.9546228 16.6852293,11.7683651 16.3865688,11.6707795 C16.0877925,11.5730782 15.5478884,11.6009763 15.1798877,11.7324795 L13.0205027,12.4934851 L13.0205027,11.2836784 L13.1443658,11.2416576 C13.1443658,11.2416576 13.7691219,11.0203247 14.64554,10.9226233 C15.5231158,10.8274687 16.5975991,10.93582 17.4407941,11.2560118 C18.3911828,11.5564087 18.4980292,11.9990746 18.2566698,12.3032916 Z M8.02986223,12.7121555 C8.32852275,12.8098568 8.8686584,12.782306 9.23654334,12.6501082 L10.233236,12.2883585 L10.233236,13.3359855 C10.1696838,13.3465197 10.0998806,13.3580957 10.0350551,13.3686298 C9.0377836,13.531504 7.97487628,13.4637845 6.92875414,13.1185885 C5.95301402,12.8441218 5.79013985,12.2724994 6.23500511,11.9422365 C6.64664729,11.6373249 7.34537399,11.4089306 7.34537399,11.4089306 L10.233236,10.3824877 L10.233236,11.5522414 L8.15511443,12.2964617 C7.7872295,12.427965 7.73178051,12.6151487 8.02986223,12.7121555 Z"/>
</svg>
