<svg xmlns="http://www.w3.org/2000/svg" width="56" height="20" viewBox="0 0 56 20">
  <path fill="#FFF" d="M8.75625601,5.86326251 C10.6290318,5.56042952 12.5053748,5.27518849 14.3817178,5 C14.3829069,6.73783413 14.3817178,8.4744117 14.3829069,10.2122458 C12.5077529,10.2197852 10.632599,10.2499429 8.75625601,10.2562257 C8.75506695,8.79106694 8.75506695,7.32716472 8.75625601,5.86326251 Z M4,6.56442769 C5.41022991,6.33447567 6.82652404,6.13593786 8.24269927,5.94870916 C8.24388833,7.38999315 8.24388833,8.83002056 8.2450774,10.2713045 C6.83009123,10.270048 5.41498616,10.2926662 4,10.2888965 L4,6.56442769 Z M26.4043439,6.8069454 C26.7753319,6.55688828 27.2497684,7.07836418 27.0333588,7.47041353 C26.9287212,7.75816769 26.5458426,7.86748915 26.3294329,7.65638565 C26.0583263,7.46161755 26.0963764,6.94391135 26.4043439,6.8069454 Z M36.8336243,6.75416952 L36.8336243,13.7909527 L36.1226829,13.7909527 C36.123872,13.5358693 36.1191157,13.2806603 36.1024688,13.0257025 C35.5876041,14.0031871 34.210668,14.2194425 33.4235077,13.4944026 C32.8611993,12.9829792 32.6898552,12.1511309 32.7195818,11.3983208 C32.7255271,10.6343272 32.9633399,9.82258396 33.5388469,9.3237263 C34.2867681,8.67282385 35.6125745,8.7105209 36.1250611,9.66676948 C36.1154296,8.69556774 36.1237531,7.72549692 36.1201859,6.75542609 C36.3579987,6.75416952 36.5958115,6.75416952 36.8336243,6.75416952 Z M33.5198218,10.7525703 C33.3793934,11.4386566 33.4043637,12.2326822 33.8135206,12.8158556 C34.2558525,13.4364748 35.232074,13.4504227 35.7053215,12.8636052 C36.0275578,12.5092529 36.1189968,12.0015993 36.1214939,11.5266164 C36.1249422,11.0252456 36.1654892,10.4597898 35.8503873,10.0413525 C35.5720274,9.62291524 35.0524064,9.43442997 34.5839152,9.53746859 C34.0131645,9.63296779 33.6267187,10.1833448 33.5198218,10.7525703 Z M18.3531916,7.13490976 C18.7706719,8.72823852 19.1820881,10.3240804 19.6005197,11.9185401 C19.6906273,12.253645 19.7558278,12.5956761 19.7955262,12.9415125 C20.2307236,10.9850354 20.8252556,9.07002513 21.3246625,7.12988348 C21.55653,7.13114005 21.7883975,7.13114005 22.0203839,7.13239662 C22.3878046,8.51336532 22.7313252,9.90061686 23.0951788,11.2828421 C23.229662,11.8332191 23.4032653,12.3760567 23.4579622,12.9451565 C23.8515424,10.9911926 24.4126617,9.07618232 24.8585607,7.13490976 C25.1225329,7.13114005 25.3865052,7.13114005 25.6504774,7.13114005 C25.0749704,9.3540096 24.4756821,11.5705963 23.8931597,13.7909527 L23.0357256,13.7909527 C22.6136079,12.196493 22.1951763,10.6003998 21.7683023,9.00845328 C21.6968396,8.75085675 21.667113,8.48446424 21.6446396,8.21807174 C21.6113458,8.44802376 21.5804302,8.68048892 21.5244253,8.90541467 C21.092795,10.5289011 20.6552195,12.1497487 20.2354799,13.7758739 C19.9502234,13.7922093 19.6647292,13.7934658 19.3793538,13.7909527 C18.7669858,11.5718529 18.1593741,9.35023989 17.5493843,7.12988348 C17.8169237,7.13114005 18.0844631,7.13114005 18.3531916,7.13490976 Z M28.858572,9.78501257 C29.266421,9.01724926 30.2176722,8.66415353 30.9846185,9.01976239 C31.5946083,9.27107608 31.8217195,10.0173521 31.8407446,10.6533013 C31.8739194,11.6986406 31.8466899,12.7453621 31.8550133,13.7909527 C31.6172005,13.7909527 31.3793877,13.7909527 31.1415749,13.7896961 C31.1307544,12.785698 31.1665453,11.7791867 31.1248091,10.7751885 C31.1057841,10.2775874 30.9060213,9.67946082 30.3936537,9.55254741 C29.6457324,9.31379941 28.8990002,10.0262737 28.8751,10.8078593 C28.8536969,11.8018049 28.873911,12.7970071 28.8667766,13.7909527 L28.1533382,13.7909527 C28.1546461,12.1988805 28.1546461,10.6080649 28.1533382,9.01599269 L28.8680846,9.01599269 C28.8668955,9.27233265 28.8657064,9.52867261 28.858572,9.78501257 Z M41.4281676,9.43066027 C41.9680027,9.95716244 42.1285263,10.7751885 42.0987997,11.5228467 C42.0904763,12.1951108 41.8550416,12.8774275 41.3889285,13.3461275 C40.4162741,14.2810144 38.6100859,14.0761937 37.9928428,12.7907242 C37.5078236,11.7138451 37.6052079,10.2235549 38.4910606,9.4055289 C38.8086596,9.12154444 39.2105632,8.99211789 39.6088997,8.89787526 C40.2450489,8.83881654 40.950045,8.94436829 41.4281676,9.43066027 Z M39.4804808,9.58144848 C38.4327965,9.92197852 38.2556259,11.3682888 38.5826185,12.3195111 C38.8430236,13.1639251 39.8584842,13.5383825 40.5873805,13.14382 C41.080842,12.9038154 41.3055751,12.3157414 41.3531377,11.7766735 C41.4065266,11.1471327 41.359083,10.4335275 40.9381543,9.94208362 C40.581554,9.51736349 39.9775095,9.425634 39.4804808,9.58144848 Z M51.748173,9.08133425 C51.8645824,9.31505597 51.7743324,9.62165867 51.8016809,9.88428147 C51.3010849,9.55380398 50.6113089,9.34270048 50.0680256,9.67946082 C49.6958485,9.89307745 49.6780126,10.5250057 50.0406771,10.7601097 C50.5602981,11.1157185 51.2202286,11.2087046 51.6815854,11.6660955 C52.1905048,12.1838017 52.0668421,13.1790039 51.4711211,13.5672835 C50.7469811,14.0548321 49.7933518,14.0070825 49.0347289,13.6351382 C49.0347289,13.3536669 49.0335399,13.0723212 49.0287836,12.7907242 C49.5686187,13.2254969 50.3272415,13.4667581 50.9729033,13.1576422 C51.3498366,12.9578478 51.3688616,12.345899 51.0371127,12.0883025 C50.5174918,11.6836875 49.8053613,11.6196025 49.3438856,11.114462 C48.888593,10.6294265 48.9705195,9.73726297 49.4783687,9.32636509 C49.7409141,9.0712817 50.0964442,8.99463103 50.428193,8.89536212 C50.874092,8.86269134 51.3283145,8.9079278 51.748173,9.08133425 Z M26.2509547,9.01724926 C26.4887675,9.01599269 26.7265803,9.01599269 26.9643931,9.01599269 L26.9643931,13.7909527 L26.2509547,13.7909527 C26.2509547,12.1988805 26.2521437,10.6080649 26.2509547,9.01724926 Z M43.1404198,9.01599269 C43.4353076,10.1531871 43.7208019,11.2928947 44.0215162,12.4288325 C44.0821585,12.6423235 44.1047507,12.8636052 44.1261538,13.0847613 C44.4626589,11.7152273 44.8883439,10.3705735 45.2700334,9.01473612 L45.9205703,9.01850583 C46.2475629,10.3755997 46.6542228,11.7125885 46.9252105,13.0835047 C47.2047594,11.7200023 47.6017879,10.3869088 47.9122525,9.03107151 C48.1512544,9.01850583 48.3902563,9.01473612 48.6303283,9.01222298 C48.1772949,10.6044208 47.7432865,12.2013936 47.2879939,13.7909527 L46.5482772,13.7909527 C46.2272299,12.4966872 45.8110575,11.2275531 45.5506525,9.91946539 C45.2403068,11.2262966 44.8098656,12.4979438 44.4555246,13.7909527 L43.7408971,13.7909527 C43.293809,12.1988805 42.8372085,10.6104524 42.3960657,9.01599269 L43.1404198,9.01599269 Z M4,10.7425177 C5.41391601,10.7374914 6.8275942,10.7613662 8.2413913,10.7588531 C8.2413913,12.2039068 8.24495849,13.6489605 8.24269927,15.0940142 C6.83009123,14.8727325 5.41498616,14.6793466 4,14.4770391 L4,10.7425177 Z M14.3817178,10.8003199 C14.3840959,12.5331277 14.3817178,14.2659356 14.3817178,16 C12.508942,15.7034499 10.632599,15.4282614 8.75625601,15.1594814 C8.75387788,13.7067626 8.75031069,12.2541695 8.74793256,10.8003199 L14.3817178,10.8003199 Z"/>
</svg>
