<svg xmlns="http://www.w3.org/2000/svg" width="56" height="20" viewBox="0 0 56 20">
  <path fill="#FFF" fill-rule="evenodd" d="M8.01975069,12.6737382 C8.31692347,12.7709529 8.85436849,12.7435393 9.22042085,12.612 L10.2121486,12.2520524 L10.2121486,13.2944607 C10.148913,13.3049424 10.0794575,13.3164607 10.0149549,13.3269424 C9.02265121,13.4890052 7.96503865,13.421623 6.92412765,13.0781466 C5.95324807,12.8050471 5.79118525,12.2362723 6.23383446,11.9076545 C6.64342608,11.6042618 7.33867216,11.3770052 7.33867216,11.3770052 L10.2121486,10.3556754 L10.2121486,11.5196021 L8.14437896,12.2601152 C7.77832661,12.3909634 7.72315383,12.5772147 8.01975069,12.6737382 Z M40.0959962,7.18848168 C40.1223549,7.18848168 40.1443205,7.20600956 40.1443205,7.22791942 L40.1443205,7.7800478 C40.1443205,7.80195766 40.126748,7.81948555 40.1003893,7.81948555 L36.8934129,7.81948555 C36.3310938,7.81948555 36.0718998,8.21824494 36.0718998,8.77475529 L36.0718998,11.4959595 C36.0718998,12.3898816 35.52276,13.0778511 34.4025148,13.0778511 L30.8089439,13.0778511 C30.7869783,13.0778511 30.7694059,13.0603232 30.7694059,13.0384134 L30.7694059,12.490667 C30.7694059,12.4687571 30.7869783,12.4512292 30.8089439,12.4512292 L33.9807754,12.4512292 C34.5343083,12.4512292 34.7978954,12.0524698 34.7978954,11.4959595 L34.7978954,8.77475529 C34.7978954,7.87645117 35.3470352,7.18848168 36.4672804,7.18848168 L40.0959962,7.18848168 Z M29.348125,7.18848168 C30.4631885,7.18848168 31.0054155,7.88031838 31.0097883,8.77357591 C31.0097883,9.67121214 30.4631885,10.3542914 29.3524978,10.3542914 L24.3981176,10.3542914 C23.934601,10.3542914 23.6197596,10.7439969 23.6197596,11.2957148 L23.6197596,13.034064 C23.6197596,13.0603363 23.5978956,13.0778511 23.5760316,13.0778511 L22.3997489,13.0778511 C22.3735121,13.0778511 22.3560209,13.0559576 22.3560209,13.034064 L22.3560209,11.2957148 C22.3560209,10.3980786 22.9594671,9.7237567 23.7640619,9.71937799 L28.9327092,9.71937799 C29.4836818,9.71937799 29.7460497,9.32091508 29.7460497,8.76919719 C29.7460497,8.2131006 29.4836818,7.81463768 28.9327092,7.81463768 L22.3997489,7.81463768 C22.3735121,7.81463768 22.3560209,7.79712283 22.3560209,7.77522926 L22.3560209,7.2278901 C22.3560209,7.20599653 22.3735121,7.18848168 22.3997489,7.18848168 L29.348125,7.18848168 Z M49.4834878,10.0630549 C49.8292884,10.3785568 50,10.8912474 50,11.4258479 L50,11.4915775 C50,12.337298 49.4572245,13.0778511 48.341033,13.0778511 L41.3856276,13.0778511 C41.3637415,13.0778511 41.3462326,13.0603232 41.3462326,13.0384134 L41.3462326,12.490667 C41.3462326,12.4687571 41.3637415,12.4512292 41.3856276,12.4512292 L47.9164425,12.4512292 C48.4679724,12.4512292 48.7349829,12.0480879 48.7349829,11.4915775 L48.7349829,11.4258479 C48.7349829,11.0665263 48.6430613,10.3654109 47.9208197,10.3566469 L41.3856276,10.3566469 C41.3637415,10.3566469 41.3462326,10.3391191 41.3462326,10.3172092 L41.3462326,9.76946278 C41.3462326,9.74317095 41.3637415,9.72564307 41.3856276,9.72564307 L47.9164425,9.72564307 L47.9251969,9.72564307 C48.4811041,9.72564307 48.7437374,9.32688368 48.7437374,8.77475529 C48.7437374,8.21824494 48.4767268,7.81948555 47.9251969,7.81948555 L41.3856276,7.81948555 C41.3637415,7.81948555 41.3462326,7.80195766 41.3462326,7.7800478 L41.3462326,7.23230139 C41.3462326,7.20600956 41.3637415,7.18848168 41.3856276,7.18848168 L48.341033,7.18848168 C49.4572245,7.18848168 50,7.88083314 50,8.77475529 C50,9.27868199 49.8292884,9.70811518 49.4834878,9.99732529 C49.4659789,10.0148532 49.4659789,10.045527 49.4834878,10.0630549 Z M13.4024941,10.2914031 L13.4024941,7.32405236 C13.4024941,6.9765445 13.3385674,6.65645026 13.0112167,6.5654555 C12.7606931,6.48379058 12.606002,6.71726702 12.606002,7.06477487 L12.606002,14.4950157 L10.6008921,13.8587435 L10.6008921,5 C11.453824,5.15803141 12.6950386,5.53203141 13.3629863,5.75606283 C15.0599811,6.33958115 15.6353214,7.06477487 15.6353214,8.69830366 C15.6353214,10.2908272 14.6522324,10.8949634 13.4024941,10.2914031 Z M18.1956146,12.266911 C17.9548816,12.5703037 17.3666407,12.7869634 17.3666407,12.7869634 L12.9855308,14.3604817 L12.9855308,13.2004712 L16.2095099,12.0508272 C16.5755622,11.9199791 16.632002,11.7346492 16.3348292,11.6375497 C16.0375413,11.5403351 15.5003266,11.5680942 15.1341591,11.6989424 L12.9855308,12.4561571 L12.9855308,11.252377 L13.1087769,11.2105654 C13.1087769,11.2105654 13.7304208,10.9903351 14.6024732,10.8931204 C15.4756774,10.7984398 16.5448083,10.9062513 17.383803,11.2248482 C18.3294575,11.5237487 18.4357716,11.9642094 18.1956146,12.266911 Z"/>
</svg>
