<svg xmlns="http://www.w3.org/2000/svg" width="56" height="20" viewBox="0 0 56 20">
  <path fill="#FFF" d="M5.49019668,6.43610826 L5.48547091,6.44030894 L5.48547091,6.44083403 C4.5336294,7.37797203 3.99836251,8.65833648 4.00000464,9.99408617 C3.9985126,11.0872134 4.35726651,12.1503725 5.02077043,13.0191025 C5.02759654,13.0275039 5.03809825,13.0322296 5.04754978,13.0275039 C5.05647623,13.022253 5.05700132,13.0112262 5.05332572,13.0017747 C4.67263889,11.8245335 6.61860496,8.97122003 7.62414329,7.77507574 C7.6272938,7.77087506 7.63149448,7.76614929 7.63149448,7.76037335 C7.63149448,7.75354725 7.62676871,7.74829639 7.62204295,7.74409571 C5.93074324,6.06067228 5.47916989,6.4455598 5.48547091,6.44030894 L5.49019668,6.43610826 Z M12.4979849,6.43610826 L12.5027107,6.44030894 L12.5027107,6.44083403 C13.4544593,7.37799177 13.9895507,8.65838919 13.9876519,9.99408617 C13.9891439,11.0872134 13.63039,12.1503725 12.9668861,13.0191025 C12.9605851,13.0275039 12.9495583,13.0322296 12.9401067,13.0275039 C12.9317054,13.022253 12.9311803,13.0112262 12.9343308,13.0017747 C13.3150176,11.8245335 11.3706268,8.96911969 10.3656136,7.77245032 C10.361938,7.76824963 10.3582624,7.76352387 10.3582624,7.75827301 C10.3582624,7.75092182 10.3624631,7.74567097 10.3677139,7.74147028 C12.0595387,6.05804685 12.5079615,6.4455598 12.5021856,6.44030894 L12.4979849,6.43610826 Z M8.9940908,5 C10.0017295,5 10.8308391,5.27619486 11.5953633,5.73091872 C11.6048148,5.73564449 11.6074403,5.74614619 11.6037647,5.75559773 C11.6000891,5.76452418 11.5895874,5.76662452 11.5796108,5.76399909 C10.6129287,5.55501515 9.14321502,6.39042584 9.00459251,6.4739144 C9.001442,6.47601474 8.99829148,6.47811508 8.9940908,6.47811508 C8.98936503,6.47811508 8.98621452,6.47601474 8.98306401,6.4739144 C8.61445414,6.26230503 7.2560585,5.55028938 6.40069457,5.76924995 C6.39124303,5.77135029 6.38074133,5.76977503 6.37654064,5.7603235 C6.37283714,5.7511519 6.37641178,5.7406514 6.38494201,5.73564449 C7.14946619,5.27619486 7.98907756,5 8.9940908,5 Z M8.9940908,9.00535057 C8.99986674,9.00535057 9.00616776,9.01007634 9.00984336,9.01322685 C10.5042361,10.1495114 13.0619265,12.9587177 12.2811247,13.7531717 L12.2821749,13.7521216 L12.2816498,13.7531717 L12.2805996,13.7531717 C11.3716169,14.5510191 10.2030315,14.9902653 8.99356572,14.9886974 C7.78396278,14.9901522 6.6152511,14.5509286 5.70600673,13.7531717 L5.70495656,13.7521216 L5.70600673,13.7531717 C4.92678017,12.9587177 7.48394552,10.1495114 8.97676299,9.01322685 C8.98096367,9.01007634 8.98778978,9.00535057 8.9940908,9.00535057 Z M50.7161057,12.7935156 C50.3033072,12.7935156 49.9560935,12.6577782 49.6937543,12.3901816 C49.107349,11.8045717 49.0263325,10.7147943 49.0263325,10.1175497 C49.0263325,9.31475993 49.1883655,7.44546201 50.7161057,7.44546201 C52.2438458,7.44546201 52.4135947,9.31475993 52.4135947,10.1175497 C52.4097368,10.9242177 52.2438458,12.7935156 50.7161057,12.7935156 Z M50.7161057,6.89475599 C49.2616662,6.89475599 48.4283534,8.06985406 48.4283534,10.1214279 C48.4283534,12.1691236 49.2616662,13.3442216 50.7161057,13.3442216 C51.5417026,13.3442216 52.1589713,12.983548 52.5486222,12.2660788 C52.9228414,11.5835136 53,10.7225507 53,10.1175497 C53,9.15187505 52.7762401,6.89475599 50.7161057,6.89475599 Z M45.8049612,12.7935156 C44.940785,12.7935156 44.2617894,12.0954375 44.2617894,11.2034489 C44.2617894,10.2765564 44.9253533,9.57847831 45.8049612,9.57847831 C46.2061859,9.57847831 46.5804051,9.73360677 46.858176,10.0167162 C47.1629525,10.3230949 47.3365593,10.7574546 47.3365593,11.2034489 C47.3365593,12.0954375 46.6614216,12.7935156 45.8049612,12.7935156 Z M45.8049612,9.02777228 C45.1452553,9.02777228 44.5357024,9.35354204 44.1653411,9.88873522 C44.2386418,8.72139358 44.612861,7.44934023 45.874404,7.44934023 C46.5804051,7.44934023 47.1166573,7.91084739 47.2323952,8.6283165 L47.2516849,8.74078464 L47.8380902,8.74078464 L47.8265164,8.5934126 C47.7107785,7.55017372 46.9623401,6.8986342 45.870546,6.8986342 C43.9570129,6.8986342 43.5519303,8.81059244 43.5519303,10.416172 C43.5519303,12.3320084 44.3312321,13.3480998 45.8011033,13.3480998 C47.0124932,13.3480998 47.9229646,12.4250855 47.9229646,11.2034489 C47.9268225,9.94303018 47.0356408,9.02777228 45.8049612,9.02777228 Z M42.1090647,9.89649165 C42.6260272,9.65604254 42.9539512,9.14024041 42.9539512,8.52748301 C42.9539512,8.09700154 42.8112078,7.73244966 42.5334369,7.44934023 C42.1785074,7.09254477 41.5882442,6.88699957 40.9323961,6.88699957 C39.8483179,6.88699957 39.0998795,7.53466088 38.9841417,8.58177797 L38.9687099,8.72915 L39.5551152,8.72915 L39.5744049,8.61668187 C39.6901428,7.89921275 40.226395,7.43770559 40.9323961,7.43770559 C41.6422552,7.43770559 42.3675459,7.81001389 42.3675459,8.52748301 C42.3675459,8.83386171 42.2710977,9.08206724 42.0820591,9.26046497 C41.7811406,9.55520904 41.2178829,9.62889506 40.9285382,9.62889506 C40.8243741,9.62889506 40.6700569,9.63277327 40.5157397,9.63277327 C40.5118818,9.78402351 40.5118818,10.0710112 40.5157397,10.214505 L40.9285382,10.214505 C41.4763642,10.2183832 41.9045944,10.3347295 42.1707915,10.5868133 C42.3906935,10.7923585 42.5025735,11.0832243 42.5025735,11.4477762 C42.5025735,12.3281302 41.7116979,12.7857592 40.9323961,12.7857592 C40.4231494,12.7857592 40.006493,12.6306307 39.7248641,12.3358866 C39.4470932,12.0450208 39.3082077,11.6300522 39.3313553,11.1297629 L39.3352133,10.9901473 L38.74495,10.9901473 L38.7410921,11.1181283 C38.7102287,11.7774242 38.8876934,12.3320084 39.2541967,12.7159514 C39.6399897,13.1192854 40.2225371,13.332587 40.936254,13.332587 C42.2479501,13.332587 43.0966946,12.5918486 43.0966946,11.4400198 C43.0889788,10.7147943 42.7147596,10.140819 42.1090647,9.89649165 M37.2866526,13.1929714 L34.9294576,9.97017766 L37.0783244,7.04212802 L36.2720171,7.04212802 L34.524375,9.43110627 L32.7767329,7.03824981 L31.9742835,7.03824981 L34.1192924,9.96629945 L31.7698133,13.1890932 L32.5761205,13.1890932 L34.524375,10.5208837 L36.4803453,13.1890932 L37.2866526,13.1890932 M21.2492392,13.1929714 L18.89976,9.97017766 L21.0447689,7.04212802 L20.2423195,7.04212802 L18.4946774,9.43110627 L16.7470353,7.04212802 L15.940728,7.04212802 L18.0895948,9.97017766 L15.7323998,13.1929714 L16.5387071,13.1929714 L18.4946774,10.5247619 L20.4429319,13.1929714 L21.2492392,13.1929714 M24.0655278,12.5491883 L22.2677326,12.5491883 L22.2677326,10.3114603 L24.0655278,10.3114603 C24.7522393,10.3114603 25.5624045,10.4976144 25.5624045,11.3818466 C25.5624045,12.397938 24.6249276,12.5491883 24.0655278,12.5491883 Z M22.2715905,7.68203291 L24.0693857,7.68203291 C24.5554848,7.68203291 25.369508,7.80613568 25.369508,8.6593422 C25.369508,9.30700351 24.8949827,9.69094644 24.0693857,9.69094644 L22.2715905,9.69094644 L22.2715905,7.68203291 Z M25.7205796,10.2028703 C25.5932679,10.0904022 25.4582404,10.0089598 25.3193549,9.94690839 C25.7630168,9.70258107 26.0523615,9.24883034 26.0523615,8.71363716 C26.0523615,8.3219378 25.9096181,7.03824981 24.0655278,7.03824981 L21.584879,7.03824981 L21.584879,9.69094644 L20.7592821,9.69094644 C20.6474021,9.83056205 20.4043526,10.1679664 20.3117623,10.3075821 L21.588737,10.3075821 L21.588737,13.1890932 L24.0693857,13.1890932 C25.4196611,13.1890932 26.2568318,12.5026497 26.2568318,11.3934813 C26.2529739,10.912583 26.0677933,10.5014926 25.7205796,10.2028703 Z M29.482061,12.6771692 C28.1703649,12.6771692 27.2521777,11.6222957 27.2521777,10.1136715 C27.2521777,8.60504724 28.1703649,7.55017372 29.482061,7.55017372 C30.7898991,7.55017372 31.7003705,8.60504724 31.7003705,10.1136715 C31.7042284,11.6222957 30.7898991,12.6771692 29.482061,12.6771692 Z M29.482061,6.8986342 C27.7575664,6.8986342 26.5577503,8.2211043 26.5577503,10.1136715 C26.5577503,12.0062387 27.7575664,13.3287088 29.482061,13.3287088 C31.1949817,13.3287088 32.3947979,12.0062387 32.3947979,10.1136715 C32.3986558,8.2211043 31.1949817,6.8986342 29.482061,6.8986342 Z"/>
</svg>
