<svg xmlns="http://www.w3.org/2000/svg" width="56" height="20" viewBox="0 0 56 20">
  <g fill="#FFF" fill-rule="evenodd" transform="translate(3 4)">
    <path d="M4.81242347,11.0203429 C4.81242347,7.66922933 4.81242347,4.32482634 4.81242347,0.973895095 C4.76365889,0.973895095 4.72273018,0.973895095 4.68180147,0.973895095 C4.17760929,0.973931566 3.67334423,0.970248022 3.1691885,0.976010398 C3.00135526,0.977906876 2.83155395,0.991364578 2.66656349,1.02123411 C1.72090249,1.19224539 0.981670892,2.08111018 0.981160649,3.04342703 C0.980140165,5.02025034 0.975074189,6.99707366 0.984367886,8.97386051 C0.987137772,9.56402996 1.2304504,10.0644085 1.66302644,10.4671913 C2.07840003,10.853927 2.57854672,11.0242453 3.13984957,11.02647 C3.66288426,11.0286218 4.18591895,11.0270535 4.70895364,11.0266888 C4.74186426,11.0266524 4.77473844,11.0227865 4.81242347,11.0203429 Z M5.79117733,6.00204256 C5.79117733,7.94549516 5.79117733,9.88898422 5.79114088,11.8324733 C5.79114088,11.9841186 5.77517759,11.999801 5.62359921,11.9997646 C4.79930296,11.9994728 3.97504314,11.9991081 3.15078333,11.9989622 C2.30753522,11.9988163 1.56914188,11.7221858 0.956413903,11.1406599 C0.501132086,10.7085546 0.207269031,10.177796 0.0797084834,9.56125819 C0.0426794788,9.38218687 0.0133769987,9.19757201 0.0129396483,9.01543715 C0.00834746858,7.00794194 -0.0176384372,4.99989967 0.02033816,2.99313388 C0.0441737595,1.73514877 0.688901212,0.825240374 1.82342472,0.277376974 C2.24138597,0.0755479195 2.69072711,0.00143938341 3.15402701,0.00256997623 C3.97449646,0.00457586673 4.79503879,0.00286174212 5.61558112,0.00271585918 C5.78549177,0.00267938844 5.79117733,0.00844176477 5.79117733,0.182917767 C5.79117733,2.12265035 5.79117733,4.06234646 5.79117733,6.00204256 Z M1.88079052,3.59453632 C1.86274982,3.01078572 2.3536028,2.47017999 3.00004321,2.47236824 C3.63037454,2.47448354 4.13671703,2.94878546 4.13270798,3.62006584 C4.12869893,4.28696972 3.56834367,4.7441304 2.9873236,4.7297974 C2.36136577,4.71437028 1.87670858,4.22661065 1.88079052,3.59453632 M9.37227569,5.3941848 C8.69893823,5.37879415 8.16227278,5.94416351 8.15337999,6.57995785 C8.14419563,7.24026053 8.68253759,7.77043562 9.28571675,7.80413458 C10.0097869,7.84458063 10.5642014,7.25229587 10.564493,6.61610035 C10.564821,5.94237644 10.0503511,5.40651191 9.37227569,5.3941848 Z M6.98809617,5.98905898 C6.98809617,4.04994641 6.98809617,2.11083383 6.98813261,0.171721251 C6.98813261,0.00548763514 6.99039226,0.00322644949 7.16121405,0.00322644949 C7.76322694,0.00315350801 8.36538562,-0.00494299544 8.96725273,0.00479469115 C10.435912,0.0286830234 11.6638827,1.07550257 11.9324159,2.4825071 C11.9750211,2.70570801 11.9960139,2.93642189 11.9965971,3.16374398 C12.0015537,5.07269526 11.9998043,6.98168301 11.9992212,8.89067076 C11.9987838,10.203362 11.2023322,11.3561655 9.98044793,11.8090955 C9.64088176,11.9349925 9.28695591,11.9953151 8.92537642,11.9978681 C8.34595997,12.0019163 7.76647063,11.9989622 7.18701773,11.9989257 C6.98809617,11.9989257 6.98809617,11.9988528 6.98809617,11.7950908 C6.98809617,9.85973469 6.98809617,7.92441507 6.98809617,5.98905898 Z"/>
    <path fill-rule="nonzero" d="M9.30821918,2.31506849 C9.00684932,3.39041096 8.7260274,4.39041096 8.43835616,5.39041096 C8.31506849,5.82876712 8.41780822,5.78082192 7.92465753,5.78082192 C7.63013699,5.78082192 7.26712329,5.85616438 7.06849315,5.71232877 C6.88356164,5.57534247 6.87671233,5.19178082 6.80136986,4.91780822 C6.39726027,3.50684932 6,2.0890411 5.60273973,0.678082192 C5.58219178,0.609589041 5.57534247,0.54109589 5.54794521,0.417808219 C5.91780822,0.417808219 6.2739726,0.410958904 6.62328767,0.424657534 C6.67808219,0.424657534 6.74657534,0.561643836 6.76712329,0.643835616 C7.08219178,1.80821918 7.39041096,2.97945205 7.71232877,4.20547945 C7.76027397,4.06849315 7.79452055,3.97945205 7.82191781,3.89041096 C8.13013699,2.82191781 8.44520548,1.76027397 8.74657534,0.684931507 C8.80136986,0.479452055 8.87671233,0.390410959 9.10958904,0.397260274 C9.78767123,0.410958904 9.78767123,0.397260274 9.97945205,1.04794521 C10.2534247,1.99315068 10.5342466,2.93835616 10.8082192,3.88356164 C10.8356164,3.96575342 10.8630137,4.04794521 10.9109589,4.21917808 C10.9589041,4.04794521 10.9931507,3.95205479 11.0136986,3.84931507 C11.2945205,2.78767123 11.5890411,1.71917808 11.8561644,0.650684932 C11.9041096,0.452054795 11.9863014,0.390410959 12.1849315,0.397260274 C12.4726027,0.410958904 12.760274,0.404109589 13.0821918,0.404109589 C13.0616438,0.506849315 13.0479452,0.582191781 13.0273973,0.657534247 C12.5684932,2.28082192 12.109589,3.89726027 11.6575342,5.52054795 C11.6027397,5.70547945 11.5273973,5.78767123 11.3287671,5.7739726 C11.0890411,5.75342466 10.8424658,5.75342466 10.6027397,5.7739726 C10.3630137,5.79452055 10.260274,5.71232877 10.1986301,5.47260274 C9.93835616,4.49315068 9.65753425,3.52054795 9.39041096,2.54794521 C9.37671233,2.49315068 9.34931507,2.43835616 9.30821918,2.31506849 Z M28.6232877,0.431506849 L29.739726,0.431506849 L29.739726,2.5 L32.1849315,2.5 L32.1849315,0.417808219 C32.5479452,0.417808219 32.8835616,0.410958904 33.2191781,0.431506849 C33.260274,0.431506849 33.3219178,0.595890411 33.3219178,0.684931507 C33.3287671,1.99315068 33.3287671,3.30821918 33.3287671,4.61643836 C33.3287671,4.93150685 33.3219178,5.24657534 33.3287671,5.56164384 C33.3356164,5.7260274 33.2739726,5.78767123 33.109589,5.78082192 C32.8150685,5.7739726 32.5205479,5.78082192 32.2054795,5.78082192 L32.2054795,3.66438356 L29.7328767,3.66438356 L29.7328767,5.78082192 L28.760274,5.78082192 C28.5684932,5.78082192 28.6232877,5.62328767 28.6232877,5.52054795 L28.6232877,2.04794521 L28.6232877,0.431506849 Z M0,5.37671233 C0.191780822,5.02739726 0.356164384,4.73972603 0.493150685,4.48630137 C1.00684932,4.62328767 1.48630137,4.80821918 1.98630137,4.86986301 C2.40410959,4.92465753 2.83561644,4.84246575 3.26712329,4.80821918 C3.36986301,4.80136986 3.49315068,4.75342466 3.55479452,4.68493151 C3.67123288,4.54109589 3.82876712,4.3630137 3.82191781,4.20547945 C3.81506849,4.06849315 3.6369863,3.86986301 3.48630137,3.81506849 C3.11643836,3.68493151 2.7260274,3.62328767 2.34246575,3.52739726 C1.87671233,3.4109589 1.39726027,3.30821918 0.945205479,3.15068493 C0.465753425,2.98630137 0.136986301,2.65068493 0.0890410959,2.11643836 C0.0342465753,1.54794521 0.280821918,1.12328767 0.746575342,0.821917808 C1.31506849,0.445205479 1.95205479,0.321917808 2.61643836,0.349315068 C3.26712329,0.376712329 3.89041096,0.51369863 4.52739726,0.767123288 C4.39726027,1.08219178 4.2739726,1.38356164 4.16438356,1.65753425 C3.69178082,1.55479452 3.25342466,1.41780822 2.80136986,1.36986301 C2.45205479,1.32876712 2.0890411,1.39726027 1.73287671,1.43150685 C1.65068493,1.43835616 1.54109589,1.47260274 1.48630137,1.52739726 C1.38356164,1.6369863 1.24657534,1.7739726 1.24657534,1.90410959 C1.23972603,2.02054795 1.37671233,2.19863014 1.49315068,2.23972603 C1.88356164,2.36986301 2.28767123,2.44520548 2.68493151,2.55479452 C3.12328767,2.67123288 3.57534247,2.7739726 4,2.93150685 C4.58219178,3.14383562 4.96575342,3.52739726 4.95890411,4.21232877 C4.95205479,4.9109589 4.63013699,5.39726027 3.98630137,5.65068493 C3.05479452,6.02054795 2.0890411,6 1.13013699,5.76712329 C0.753424658,5.67123288 0.397260274,5.51369863 9.73346213e-16,5.37671233 Z M26.5684932,3.93835616 C26.8561644,4.19178082 27.130137,4.43150685 27.4041096,4.67123288 C26.9041096,5.62328767 25.5684932,6.15753425 24.4109589,5.89041096 C23.1917808,5.60958904 22.260274,4.5 22.2191781,3.2739726 C22.1712329,1.90410959 22.9726027,0.746575342 24.239726,0.363013699 C25.4315068,1.0269563e-15 26.760274,0.479452055 27.4178082,1.52054795 C27.1438356,1.76712329 26.8630137,2.01369863 26.5616438,2.2739726 C26.1849315,1.73972603 25.6917808,1.43835616 25.0342466,1.45205479 C24.5616438,1.46575342 24.1643836,1.65068493 23.8424658,2 C23.2260274,2.67123288 23.2808219,3.69863014 23.9589041,4.31506849 C24.7260274,5.01369863 25.6986301,4.87671233 26.5684932,3.93835616 Z M18.5753425,1.56849315 L16.9041096,1.56849315 L16.9041096,0.424657534 C16.9863014,0.417808219 17.0753425,0.410958904 17.1643836,0.410958904 C18.4863014,0.410958904 19.8013699,0.417808219 21.1232877,0.404109589 C21.3424658,0.404109589 21.4383562,0.45890411 21.4178082,0.684931507 C21.3972603,0.890410959 21.3972603,1.09589041 21.4178082,1.30136986 C21.4383562,1.52739726 21.3424658,1.57534247 21.1369863,1.56849315 C20.6917808,1.55479452 20.239726,1.56164384 19.7534247,1.56164384 L19.7534247,1.89726027 C19.7534247,3.0890411 19.7465753,4.28082192 19.760274,5.47945205 C19.760274,5.69863014 19.7123288,5.79452055 19.4794521,5.7739726 C19.2739726,5.75342466 19.0684932,5.75342466 18.8630137,5.7739726 C18.630137,5.79452055 18.5821918,5.69178082 18.5821918,5.47945205 C18.5890411,4.29452055 18.5890411,3.10958904 18.5890411,1.92465753 C18.5753425,1.82876712 18.5753425,1.7260274 18.5753425,1.56849315 Z M14.4246575,0.431506849 L15.5958904,0.431506849 L15.5958904,5.76027397 L14.4246575,5.76027397 L14.4246575,0.431506849 Z" transform="translate(16 3)"/>
  </g>
</svg>
