<svg xmlns:dc="http://purl.org/dc/elements/1.1/" xmlns:cc="http://creativecommons.org/ns#" xmlns:rdf="http://www.w3.org/1999/02/22-rdf-syntax-ns#" xmlns:svg="http://www.w3.org/2000/svg" xmlns="http://www.w3.org/2000/svg" xmlns:sodipodi="http://sodipodi.sourceforge.net/DTD/sodipodi-0.dtd" xmlns:inkscape="http://www.inkscape.org/namespaces/inkscape" version="1.1" xml:space="preserve" sodipodi:docname="4qwant_block_RGB__.svg" width="339" height="367.60001" inkscape:version="0.92.1 r15371" style=""><rect id="backgroundrect" width="100%" height="100%" x="0" y="0" fill="none" stroke="none"/><metadata id="metadata107"><rdf:RDF><cc:Work rdf:about=""><dc:format>image/svg+xml</dc:format><dc:type rdf:resource="http://purl.org/dc/dcmitype/StillImage"/><dc:title/></cc:Work></rdf:RDF></metadata><defs id="defs105"/><sodipodi:namedview pagecolor="#ffffff" bordercolor="#666666" borderopacity="1" objecttolerance="10" gridtolerance="10" guidetolerance="10" inkscape:pageopacity="0" inkscape:pageshadow="2" inkscape:window-width="1920" inkscape:window-height="1001" id="namedview103" showgrid="false" fit-margin-top="0" fit-margin-left="0" fit-margin-right="0" fit-margin-bottom="0" inkscape:zoom="1.1125147" inkscape:cx="151.46657" inkscape:cy="209.94594" inkscape:window-x="-9" inkscape:window-y="-9" inkscape:window-maximized="1" inkscape:current-layer="Calque_1"/><style type="text/css" id="style2">
	.st0{fill:#232323;}
	.st1{fill:#888A90;}
	.st2{fill:url(#SVGID_1_);}
	.st3{fill:#0A92EF;}
	.st4{fill:url(#SVGID_2_);}
	.st5{fill:#FFAA64;}
	.st6{fill:#0E9F9D;}
	.st7{fill:#2EC75B;}
	.st8{fill:#0ABFFF;}
	.st9{fill:#FF2B2A;}
	.st10{fill:#E60000;}
	.st11{fill:#FF2C1D;}
	.st12{fill:#FF5429;}
	.st13{fill:#FF8F2B;}
	.st14{fill:#B20070;}
	.st15{fill:#B9E239;}
	.st16{fill:#E4F445;}
	.st17{fill:#7CED91;}
	.st18{fill:#FFFFFF;}
	.st19{fill:#0F8791;}
	.st20{fill:#18D1C3;}
	.st21{fill:#47D6E5;}
	.st22{fill:#1B7EEA;}
	.st23{fill:#2AD3FF;}
	.st24{fill:url(#SVGID_3_);}
	.st25{fill:url(#SVGID_4_);}
	.st26{fill:#CD2B90;}
	.st27{fill:#0E799A;}
	.st28{fill:#FAFB3E;}
</style><g class="currentLayer" style=""><title>Layer 1</title><g id="g96" class=""><linearGradient id="SVGID_1_" gradientUnits="userSpaceOnUse" x1="318.8999938964844" y1="182.89999389648438" x2="413.29998779296875" y2="182.89999389648438" gradientTransform="translate(0,-30)" transform="translate(21.052631378173828,20.394737243652344) translate(1.9736841917037964,27.63157844543457) translate(1.9736841917037964,31.578947067260742) translate(-0.6578947305679321,0) translate(-238.8000030517578,-112.69999694824219) translate(284.489501953125,306.5105285644531) scale(1.1622788906097412) translate(-284.489501953125,-306.5105285644531) "><stop offset="0" style="stop-color:#FFDD24" id="stop20"/><stop offset="1" style="stop-color:#F4EF25" id="stop22"/></linearGradient><path class="st2" d="m165.48749057300708,89.10300478935243 l16.039448690414428,-24.524084591865538 l-62.41437642574311,-18.247778582572938 c-17.55041124820709,5.811394453048706 -33.58985993862152,15.22585346698761 -47.30475084781647,27.197326040267942 l18.36400647163391,52.53500585556031 c16.504360246658326,-22.431982588768005 42.65563528537751,-36.96046872138977 72.17751910686493,-36.96046872138977 c1.0460510015487672,-0.11622788906097414 2.0921020030975344,-0.11622788906097414 3.1381530046463015,0 z" id="path25" inkscape:connector-curvature="0" style="fill:url(#SVGID_1_)"/><path class="st3" d="m280.3206449652495,269.60491650104524 l-21.037247920036318,-17.434183359146118 l-46.60738351345062,6.973673343658447 c-1.8596462249755863,1.2785067796707157 -3.8355203390121457,2.557013559341431 -5.9276223421096805,3.719292449951172 l44.166597843170166,41.958267951011656 l24.87276825904846,21.967071032524107 l29.754339599609377,-34.868366718292236 z" id="path27" inkscape:connector-curvature="0" style="fill:#0a92ef"/><linearGradient id="SVGID_2_" gradientUnits="userSpaceOnUse" x1="448.0180969238281" y1="188.68519592285156" x2="510.01190185546875" y2="246.9217987060547" gradientTransform="translate(0,-30)" transform="translate(21.052631378173828,20.394737243652344) translate(1.9736841917037964,27.63157844543457) translate(1.9736841917037964,31.578947067260742) translate(-0.6578947305679321,0) translate(-238.8000030517578,-112.69999694824219) translate(284.489501953125,306.5105285644531) scale(1.1622788906097412) translate(-284.489501953125,-306.5105285644531) "><stop offset="0" style="stop-color:#FFAA64" id="stop29"/><stop offset="1" style="stop-color:#FF3264" id="stop31"/></linearGradient><polygon class="st4" points="275.4390754699707,126.41215515136719 228.9479103088379,118.85734558105469 230.80755996704102,82.01310729980469 " id="polygon34" style="fill:url(#SVGID_2_)"/><polygon class="st5" points="275.4390754699707,126.41215515136719 228.9479103088379,118.85734558105469 230.80755996704102,82.01310729980469 " id="polygon36" style="fill:#ffaa64"/><path class="st6" d="m229.0641458893599,119.08980016708372 c5.114027118682862,5.6951665639877325 9.530686902999877,12.203928351402283 13.133751463890077,19.061373805999754 L283.34257008083483,197.8923089504242 L275.9039851809325,126.29592928886413 L228.83169011123798,118.85734438896179 z" id="path38" inkscape:connector-curvature="0" style="fill:#0e9f9d"/><polygon class="st7" points="275.4390754699707,126.41215515136719 228.9479103088379,118.85734558105469 230.80755996704102,82.01310729980469 " id="polygon40" style="fill:#2ec75b"/><polygon class="st8" points="259.283390045166,252.1707534790039 265.7921333312988,297.49962615966797 305.5421333312988,291.80443572998047 282.4127998352051,271.2321090698242 " id="polygon42" style="fill:#0abfff"/><path class="st9" d="m103.42179781444693,282.50621218681334 l12.552612018585206,-20.921020030975342 c-23.129349923133848,-14.296030354499818 -39.5174822807312,-38.93634283542633 -43.1205468416214,-67.76085932254792 l-10.344282126426696,33.93854360580444 z" id="path44" inkscape:connector-curvature="0" style="fill:#ff2b2a"/><path class="st10" d="m37.288128938752614,244.49969246387485 c9.06577534675598,18.94514591693878 21.967071032524107,35.44950616359711 37.89029183387756,48.46702973842621 l28.359604930877683,-10.576737904548645 l-40.912216949462895,-54.74333574771881 z" id="path46" inkscape:connector-curvature="0" style="fill:#e60000"/><path class="st11" d="M37.636812605935546,245.19705979824067 L63.20694819934985,228.11156010627747 L48.67846206672809,154.19062266349792 L29.84954403885029,138.26740186214445 c-4.300431895256042,13.714890909194947 -6.624989676475526,28.47583281993866 -6.624989676475526,43.70168628692627 c0,22.664438366889954 5.2302550077438354,44.166597843170166 14.41225824356079,63.22797164916992 z" id="path48" inkscape:connector-curvature="0" style="fill:#ff2c1d"/><path class="st12" d="m72.0402677679839,181.85286026000975 c0,-2.4407856702804565 0.11622788906097414,-4.881571340560913 0.3486836671829228,-7.32235701084137 l-23.71048936843872,-20.33988058567047 l14.296030354499818,74.15339322090149 l10.111826348304747,-32.42758104801178 c-0.6973673343658454,-4.53288767337799 -1.0460510015487672,-9.29823112487793 -1.0460510015487672,-14.063574576377869 z" id="path50" inkscape:connector-curvature="0" style="fill:#ff5429"/><path class="st13" d="m29.733316149789296,138.73231341838837 l18.94514591693878,15.458309245109561 l23.71048936843872,20.33988058567047 c1.3947346687316895,-18.247778582572938 7.9034964561462395,-35.10082249641418 18.13155069351196,-48.931941294670104 l-13.482435131072998,-37.54160816669464 l-25.91881926059723,8.019724345207214 c-9.29823112487793,12.785067796707153 -16.6205881357193,27.08109815120697 -21.385931587219236,42.65563528537751 z" id="path52" inkscape:connector-curvature="0" style="fill:#ff8f2b"/><path class="st14" d="m164.55766746051927,324.580708026886 v-48.00211818218231 l0.23245577812194826,-1.7434183359146118 c-0.8135952234268196,0 -1.5109625577926633,0 -2.3245577812194824,0 c-1.3947346687316895,0 -2.789469337463379,0 -4.184204006195069,-0.11622788906097414 l-54.85956363677979,7.787268567085266 l-28.359604930877683,10.576737904548645 c23.94294514656067,19.7587411403656 54.27842419147492,31.61398582458496 87.40337257385254,31.61398582458496 c0.6973673343658454,-0.11622788906097414 1.3947346687316895,-0.11622788906097414 2.0921020030975344,-0.11622788906097414 z" id="path54" inkscape:connector-curvature="0" style="fill:#b20070"/><path class="st15" d="m230.80756422527452,82.01310355663301 l-48.81571340560913,-18.247778582572938 l-16.504360246658326,25.337679815292358 c25.105224037170412,0.8135952234268196 47.65343451499939,12.203928351402283 63.57665531635285,29.986795377731323 v0 z" id="path56" inkscape:connector-curvature="0" style="fill:#b9e239"/><path class="st16" d="M250.45007747657917,71.32013776302337 C232.31852678306723,56.09428429603577 209.3054047489943,45.75000216960906 185.13000382431167,41.449570274353036 l-4.300431895256042,23.245577812194824 l50.32667596340179,17.78286702632904 z" id="path58" inkscape:connector-curvature="0" style="fill:#e4f445"/><path class="st17" d="m250.33384958751822,71.2039098739624 l-19.52628536224365,10.809193682670594 l45.212648844718935,45.096420955657955 l13.366207242012024,-3.95174822807312 C280.4368728543105,102.81789569854735 266.9544377232375,85.03502867221833 250.33384958751822,71.2039098739624 z" id="path60" inkscape:connector-curvature="0" style="fill:#7ced91"/><g id="g66"><path class="st18" d="m228.94791800029898,118.85734438896179 v0 c0,0.11622788906097414 0.11622788906097414,0.11622788906097414 0.11622788906097414,0.23245577812194826 z" id="path62" inkscape:connector-curvature="0" style="fill:#ffffff"/><path class="st19" d="m252.8908631468596,181.85286026000975 c0,19.17760169506073 -5.6951665639877325,37.076696610450746 -15.458309245109561,51.83763852119446 L283.45879796989584,196.84625794887543 L241.84921368606706,137.22135086059572 c6.973673343658447,13.24997935295105 11.041649460792542,28.47583281993866 11.041649460792542,44.631509399414064 z" id="path64" inkscape:connector-curvature="0" style="fill:#0f8791"/></g><path class="st20" d="m275.4390736246886,126.41215717792511 l7.438584899902344,70.89901232719421 l18.59646224975586,-6.857445454597475 c0.11622788906097414,-2.905697226524353 0.23245577812194826,-5.6951665639877325 0.23245577812194826,-8.600863790512085 c0,-21.037247920036318 -4.53288767337799,-41.02844483852386 -12.43638412952423,-59.04376764297485 z" id="path68" inkscape:connector-curvature="0" style="fill:#18d1c3"/><path class="st21" d="m282.9938864136519,197.31116950511932 l-23.71048936843872,54.85956363677979 l20.107424807548522,16.6205881357193 v0 l-3.8355203390121457,-3.3706087827682496 v0 c15.342081356048583,-21.73461525440216 24.87276825904846,-48.11834607124329 26.151275038719177,-76.71040678024292 z" id="path70" inkscape:connector-curvature="0" style="fill:#47d6e5"/><path class="st22" d="m265.79215883262776,297.499609875679 l-58.34640030860901,-34.98459460735321 c-0.23245577812194826,0.11622788906097414 -0.4649115562438965,0.3486836671829228 -0.6973673343658454,0.4649115562438965 l44.166597843170166,41.958267951011656 l24.87276825904846,21.967071032524107 l1.6271904468536378,-1.8596462249755863 z" id="path72" inkscape:connector-curvature="0" style="fill:#1b7eea"/><polygon class="st23" points="277.41496658325195,324.8131637573242 305.5421333312988,291.80443572998047 265.7921333312988,297.49962615966797 " id="polygon74" style="fill:#2ad3ff"/><linearGradient id="SVGID_3_" gradientUnits="userSpaceOnUse" x1="264.3546142578125" y1="397.6265869140625" x2="332.5067138671875" y2="57.54079818725586" gradientTransform="translate(0,-30)" transform="translate(21.052631378173828,20.394737243652344) translate(1.9736841917037964,27.63157844543457) translate(1.9736841917037964,31.578947067260742) translate(-0.6578947305679321,0) translate(-238.8000030517578,-112.69999694824219) translate(284.489501953125,306.5105285644531) scale(1.1622788906097412) translate(-284.489501953125,-306.5105285644531) "><stop offset="0" style="stop-color:#FF6D19" id="stop76"/><stop offset="1" style="stop-color:#FBF124" id="stop78"/></linearGradient><path class="st24" d="M24.038149585801584,166.27832312583925 L48.67846206672809,154.07439477443697 L77.03806699760575,87.94072589874268 L71.92403987892291,73.52846765518188 c-26.151275038719177,22.896894145011903 -43.934142065048206,55.673158860206605 -47.88589029312134,92.74985547065735 z" id="path81" inkscape:connector-curvature="0" style="fill:url(#SVGID_3_)"/><linearGradient id="SVGID_4_" gradientUnits="userSpaceOnUse" x1="306.10400390625" y1="206.22500610351562" x2="394.66790771484375" y2="184.46359252929688" gradientTransform="translate(0,-30)" transform="translate(21.052631378173828,20.394737243652344) translate(1.9736841917037964,27.63157844543457) translate(1.9736841917037964,31.578947067260742) translate(-0.6578947305679321,0) translate(-238.8000030517578,-112.69999694824219) translate(284.489501953125,306.5105285644531) scale(1.1622788906097412) translate(-284.489501953125,-306.5105285644531) "><stop offset="0" style="stop-color:#FFA724" id="stop83"/><stop offset="1" style="stop-color:#BDCE25" id="stop85"/></linearGradient><path class="st25" d="m181.75939504154346,64.46269230842589 l-104.72132804393767,23.478033590316773 l13.482435131072998,37.54160816669464 v0 c16.504360246658326,-22.315754699707032 42.53940739631653,-36.61178505420685 71.94506332874298,-36.61178505420685 c1.0460510015487672,0 2.0921020030975344,0 3.1381530046463015,0.11622788906097414 v0 l16.155676579475404,-24.524084591865538 z" id="path88" inkscape:connector-curvature="0" style="fill:url(#SVGID_4_)"/><path class="st26" d="m113.64985205181259,260.07422959804535 l-10.809193682670594,22.664438366889954 l61.83323698043824,40.09862172603607 v-46.258699846267696 l0.23245577812194826,-1.7434183359146118 c-0.8135952234268196,0 -1.5109625577926633,0 -2.3245577812194824,0 c-18.13155069351196,0 -34.868366718292236,-5.4627107858657835 -48.931941294670104,-14.760941910743712 z" id="path90" inkscape:connector-curvature="0" style="fill:#cd2b90"/><path class="st27" d="m259.2833970452132,252.17073314189912 l23.71048936843872,-54.85956363677979 l-45.56133251190186,36.495557165145875 c-6.624989676475526,9.995598459243775 -20.107424807548522,21.967071032524107 -29.986795377731323,28.592060708999636 z" id="path92" inkscape:connector-curvature="0" style="fill:#0e799a"/><path class="st28" d="m186.75719427116536,41.68202605247497 c-7.9034964561462395,-1.3947346687316895 -16.039448690414428,-2.2083298921585084 -24.29162881374359,-2.2083298921585084 c-15.109625577926636,0 -29.6381117105484,2.4407856702804565 -43.23677473068238,7.089901232719421 l62.29814853668213,18.36400647163391 z" id="path94" inkscape:connector-curvature="0" style="fill:#fafb3e"/></g></g></svg>