<svg xmlns="http://www.w3.org/2000/svg" xmlns:xlink="http://www.w3.org/1999/xlink" width="840" height="70" viewBox="0 0 840 70">
    <defs>
        <path id="a" d="M.999 0H839c-34.382 24.883-79.182 46.396-130 63H72C47.494 56.715 24.028 49.44.999 42V0z"/>
        <path id="c" d="M-.001 0H838c-34.382 24.883-79.182 46.396-130 63H71C46.494 56.715 23.028 49.44-.001 42V0z"/>
    </defs>
    <g fill="none" fill-rule="evenodd">
        <g transform="translate(-1)">
            <mask id="b" fill="#fff">
                <use xlink:href="#a"/>
            </mask>
            <path fill="#F38300" fill-rule="nonzero" d="M323.5 175c58.638 0 107.883-40.215 121.66-94.57A125.75 125.75 0 0 0 449 49.5C449-19.812 392.812-76 323.5-76S198-19.812 198 49.5 254.188 175 323.5 175z" mask="url(#b)"/>
            <path fill="#FFE600" fill-rule="nonzero" d="M75.5 179c101.623 0 186.969-69.695 210.845-163.895C290.69-2.042 293-20.002 293-38.5 293-158.622 195.622-256 75.5-256S-142-158.622-142-38.5-44.622 179 75.5 179z" mask="url(#b)"/>
            <path fill="#FF0" fill-rule="nonzero" d="M11 139c83.168 0 153.013-57.038 172.553-134.13C187.11-9.163 189-23.861 189-39c0-98.307-79.693-178-178-178s-178 79.693-178 178 79.693 178 178 178z" mask="url(#b)"/>
            <path fill="#F39B00" fill-rule="nonzero" d="M510.5 129c68.917 0 126.795-47.265 142.987-111.147A147.793 147.793 0 0 0 658-18.5C658-99.962 591.962-166 510.5-166S363-99.962 363-18.5 429.038 129 510.5 129z" mask="url(#b)"/>
            <path fill="#F3B100" fill-rule="nonzero" d="M839 0c-34.382 24.883-79.182 46.396-130 63l-40.008-.006L473.15 63c-13.94-17.88-23.085-39.212-25.507-63H839z" mask="url(#b)"/>
            <path fill="#F39B00" fill-rule="nonzero" d="M871.5 182c58.17 0 107.023-39.895 120.69-93.816A124.748 124.748 0 0 0 996 57.5C996-11.26 940.26-67 871.5-67 802.74-67 747-11.26 747 57.5c0 68.76 55.74 124.5 124.5 124.5z" mask="url(#b)"/>
        </g>
        <use fill="#161F3B" fill-rule="nonzero" opacity=".523" xlink:href="#c"/>
    </g>
</svg>
