<svg xmlns="http://www.w3.org/2000/svg" width="375" height="50" viewBox="0 0 375 50">
    <g fill="none" fill-rule="evenodd">
        <path fill="#82A2AA" d="M0 0v34.482c9.242 5.848 24.908 10.041 46.991 12.584C76 49 98 0 81.233 0H0z"/>
        <path fill="#708B93" d="M81.233 0c-2.58 19.665-15.608 36.69-34.242 47.066 13.817 1.59 30.159 2.532 49.004 2.829C135 49 143 0 128.44 0H81.233z"/>
        <path fill="#60787E" d="M161.75 0h-33.31c-2.649 20.205-14.749 37.965-32.445 49.895 4.318.068 8.755.105 13.338.105h86.546C208 50 181 0 161.75 0"/>
        <path fill="#50626A" d="M198.842 0H161.75c1.943 20.79 15.022 38.947 34.13 50h34.945C249 50 222 0 198.842 0"/>
        <path fill="#414E55" d="M308.89 0H198.842c3.474 19.825 15.225 37.368 31.984 50h43.833l.069-.041C304 49.959 325 0 308.89 0"/>
        <path fill="#414E55" d="M338.828 0H308.89c-2.04 20.765-15.092 38.902-34.163 49.959 25.194-.236 46.075-1.602 62.644-4.096C357.001 41 351.001 0 338.828 0"/>
        <path fill="#50626A" d="M338.828 0c-3.679 7.586-5.722 15.862-5.722 24.569 0 7.471 1.514 14.621 4.265 21.294 16.2-2.438 28.287-5.953 36.244-10.55.475-.273.941-.549 1.385-.831V0h-36.172z"/>
    </g>
</svg>
