<?xml version="1.0" encoding="iso-8859-1"?>
<!-- Generator: Adobe Illustrator 19.0.0, SVG Export Plug-In . SVG Version: 6.00 Build 0)  -->
<svg version="1.1" id="Layer_1" xmlns="http://www.w3.org/2000/svg" xmlns:xlink="http://www.w3.org/1999/xlink" x="0px" y="0px"
	 viewBox="0 0 512.003 512.003" style="enable-background:new 0 0 512.003 512.003;" xml:space="preserve">
<circle style="fill:#F7B239;" cx="256.002" cy="277.595" r="234.409"/>
<path style="fill:#E09B2D;" d="M132.845,400.749c-84.323-84.323-90.968-216.908-19.939-308.842
	c-7.868,6.078-15.44,12.723-22.655,19.94c-91.54,91.54-91.54,239.957,0,331.498s239.957,91.54,331.498,0
	c7.216-7.216,13.861-14.787,19.94-22.655C349.755,491.718,217.17,485.073,132.845,400.749z"/>
<g>
	<path style="fill:#4D4D4D;" d="M201.55,262.093c-2.957,0-5.841-1.511-7.467-4.233c-7.848-13.137-21.671-20.98-36.974-20.98
		s-29.125,7.844-36.974,20.98c-2.461,4.119-7.793,5.465-11.914,3.003c-4.119-2.462-5.463-7.795-3.003-11.914
		c11.016-18.438,30.413-29.444,51.891-29.444s40.875,11.007,51.891,29.444c2.462,4.119,1.117,9.454-3.003,11.914
		C204.602,261.695,203.066,262.093,201.55,262.093z"/>
	<path style="fill:#4D4D4D;" d="M399.331,262.093c-2.957,0-5.84-1.511-7.466-4.233c-7.848-13.137-21.671-20.98-36.975-20.98
		c-15.303,0-29.124,7.844-36.973,20.98c-2.459,4.119-7.795,5.465-11.914,3.003c-4.119-2.462-5.463-7.795-3.003-11.914
		c11.016-18.436,30.413-29.444,51.89-29.444c21.477,0,40.875,11.007,51.892,29.444c2.461,4.119,1.117,9.454-3.003,11.914
		C402.383,261.695,400.847,262.093,399.331,262.093z"/>
	<path style="fill:#4D4D4D;" d="M255.999,389.918c-49.157,0-95.373-19.143-130.131-53.903c-3.393-3.393-3.393-8.894,0-12.286
		c3.393-3.393,8.894-3.394,12.286,0c31.477,31.477,73.329,48.813,117.845,48.813s86.368-17.336,117.845-48.813
		c3.395-3.394,8.896-3.393,12.287,0c3.392,3.393,3.393,8.894,0,12.286C351.372,370.774,305.156,389.918,255.999,389.918z"/>
</g>
<path style="fill:#E09B2D;" d="M256.001,423.536c-14.01,0-28.02-1.909-41.64-5.727c-4.621-1.295-7.316-6.091-6.02-10.711
	c1.295-4.621,6.091-7.315,10.711-6.02c24.173,6.778,49.725,6.777,73.899,0c4.623-1.292,9.416,1.401,10.711,6.02
	c1.295,4.62-1.401,9.416-6.02,10.711C284.018,421.627,270.009,423.536,256.001,423.536z"/>
<path style="fill:#2197D8;" d="M261.218,110.051c-49.435,0-96.013-4.915-131.152-13.839c-39.807-10.11-59.989-23.967-59.989-41.187
	s20.183-31.077,59.989-41.187C165.205,4.915,211.782,0,261.218,0s96.013,4.915,131.152,13.839
	c39.806,10.11,59.989,23.967,59.989,41.187s-20.183,31.077-59.989,41.187C357.23,105.136,310.652,110.051,261.218,110.051z
	 M261.218,17.376c-48.034,0-93.093,4.725-126.875,13.305c-37.091,9.419-46.89,20.043-46.89,24.344s9.799,14.925,46.89,24.344
	c33.781,8.579,78.839,13.305,126.875,13.305c48.034,0,93.093-4.725,126.875-13.305c37.09-9.419,46.89-20.043,46.89-24.344
	s-9.8-14.925-46.89-24.344C354.311,22.102,309.251,17.376,261.218,17.376z"/>
<g>
</g>
<g>
</g>
<g>
</g>
<g>
</g>
<g>
</g>
<g>
</g>
<g>
</g>
<g>
</g>
<g>
</g>
<g>
</g>
<g>
</g>
<g>
</g>
<g>
</g>
<g>
</g>
<g>
</g>
</svg>
