<?xml version="1.0" encoding="iso-8859-1"?>
<!-- Generator: Adobe Illustrator 19.0.0, SVG Export Plug-In . SVG Version: 6.00 Build 0)  -->
<svg version="1.1" id="Layer_1" xmlns="http://www.w3.org/2000/svg" xmlns:xlink="http://www.w3.org/1999/xlink" x="0px" y="0px"
	 viewBox="0 0 512.009 512.009" style="enable-background:new 0 0 512.009 512.009;" xml:space="preserve">
<circle style="fill:#F7B239;" cx="252.458" cy="260.711" r="251.298"/>
<path style="fill:#E09B2D;" d="M120.428,392.735c-90.4-90.4-97.524-232.538-21.377-331.094c-8.435,6.516-16.551,13.64-24.288,21.377
	c-98.136,98.136-98.136,257.246,0,355.382s257.246,98.136,355.382,0c7.736-7.736,14.859-15.853,21.377-24.288
	C352.966,490.257,210.828,483.135,120.428,392.735z"/>
<path style="fill:#FFFFFF;" d="M125.782,283.44h253.347c0,14.22-2.347,27.893-6.669,40.66H132.451
	C128.129,311.333,125.782,297.66,125.782,283.44z"/>
<path style="fill:#A81004;" d="M132.451,324.1H372.46c-8.519,25.161-24.726,46.757-45.826,62.02
	c-8.867-14.94-25.161-24.95-43.802-24.95c-11.388,0-21.895,3.738-30.377,10.059c-8.482-6.321-19.001-10.059-30.389-10.059
	c-18.628,0-34.935,10.01-43.789,24.95C157.177,370.857,140.97,349.261,132.451,324.1z"/>
<path style="fill:#F95428;" d="M282.832,361.171c18.641,0,34.935,10.01,43.802,24.95c-20.851,15.101-46.484,23.993-74.178,23.993
	s-53.327-8.892-74.178-23.993c8.855-14.94,25.161-24.95,43.789-24.95c11.388,0,21.907,3.738,30.389,10.059
	C260.937,364.909,271.444,361.171,282.832,361.171z"/>
<path style="fill:#2BA5F7;" d="M409.645,125.762L409.645,125.762c-23.153-23.153-23.153-60.689,0-83.84L451.565,0l41.92,41.92
	c23.151,23.151,23.151,60.689,0,83.84l0,0C470.333,148.913,432.796,148.913,409.645,125.762z"/>
<path style="fill:#2197D8;" d="M439.448,125.762L439.448,125.762c-23.151-23.151-23.151-60.689,0-83.84l27.019-27.019L451.565,0
	l-41.92,41.92c-23.151,23.153-23.151,60.689,0,83.84l0,0c15.4,15.4,37.16,20.542,56.823,15.455
	C456.568,138.656,447.201,133.514,439.448,125.762z"/>
<g>
	<path style="fill:#4D4D4D;" d="M166.642,207.911c0,5.144,4.17,9.314,9.314,9.314c5.144,0,9.314-4.17,9.314-9.314
		c0-32.531-26.466-58.997-58.997-58.997c-32.53,0-58.996,26.466-58.996,58.997c0,5.144,4.17,9.314,9.314,9.314
		c5.144,0,9.314-4.17,9.314-9.314c0-22.26,18.109-40.369,40.368-40.369C148.532,167.543,166.642,185.652,166.642,207.911z"/>
	<path style="fill:#4D4D4D;" d="M378.637,148.914c-32.53,0-58.996,26.466-58.996,58.997c0,5.144,4.17,9.314,9.314,9.314
		c5.144,0,9.314-4.17,9.314-9.314c0-22.26,18.109-40.369,40.368-40.369c22.26,0,40.369,18.109,40.369,40.369
		c0,5.144,4.17,9.314,9.314,9.314c5.144,0,9.314-4.17,9.314-9.314C437.634,175.38,411.168,148.914,378.637,148.914z"/>
</g>
<g>
</g>
<g>
</g>
<g>
</g>
<g>
</g>
<g>
</g>
<g>
</g>
<g>
</g>
<g>
</g>
<g>
</g>
<g>
</g>
<g>
</g>
<g>
</g>
<g>
</g>
<g>
</g>
<g>
</g>
</svg>
