<?xml version="1.0" encoding="iso-8859-1"?>
<!-- Generator: Adobe Illustrator 19.0.0, SVG Export Plug-In . SVG Version: 6.00 Build 0)  -->
<svg version="1.1" id="Layer_1" xmlns="http://www.w3.org/2000/svg" xmlns:xlink="http://www.w3.org/1999/xlink" x="0px" y="0px"
	 viewBox="0 0 512.009 512.009" style="enable-background:new 0 0 512.009 512.009;" xml:space="preserve">
<circle style="fill:#F7B239;" cx="256.004" cy="256.004" r="256.004"/>
<g>
	<path style="fill:#E09B2D;" d="M121.499,390.501C29.407,298.407,22.15,153.608,99.723,53.204
		c-8.593,6.638-16.861,13.895-24.743,21.777c-99.974,99.974-99.974,262.065,0,362.038s262.065,99.974,362.038,0
		c7.881-7.881,15.138-16.15,21.777-24.743C358.392,489.85,213.593,482.593,121.499,390.501z"/>
	<path style="fill:#E09B2D;" d="M256.001,415.398c-10.877,0-21.753-2.219-32.329-6.66c-4.832-2.029-7.104-7.591-5.075-12.423
		c2.029-4.83,7.588-7.105,12.423-5.075c16.342,6.862,33.619,6.862,49.961,0c4.833-2.031,10.393,0.244,12.423,5.075
		c2.029,4.832-0.243,10.393-5.075,12.423C277.754,413.179,266.876,415.398,256.001,415.398z"/>
</g>
<path style="fill:#A81004;" d="M315.139,288.36c0,15.671-3.297,30.302-8.986,42.676c-10.443,22.726-28.997,37.831-50.145,37.831
	s-39.702-15.105-50.144-37.831c-5.705-12.375-9.002-27.005-9.002-42.676c0-44.455,26.484-80.508,59.146-80.508
	S315.139,243.904,315.139,288.36z"/>
<g>
	<path style="fill:#4D4D4D;" d="M402.37,153.329c-14.153,8.743-30.865,11.452-47.05,7.63c-16.19-3.823-29.921-13.723-38.666-27.875
		c-2.753-4.457-8.599-5.839-13.06-3.084c-4.457,2.754-5.839,8.602-3.084,13.06c11.408,18.464,29.324,31.38,50.447,36.369
		c6.252,1.476,12.563,2.206,18.831,2.206c14.905,0,29.56-4.129,42.559-12.161c4.457-2.754,5.839-8.602,3.084-13.06
		C412.676,151.957,406.831,150.576,402.37,153.329z"/>
	<path style="fill:#4D4D4D;" d="M211.49,143.059c2.754-4.458,1.373-10.306-3.084-13.06c-4.458-2.756-10.306-1.373-13.06,3.084
		c-8.743,14.152-22.476,24.052-38.666,27.875c-16.188,3.822-32.898,1.115-47.05-7.63c-4.457-2.753-10.305-1.371-13.06,3.084
		c-2.754,4.458-1.373,10.306,3.084,13.06c12.999,8.032,27.651,12.161,42.559,12.161c6.266,0,12.578-0.73,18.831-2.206
		C182.165,174.44,200.082,161.524,211.49,143.059z"/>
</g>
<g>
</g>
<g>
</g>
<g>
</g>
<g>
</g>
<g>
</g>
<g>
</g>
<g>
</g>
<g>
</g>
<g>
</g>
<g>
</g>
<g>
</g>
<g>
</g>
<g>
</g>
<g>
</g>
<g>
</g>
</svg>
