<?xml version="1.0" encoding="iso-8859-1"?>
<!-- Generator: Adobe Illustrator 19.0.0, SVG Export Plug-In . SVG Version: 6.00 Build 0)  -->
<svg version="1.1" id="Layer_1" xmlns="http://www.w3.org/2000/svg" xmlns:xlink="http://www.w3.org/1999/xlink" x="0px" y="0px"
	 viewBox="0 0 512.009 512.009" style="enable-background:new 0 0 512.009 512.009;" xml:space="preserve">
<circle style="fill:#F7B239;" cx="256.004" cy="256.004" r="256.004"/>
<path style="fill:#E09B2D;" d="M121.499,390.501C29.407,298.407,22.15,153.608,99.723,53.204
	c-8.593,6.638-16.861,13.895-24.743,21.777c-99.974,99.974-99.974,262.065,0,362.038s262.065,99.974,362.038,0
	c7.881-7.881,15.138-16.15,21.777-24.743C358.392,489.85,213.593,482.593,121.499,390.501z"/>
<path style="fill:#333333;" d="M256.001,182.226L256.001,182.226c15.091,0,30.096-2.051,44.698-5.859
	c55.461-14.463,116.542-5.486,154.612,3.301c20.299,4.686,32.012,25.969,25.059,45.608l-21.436,60.535
	c-4.927,13.912-18.308,23.021-33.057,22.502l-97.657-3.439c-16.458-0.579-30.369-12.376-33.628-28.519l-4.934-24.431
	c-3.235-16.018-17.314-27.535-33.654-27.532l0,0l0,0c-16.343,0-30.421,11.519-33.656,27.539l-4.933,24.425
	c-3.26,16.142-17.171,27.938-33.628,28.519l-97.657,3.439c-14.749,0.52-28.132-8.589-33.057-22.502l-21.436-60.535
	c-6.955-19.639,4.76-40.921,25.059-45.608c38.07-8.787,99.15-17.764,154.612-3.301C225.905,180.175,240.91,182.226,256.001,182.226
	L256.001,182.226z"/>
<path style="fill:#4D4D4D;" d="M256.279,396.633c-2.816,0-5.645-0.053-8.489-0.161c-44.544-1.684-83.5-16.515-106.882-40.691
	c-3.644-3.768-3.542-9.775,0.224-13.417c3.768-3.645,9.775-3.542,13.417,0.224c41.719,43.137,143.226,47.322,193.95,7.993
	c2.599-2.014,7.528-6.636,9.208-8.246c3.782-3.626,9.787-3.501,13.416,0.282c3.627,3.783,3.501,9.789-0.282,13.416
	c-0.691,0.662-6.861,6.559-10.713,9.546C334.44,385.493,296.96,396.633,256.279,396.633z"/>
<g>
</g>
<g>
</g>
<g>
</g>
<g>
</g>
<g>
</g>
<g>
</g>
<g>
</g>
<g>
</g>
<g>
</g>
<g>
</g>
<g>
</g>
<g>
</g>
<g>
</g>
<g>
</g>
<g>
</g>
</svg>
