<?xml version="1.0" encoding="iso-8859-1"?>
<!-- Generator: Adobe Illustrator 19.0.0, SVG Export Plug-In . SVG Version: 6.00 Build 0)  -->
<svg version="1.1" id="Layer_1" xmlns="http://www.w3.org/2000/svg" xmlns:xlink="http://www.w3.org/1999/xlink" x="0px" y="0px"
	 viewBox="0 0 512.009 512.009" style="enable-background:new 0 0 512.009 512.009;" xml:space="preserve">
<circle style="fill:#F7B239;" cx="256.004" cy="256.004" r="256.004"/>
<path style="fill:#E09B2D;" d="M121.499,390.501C29.407,298.407,22.15,153.608,99.723,53.204
	c-8.593,6.638-16.861,13.895-24.743,21.777c-99.974,99.974-99.974,262.065,0,362.038s262.065,99.974,362.038,0
	c7.881-7.881,15.138-16.15,21.777-24.743C358.392,489.85,213.593,482.593,121.499,390.501z"/>
<g>
	<path style="fill:#4D4D4D;" d="M196.533,242.016c-3.23,0-6.379-1.65-8.155-4.623c-8.571-14.347-23.667-22.913-40.38-22.913
		s-31.809,8.566-40.38,22.913c-2.687,4.499-8.511,5.968-13.012,3.279c-4.499-2.688-5.966-8.513-3.279-13.012
		c12.03-20.136,33.215-32.156,56.671-32.156s44.641,12.022,56.671,32.156c2.688,4.499,1.22,10.325-3.279,13.012
		C199.867,241.582,198.189,242.016,196.533,242.016z"/>
	<path style="fill:#4D4D4D;" d="M412.536,242.016c-3.23,0-6.379-1.65-8.155-4.623c-8.571-14.347-23.667-22.913-40.38-22.913
		s-31.809,8.566-40.38,22.913c-2.687,4.499-8.512,5.968-13.012,3.279c-4.499-2.688-5.966-8.513-3.279-13.012
		c12.03-20.136,33.215-32.156,56.671-32.156c23.456,0,44.641,12.022,56.671,32.156c2.688,4.499,1.22,10.325-3.279,13.012
		C415.87,241.582,414.192,242.016,412.536,242.016z"/>
	<path style="fill:#4D4D4D;" d="M273.729,402.311c-5.24,0-9.489-4.248-9.489-9.489c0-5.24,4.248-9.489,9.489-9.489
		c11.041,0,20.022-8.981,20.022-20.021s-8.981-20.022-20.022-20.022c-5.24,0-9.489-4.248-9.489-9.489
		c0-5.24,4.248-9.489,9.489-9.489c11.041,0,20.022-8.983,20.022-20.022c0-11.04-8.981-20.021-20.022-20.021
		c-5.24,0-9.489-4.248-9.489-9.489c0-5.24,4.248-9.489,9.489-9.489c21.505,0,39,17.495,39,38.998
		c0,11.779-5.248,22.354-13.53,29.511c8.282,7.157,13.53,17.732,13.53,29.511C312.729,384.816,295.234,402.311,273.729,402.311z"/>
</g>
<path style="fill:#F95428;" d="M409.54,288.494L409.54,288.494c-10.123-19.386-34.043-26.896-53.429-16.773l0,0
	c-19.386,10.123-26.896,34.043-16.773,53.429l0,0l36.655,70.202l70.202-36.655l0,0c19.386-10.123,26.896-34.043,16.773-53.429l0,0
	C452.846,285.881,428.925,278.371,409.54,288.494L409.54,288.494z"/>
<g>
</g>
<g>
</g>
<g>
</g>
<g>
</g>
<g>
</g>
<g>
</g>
<g>
</g>
<g>
</g>
<g>
</g>
<g>
</g>
<g>
</g>
<g>
</g>
<g>
</g>
<g>
</g>
<g>
</g>
</svg>
