<?xml version="1.0" encoding="iso-8859-1"?>
<!-- Generator: Adobe Illustrator 19.0.0, SVG Export Plug-In . SVG Version: 6.00 Build 0)  -->
<svg version="1.1" id="Layer_1" xmlns="http://www.w3.org/2000/svg" xmlns:xlink="http://www.w3.org/1999/xlink" x="0px" y="0px"
	 viewBox="0 0 512 512" style="enable-background:new 0 0 512 512;" xml:space="preserve">
<circle style="fill:#F7B239;" cx="272.973" cy="238.509" r="238.509"/>
<path style="fill:#E09B2D;" d="M147.67,363.813C61.871,278.014,55.11,143.11,127.381,49.568
	c-8.006,6.185-15.708,12.946-23.052,20.289c-93.142,93.142-93.142,244.155,0,337.296s244.155,93.142,337.296,0
	c7.342-7.342,14.103-15.046,20.289-23.052C368.373,456.373,233.47,449.612,147.67,363.813z"/>
<rect x="95.402" y="296.748" transform="matrix(-0.8854 -0.4649 0.4649 -0.8854 37.8162 692.157)" style="fill:#4D4D4D;" width="17.681" height="89.336"/>
<path style="fill:#F95428;" d="M97.762,364.493l-8.864-4.655c-11.238-5.902-25.132-1.576-31.034,9.662L3.157,473.671
	c-5.902,11.238-1.576,25.132,9.662,31.034l8.864,4.655c11.238,5.902,25.132,1.576,31.034-9.662l54.707-104.171
	C113.326,384.29,109.001,370.395,97.762,364.493z"/>
<g>
	<path style="fill:#4D4D4D;" d="M425.034,184.845h-92.949c-4.883,0-8.84,3.958-8.84,8.84c0,4.882,3.957,8.84,8.84,8.84h31.545
		c-5.446,4.374-8.939,11.079-8.939,18.607c0,5.698,2.003,10.924,5.335,15.027h-12.587c-4.883,0-8.84,3.958-8.84,8.84
		c0,4.882,3.957,8.84,8.84,8.84h62.24c4.883,0,8.84-3.958,8.84-8.84c0-4.882-3.957-8.84-8.84-8.84h-12.586
		c3.331-4.103,5.335-9.329,5.335-15.027c0-7.528-3.494-14.233-8.939-18.607h31.547c4.883,0,8.84-3.958,8.84-8.84
		C433.875,188.803,429.917,184.845,425.034,184.845z"/>
	<path style="fill:#4D4D4D;" d="M341.928,352.8h-137.9c-4.882,0-8.84,3.958-8.84,8.84s3.958,8.84,8.84,8.84h137.9
		c4.883,0,8.84-3.958,8.84-8.84S346.81,352.8,341.928,352.8z"/>
</g>
<path style="fill:#E09B2D;" d="M306.681,398.768h-67.404c-4.882,0-8.84-3.958-8.84-8.84c0-4.882,3.958-8.84,8.84-8.84h67.404
	c4.883,0,8.84,3.958,8.84,8.84C315.521,394.809,311.563,398.768,306.681,398.768z"/>
<circle style="fill:#A6DAF7;" cx="167.398" cy="221.135" r="91.184"/>
<path style="fill:#B27214;" d="M219.658,121.625c54.868,28.807,76.073,96.9,47.254,151.769
	c-19.484,37.105-57.65,60.161-99.588,60.161c-18.069,0-36.115-4.467-52.193-12.907c-26.58-13.956-46.134-37.435-55.057-66.101
	c-8.923-28.666-6.153-59.1,7.815-85.679c19.484-37.105,57.638-60.149,99.588-60.149C185.534,108.718,203.58,113.173,219.658,121.625
	z M238.14,258.306c20.521-39.097,5.481-87.424-33.605-107.945c-39.097-20.533-87.424-5.493-107.945,33.605
	c-20.533,39.085-5.493,87.412,33.605,107.945C169.28,312.432,217.607,297.392,238.14,258.306z"/>
<circle style="fill:#666666;" cx="167.398" cy="221.135" r="32.386"/>
<g>
</g>
<g>
</g>
<g>
</g>
<g>
</g>
<g>
</g>
<g>
</g>
<g>
</g>
<g>
</g>
<g>
</g>
<g>
</g>
<g>
</g>
<g>
</g>
<g>
</g>
<g>
</g>
<g>
</g>
</svg>
