<?xml version="1.0" encoding="iso-8859-1"?>
<!-- Generator: Adobe Illustrator 19.0.0, SVG Export Plug-In . SVG Version: 6.00 Build 0)  -->
<svg version="1.1" id="Layer_1" xmlns="http://www.w3.org/2000/svg" xmlns:xlink="http://www.w3.org/1999/xlink" x="0px" y="0px"
	 viewBox="0 0 512.009 512.009" style="enable-background:new 0 0 512.009 512.009;" xml:space="preserve">
<circle style="fill:#F7B239;" cx="256.004" cy="256.004" r="256.004"/>
<g>
	<path style="fill:#4D4D4D;" d="M183.912,250.105c-5.242,0-9.489-4.248-9.489-9.489c0-20.584-16.746-37.33-37.33-37.33
		s-37.33,16.746-37.33,37.33c0,5.24-4.247,9.489-9.489,9.489c-5.242,0-9.489-4.248-9.489-9.489
		c0-31.048,25.259-56.307,56.307-56.307s56.307,25.259,56.307,56.307C193.401,245.857,189.154,250.105,183.912,250.105z"/>
	<path style="fill:#4D4D4D;" d="M421.725,250.105c-5.242,0-9.489-4.248-9.489-9.489c0-20.584-16.746-37.33-37.33-37.33
		c-20.584,0-37.33,16.746-37.33,37.33c0,5.24-4.247,9.489-9.489,9.489s-9.489-4.248-9.489-9.489
		c0-31.048,25.259-56.307,56.307-56.307s56.307,25.259,56.307,56.307C431.213,245.857,426.966,250.105,421.725,250.105z"/>
</g>
<path style="fill:#F95428;" d="M423.586,407.067c-17.459,15.865-44.458,14.562-60.323-2.885l-12.601-13.866l-20.015-22.039
	c25.354-11.602,48.418-29.453,66.724-53.541l19.281,21.217l9.818,10.804C442.323,364.216,441.032,391.214,423.586,407.067z"/>
<path style="fill:#E54728;" d="M416.653,335.952c-13.6,14.309-40.662,40.903-65.991,54.364l-20.015-22.039
	c25.354-11.602,48.418-29.453,66.724-53.541L416.653,335.952z"/>
<path style="fill:#A81004;" d="M397.11,384.032c-2.52,0-5.034-0.998-6.901-2.976l-28.362-30.046
	c-3.597-3.811,10.202-16.839,13.8-13.027l28.362,30.046c3.597,3.811,3.423,9.816-0.387,13.414
	C401.788,383.174,399.448,384.032,397.11,384.032z"/>
<path style="fill:#4D4D4D;" d="M255.94,394.018c-17.645,0-35.347-2.456-52.587-7.406c-45.494-13.067-84.095-42.934-108.692-84.101
	c-2.687-4.499-1.22-10.324,3.279-13.012c4.499-2.686,10.325-1.22,13.012,3.279c22.116,37.016,56.793,63.863,97.64,75.593
	c39.264,11.279,81.209,8.179,118.106-8.721c25.053-11.465,46.288-28.507,63.121-50.657c3.923-5.172,7.609-10.631,10.949-16.219
	c1.713-2.866,4.806-4.619,8.145-4.619c5.242,0,9.495,4.248,9.495,9.489c0,1.923-0.572,3.713-1.555,5.209
	c-3.642,6.064-7.652,11.99-11.919,17.617c-18.75,24.673-42.413,43.659-70.336,56.436
	C309.793,388.266,282.937,394.017,255.94,394.018z"/>
<path style="fill:#E09B2D;" d="M121.499,390.501C29.407,298.407,22.15,153.608,99.723,53.204
	c-8.593,6.638-16.861,13.895-24.743,21.777c-99.974,99.974-99.974,262.065,0,362.038s262.065,99.974,362.038,0
	c7.881-7.881,15.138-16.15,21.777-24.743C358.392,489.85,213.593,482.593,121.499,390.501z"/>
<g>
</g>
<g>
</g>
<g>
</g>
<g>
</g>
<g>
</g>
<g>
</g>
<g>
</g>
<g>
</g>
<g>
</g>
<g>
</g>
<g>
</g>
<g>
</g>
<g>
</g>
<g>
</g>
<g>
</g>
</svg>
