<?xml version="1.0" encoding="utf-8"?>
<!-- Generator: Adobe Illustrator 19.2.1, SVG Export Plug-In . SVG Version: 6.00 Build 0)  -->
<svg version="1.1" xmlns="http://www.w3.org/2000/svg" xmlns:xlink="http://www.w3.org/1999/xlink" x="0px" y="0px"
	 viewBox="0 0 202 202" style="enable-background:new 0 0 202 202;" xml:space="preserve">
<style type="text/css">
	.st0{filter:url(#Adobe_OpacityMaskFilter);}
	.st1{opacity:0;mask:url(#SVGID_1_);}
	.st2{display:none;fill:#E9EBED;}
	.st3{display:none;}
	.st4{display:inline;}
	.st5{opacity:0.5;fill:#4D4D4F;}
	.st6{fill:#6D737A;}
</style>
<g id="Calque_1">
	<defs>
		<filter id="Adobe_OpacityMaskFilter" filterUnits="userSpaceOnUse" x="0" y="0" width="202" height="202">
			<feColorMatrix  type="matrix" values="1 0 0 0 0  0 1 0 0 0  0 0 1 0 0  0 0 0 1 0"/>
		</filter>
	</defs>
	<mask maskUnits="userSpaceOnUse" x="0" y="0" width="202" height="202" id="SVGID_1_">
		<g class="st0">
			<rect width="202" height="202"/>
		</g>
	</mask>
	<rect class="st1" width="202" height="202"/>
	<circle class="st2" cx="101" cy="101" r="101"/>
</g>
<g id="Calque_2" class="st3">
	<g class="st4">
		<path class="st5" d="M53.9,69.8c-6.4,13.5-7.1,28.6-2.1,42.6c5,14,15.2,25.3,28.7,31.7c7.5,3.6,15.6,5.4,23.9,5.4
			c21.5,0,41.3-12.5,50.5-32c13.2-27.8,1.3-61.1-26.6-74.3c-7.5-3.6-15.6-5.3-23.9-5.3h0C82.9,38,63.1,50.4,53.9,69.8z M89.9,143.4
			c3.9-6.3,10.7-8.1,10.8-8.1l30.2-9.3l3.5,9.9c-8.8,6.2-19.3,9.6-30.1,9.6C99.5,145.5,94.7,144.8,89.9,143.4z M104.4,41.8
			c7.4,0,15,1.6,22.2,5c25.9,12.3,36.9,43.2,24.7,69c-3.3,7-7.9,12.8-13.5,17.5l-4.4-12.2l-33.7,10.4c-0.9,0.2-9.1,2.6-13.6,10.6
			c-1.3-0.5-2.6-1-3.9-1.6c-12.8-6-21.9-16.6-26.4-28.9c1.2-0.7,3.2-1.5,5.6-0.9c3.5,0.9,4.9,3.9,5.1,4.3l0.7,1.7l42.3-14.7l4.5-9.6
			l-25.3-12l3.5-7.3l10.2-3.6l3.4-7.3l-0.2-0.7L99.3,42C101,41.9,102.7,41.8,104.4,41.8z M95.3,42.6c0.9,2.7,4.2,12.3,6.3,19.3
			l-2.1,4.4l-10.2,3.6l-5.9,12.5l25.3,12l-2.1,4.5l-37.4,13c-1.1-1.7-3.3-4-6.9-4.9c-3.2-0.8-5.9,0-7.8,0.9
			c-3.3-11.6-2.6-24.5,3-36.3C65,55.7,79.3,45.4,95.3,42.6z"/>
		<path class="st5" d="M146.9,80.5l-22.3-10.6l-4.1,8.6l13.9,28.3L146.9,80.5z M125,78.5l1.6-3.3l15,7.1l-7.2,15.3L125,78.5z"/>
		<path class="st5" d="M142.1,137.8l4.7,5.7c-11.9,9.8-26.8,15.2-42.2,15.2c-36.5,0-66.3-29.7-66.3-66.3c0-20.1,8.9-38.7,24.4-51.3
			l4.6,5.6l3.1-2.5L58,29l-3.1,2.5l5.3,6.5c-16.5,13.4-26,33.1-26,54.4c0,37.3,29.7,67.8,65.7,70.1V175H72v4h60v-4h-28v-12.3
			c0,0,0.4,0,0.5,0c16.3,0,32.2-5.7,44.8-16.1l5,6.1l3.1-2.5l-12.2-14.9L142.1,137.8z"/>
	</g>
</g>
<g id="Calque_4">
	<g>
		<path class="st6" d="M99.3,50.3c0.8,0,1.5,0,2.3,0c0.7,0,1.5,0,2.2,0c8,0,17,1.1,21.3,2.2c4.6,1.1,13.1,3,20.2,9.3
			c6.4,5.7,8.9,12.2,9.8,14.6c1.6,4.3,1.9,8.6,2.3,13.1c0.2,3.2,0.4,8.5-0.3,15.6c-0.6,5.9-2.4,12.2-5.2,16.9
			c-3.9,6.5-10.7,11.9-11.9,12.7c-5.7,3.9-10.1,5-15,6.2c-2.5,0.6-13,2-23.4,2c0,0-0.1,0-0.1,0c-3.1,0-6.1-0.3-9-0.5L73,159.7v-20.2
			c-3-0.9-6.2-2.2-9.8-4.7c-1.2-0.9-7.9-6.3-11.8-12.7c-2.8-4.7-4.6-11-5.2-16.9c-0.7-7.1-0.6-12.5-0.3-15.6
			c0.4-4.5,0.7-8.8,2.3-13.1c0.9-2.4,3.3-8.9,9.8-14.6c7.1-6.3,15.6-8.2,20.2-9.3C82.4,51.4,91.3,50.3,99.3,50.3 M99.3,46.3
			L99.3,46.3c-8.3,0-17.4,1.2-22.2,2.3l-0.3,0.1c-4.9,1.2-13.9,3.3-21.6,10.1c-7.3,6.5-10,13.8-10.9,16.2c-1.8,4.9-2.2,9.8-2.5,14.2
			c-0.3,3.4-0.4,9,0.3,16.4c0.7,6.9,2.8,13.6,5.8,18.5c4.3,7.2,11.5,12.9,13,14c3,2,5.1,3.3,8.1,4.2v17.4v8.9l6.5-5.9l18.2-16.1
			c2.7,0.1,5.2,0.4,7.6,0.4h0.1c10.8,0,21.6-1.5,24.4-2.1l1.1-0.4c4.6-1.1,9.4-2.3,15.2-6.4c1.7-1.2,8.9-7,13.1-14
			c3-4.9,5.1-11.7,5.8-18.6c0.8-7.4,0.6-13,0.4-16.4c-0.3-4.3-0.7-9.3-2.5-14.2c-0.9-2.4-3.5-9.7-10.9-16.2
			c-7.6-6.8-16.7-9-21.6-10.1l-0.3-0.1c-4.8-1.1-13.9-2.3-22.2-2.3c-0.7,0-1.5,0-2.2,0C100.8,46.3,100.1,46.3,99.3,46.3L99.3,46.3z"
			/>
	</g>
	<rect x="77.1" y="83.4" class="st6" width="52.7" height="4.4"/>
	<rect x="77.1" y="95.9" class="st6" width="47.5" height="4.4"/>
	<rect x="77.1" y="108.3" class="st6" width="39.9" height="4.4"/>
</g>
<g id="Calque_3" class="st3">
</g>
</svg>
