<?xml version="1.0" encoding="utf-8"?>
<!-- Generator: Adobe Illustrator 19.2.0, SVG Export Plug-In . SVG Version: 6.00 Build 0)  -->
<svg version="1.1" xmlns="http://www.w3.org/2000/svg" xmlns:xlink="http://www.w3.org/1999/xlink" x="0px" y="0px" width="202px"
	 height="202px" viewBox="0 0 202 202" style="enable-background:new 0 0 202 202;" xml:space="preserve">
<style type="text/css">
	.st0{filter:url(#Adobe_OpacityMaskFilter);}
	.st1{opacity:0;mask:url(#SVGID_1_);}
	.st2{display:none;fill:#E9EBED;}
	.st3{fill:#6D737A;}
</style>
<g id="Calque_1">
	<defs>
		<filter id="Adobe_OpacityMaskFilter" filterUnits="userSpaceOnUse" x="0" y="0" width="202" height="202">
			<feColorMatrix  type="matrix" values="1 0 0 0 0  0 1 0 0 0  0 0 1 0 0  0 0 0 1 0"/>
		</filter>
	</defs>
	<mask maskUnits="userSpaceOnUse" x="0" y="0" width="202" height="202" id="SVGID_1_">
		<g class="st0">
			<rect width="202" height="202"/>
		</g>
	</mask>
	<rect class="st1" width="202" height="202"/>
	<circle class="st2" cx="101" cy="101" r="101"/>
</g>
<g id="Calque_4">
	<path class="st3" d="M141.53957,56.87482c2.09149,0,3.78697,1.69411,3.78697,3.78389v19.95564
		c0,2.08981-1.69548,3.78389-3.78697,3.78389H59.70683c-2.09147,0-3.78695-1.69408-3.78695-3.78389V60.65872
		c0-2.08978,1.69548-3.78389,3.78695-3.78389H141.53957 M141.53957,53.05011H59.70683c-4.19879,0-7.61475,3.4132-7.61475,7.6086
		v19.95564c0,4.1954,3.41596,7.6086,7.61475,7.6086h81.83273c4.19881,0,7.61478-3.4132,7.61478-7.6086V60.65872
		C149.15434,56.46331,145.73837,53.05011,141.53957,53.05011L141.53957,53.05011z"/>
	<path class="st3" d="M141.53957,88.60841c2.09149,0,3.78697,1.69411,3.78697,3.78389v19.95564
		c0,2.0898-1.69548,3.78389-3.78697,3.78389H59.70683c-2.09147,0-3.78695-1.69409-3.78695-3.78389V92.3923
		c0-2.08978,1.69548-3.78389,3.78695-3.78389H141.53957 M141.53957,84.78369H59.70683c-4.19879,0-7.61475,3.4132-7.61475,7.6086
		v19.95564c0,4.1954,3.41596,7.6086,7.61475,7.6086h81.83273c4.19881,0,7.61478-3.4132,7.61478-7.6086V92.3923
		C149.15434,88.19689,145.73837,84.78369,141.53957,84.78369L141.53957,84.78369z"/>
	<path class="st3" d="M141.53957,120.34199c2.09149,0,3.78697,1.69409,3.78697,3.78389v19.95564
		c0,2.0898-1.69548,3.78389-3.78697,3.78389H59.70683c-2.09147,0-3.78695-1.69409-3.78695-3.78389v-19.95564
		c0-2.0898,1.69548-3.78389,3.78695-3.78389H141.53957 M141.53957,116.51728H59.70683c-4.19879,0-7.61475,3.41319-7.61475,7.6086
		v19.95564c0,4.1954,3.41596,7.60861,7.61475,7.60861h81.83273c4.19881,0,7.61478-3.41321,7.61478-7.60861v-19.95564
		C149.15434,119.93047,145.73837,116.51728,141.53957,116.51728L141.53957,116.51728z"/>
	<rect x="66.35866" y="68.57836" class="st3" width="8.93892" height="3.50558"/>
	<rect x="66.35866" y="100.45196" class="st3" width="8.93892" height="3.50558"/>
	<rect x="66.35866" y="132.32555" class="st3" width="8.93892" height="3.50558"/>
</g>
</svg>
