<?xml version="1.0" encoding="utf-8"?>
<!-- Generator: Adobe Illustrator 19.2.1, SVG Export Plug-In . SVG Version: 6.00 Build 0)  -->
<svg version="1.1" xmlns="http://www.w3.org/2000/svg" xmlns:xlink="http://www.w3.org/1999/xlink" x="0px" y="0px"
	 viewBox="0 0 202 202" style="enable-background:new 0 0 202 202;" xml:space="preserve">
<style type="text/css">
	.st0{filter:url(#Adobe_OpacityMaskFilter);}
	.st1{opacity:0;mask:url(#SVGID_1_);}
	.st2{display:none;fill:#E9EBED;}
	.st3{fill:none;stroke:#6D737A;stroke-width:3.308;stroke-miterlimit:10;}
	.st4{fill:none;stroke:#6D737A;stroke-width:4.0714;stroke-linejoin:round;stroke-miterlimit:10;}
	.st5{fill:#6D737A;}
</style>
<g id="Calque_1">
	<defs>
		<filter id="Adobe_OpacityMaskFilter" filterUnits="userSpaceOnUse" x="0" y="0" width="202" height="202">
			<feColorMatrix  type="matrix" values="1 0 0 0 0  0 1 0 0 0  0 0 1 0 0  0 0 0 1 0"/>
		</filter>
	</defs>
	<mask maskUnits="userSpaceOnUse" x="0" y="0" width="202" height="202" id="SVGID_1_">
		<g class="st0">
			<rect width="202" height="202"/>
		</g>
	</mask>
	<rect class="st1" width="202" height="202"/>
	<circle class="st2" cx="101" cy="101" r="101"/>
</g>
<g id="Calque_4">
	<path class="st3" d="M59.2,115.6c0,17.1,6.7,25.6,24.1,25.6c4.9,0,9.9,0,18.1,0s13.2,0,18.1,0c17.4,0,22.8-8.8,22.8-25.8
		c0-4.3,0-8,0-14.7c0-6.7,0-10.5,0-14.7c0-17.1-5.4-24.1-22.8-24.1c-4.9,0-9.9,0-18.1,0s-13.2,0-18.1,0c-17.4,0-24.1,7.7-24.1,24.8"
		/>
	<line class="st4" x1="54.2" y1="85.7" x2="63.3" y2="85.7"/>
	<line class="st4" x1="54.2" y1="116.2" x2="63.3" y2="116.2"/>
	<g>
		<path class="st5" d="M116.9,100.6v-0.1c0-1.6,1-2.7,2-3.6c1.5-1.1,2-3.1,1-4.7l-1.4-2.4l-0.6-0.9l-0.2-0.4
			c-0.9-1.6-2.9-2.2-4.6-1.4c-1.3,0.6-2.9,1.1-4.5,0.6l0,0c-1.1-1.1-1.6-2.4-1.8-3.6c-0.3-1.7-1.8-3-3.5-3h-2.6H98
			c-1.7,0-3.2,1.2-3.5,3c-0.2,1.2-0.7,2.5-1.8,3.6l0,0c-1.6,0.5-3.2,0.1-4.5-0.5c-1.6-0.8-3.6-0.1-4.5,1.5l-0.2,0.4l-0.5,0.9
			l-1.6,2.5c-1,1.5-0.5,3.5,0.9,4.6c1.1,0.8,2,2,2,3.5v0.1c0,1.6-0.9,2.7-2,3.6c-1.5,1.1-1.9,3.1-0.9,4.7l0.3,0.5l0.5,0.8
			c0,0.1,0.1,0.1,0.1,0.2l1.6,2.8c0.8,1.4,2.6,2.1,4.2,1.6c1.3-0.4,2.9-0.7,4.6-0.2l0,0c1.2,1.2,1.7,2.9,1.9,4.3
			c0.2,1.8,1.7,3.2,3.6,3.2h0.6h1h0.9h0.9h1h0.6c1.8,0,3.4-1.4,3.6-3.2c0.2-1.5,0.6-3.2,1.9-4.3l0,0c1.6-0.5,3.2-0.2,4.5,0.2
			c1.6,0.5,3.4-0.1,4.3-1.6l1.6-2.8l0.5-0.8c0-0.1,0.1-0.1,0.1-0.2l0.3-0.4c1-1.6,0.6-3.6-0.9-4.7
			C117.9,103.3,116.9,102.1,116.9,100.6z M100.7,107.9c-4.1,0-7.4-3.3-7.4-7.4c0-4.1,3.3-7.4,7.4-7.4s7.4,3.3,7.4,7.4
			C108,104.6,104.7,107.9,100.7,107.9z"/>
	</g>
	<path class="st3" d="M123.4,45.5c-6.2,0-11.6,0-22,0s-15.8,0-22,0c-26.5,0-36,11.2-36,33.8c0,5.8,0,12.4,0,22.2s0,16.4,0,22.2
		c0,22.7,9.6,35.8,36,35.8c6.2,0,11.6,0,22,0s15.8,0,22,0c26.5,0,34.1-13.1,34.1-35.8c0-5.8,0-12.4,0-22.2s0-16.4,0-22.2
		C157.5,56.7,149.9,45.5,123.4,45.5z"/>
</g>
</svg>
