<?xml version="1.0" encoding="utf-8"?>
<!-- Generator: Adobe Illustrator 19.2.1, SVG Export Plug-In . SVG Version: 6.00 Build 0)  -->
<svg version="1.1" xmlns="http://www.w3.org/2000/svg" xmlns:xlink="http://www.w3.org/1999/xlink" x="0px" y="0px"
	 viewBox="0 0 202 202" style="enable-background:new 0 0 202 202;" xml:space="preserve">
<style type="text/css">
	.st0{filter:url(#Adobe_OpacityMaskFilter);}
	.st1{opacity:0;mask:url(#SVGID_1_);}
	.st2{display:none;fill:#E9EBED;}
	.st3{fill:#6D737A;}
</style>
<g id="Calque_1">
	<defs>
		<filter id="Adobe_OpacityMaskFilter" filterUnits="userSpaceOnUse" x="0" y="0" width="202" height="202">
			<feColorMatrix  type="matrix" values="1 0 0 0 0  0 1 0 0 0  0 0 1 0 0  0 0 0 1 0"/>
		</filter>
	</defs>
	<mask maskUnits="userSpaceOnUse" x="0" y="0" width="202" height="202" id="SVGID_1_">
		<g class="st0">
			<rect width="202" height="202"/>
		</g>
	</mask>
	<rect class="st1" width="202" height="202"/>
	<circle class="st2" cx="101" cy="101" r="101"/>
</g>
<g id="Calque_2">
	<path class="st3" d="M56.6,74.3c-6,12.7-6.7,27-2,40.2c4.7,13.2,14.3,23.8,26.9,29.8c7.1,3.4,14.6,5.1,22.4,5.1
		c20.2,0,38.8-11.8,47.4-30c12.4-26.1,1.2-57.7-24.9-70.1C119.3,46,111.8,44,104,44h0C83.8,44,65.2,56.1,56.6,74.3z M90.4,143.7
		c3.7-5.9,10-7.6,10.1-7.6l28.3-8.7l3.3,9.3c-8.2,5.8-18.1,9-28.2,9C99.4,145.7,94.9,145,90.4,143.7z M104,48.3
		c7,0,14.1,1.5,20.8,4.7c24.3,11.5,34.7,40.5,23.1,64.8c-3.1,6.5-7.5,12.1-12.7,16.4l-4.1-11.5l-31.6,9.8c-0.8,0.2-8.5,2.4-12.8,10
		c-1.2-0.5-2.4-1-3.7-1.5c-12-5.7-20.6-15.6-24.8-27.1c1.1-0.7,3-1.4,5.3-0.9c3.3,0.8,4.6,3.7,4.8,4l0.7,1.6l39.7-13.8l4.3-9
		L89.2,84.5l3.3-6.9l9.6-3.3l3.2-6.8l-0.2-0.7l-5.9-18.2C100.8,48.4,102.4,48.3,104,48.3z M95.4,49.1c0.9,2.6,4,11.6,5.9,18.1
		l-2,4.1l-9.6,3.3l-5.5,11.7L108,97.6l-2,4.2L71,113.9c-1-1.6-3.1-3.8-6.5-4.6c-3-0.7-5.6,0-7.3,0.9c-3.1-10.9-2.4-23,2.8-34.1
		C67,61.4,80.5,51.7,95.4,49.1z"/>
	<path class="st3" d="M143.9,85.5L123,75.6l-3.8,8.1l13,26.6L143.9,85.5z M123.3,83.7l1.5-3.1l14.1,6.7l-6.8,14.4L123.3,83.7z"/>
	<path class="st3" d="M139.4,139.3l4.4,5.4c-11.1,9.2-25.1,14.3-39.6,14.3C69.9,159,42,131.1,42,96.8c0-18.9,8.3-36.3,22.9-48.2
		l4.3,5.3l2.9-2.4L60.4,37.2l-2.9,2.4l5,6.1C47,58.2,38.2,76.8,38.2,96.8c0,35,27.8,63.7,61.8,65.8V174H74v4h56v-4h-26v-11.3
		c0,0,0.2,0,0.3,0c15.3,0,30.1-5.4,41.9-15.1l4.6,5.7l2.9-2.4l-11.5-14L139.4,139.3z"/>
</g>
<g id="Calque_3">
</g>
</svg>
