<?xml version="1.0" encoding="UTF-8"?>
<!-- Generator: Adobe Illustrator 17.1.0, SVG Export Plug-In . SVG Version: 6.00 Build 0)  -->
<!DOCTYPE svg PUBLIC "-//W3C//DTD SVG 1.0//EN" "http://www.w3.org/TR/2001/REC-SVG-20010904/DTD/svg10.dtd">
<svg version="1.0" id="Calque_1" xmlns="http://www.w3.org/2000/svg" xmlns:xlink="http://www.w3.org/1999/xlink" x="0px" y="0px" width="92px" height="92px" viewBox="0 0 92 92" style="enable-background:new 0 0 92 92;" xml:space="preserve">
<style type="text/css">
	.st0{fill:#241F21;}
</style>
<g>
	<path class="st0" d="M29.99161,40.29224c-1.69232,0-3.06386-1.37051-3.06386-3.06283c0-1.69232,1.37154-3.06387,3.06386-3.06387   c1.69129,0,3.06283,1.37154,3.06283,3.06387C33.05444,38.92172,31.6829,40.29224,29.99161,40.29224 M55.59645,31.10271   c-2.85207,0-5.22707,1.95758-5.90976,4.59477H35.90137c-0.68372-2.63718-3.05872-4.59477-5.90976-4.59477   c-3.38464,0-6.1267,2.74308-6.1267,6.1267c0,3.38361,2.74206,6.12669,6.1267,6.12669c2.85103,0,5.22604-1.95758,5.90976-4.59476   h13.78532c0.68269,2.63718,3.05872,4.59476,5.90976,4.59476c3.38361,0,6.12669-2.74308,6.12669-6.12669   C61.72314,33.84579,58.98006,31.10271,55.59645,31.10271"/>
	<path class="st0" d="M63.25476,58.67222c-1.69129,0-3.06284-1.37051-3.06284-3.06283s1.37154-3.06386,3.06284-3.06386   c1.69129,0,3.06283,1.37154,3.06283,3.06386S64.94605,58.67222,63.25476,58.67222 M63.25476,49.48269   c-2.85207,0-5.22708,1.95758-5.90976,4.59476H43.55968c-0.68371-2.63718-3.05872-4.59476-5.90976-4.59476   c-3.38464,0-6.1267,2.74308-6.1267,6.1267s2.74206,6.12669,6.1267,6.12669c2.85103,0,5.22604-1.95758,5.90976-4.59476h13.78532   c0.68268,2.63718,3.05872,4.59476,5.90976,4.59476c3.38361,0,6.1267-2.74308,6.1267-6.12669S66.63837,49.48269,63.25476,49.48269"/>
</g>
</svg>