<?xml version="1.0" encoding="UTF-8"?>
<!-- Generator: Adobe Illustrator 17.1.0, SVG Export Plug-In . SVG Version: 6.00 Build 0)  -->
<!DOCTYPE svg PUBLIC "-//W3C//DTD SVG 1.0//EN" "http://www.w3.org/TR/2001/REC-SVG-20010904/DTD/svg10.dtd">
<svg version="1.0" id="Calque_1" xmlns="http://www.w3.org/2000/svg" xmlns:xlink="http://www.w3.org/1999/xlink" x="0px" y="0px" width="92px" height="92px" viewBox="0 0 92 92" style="enable-background:new 0 0 92 92;" xml:space="preserve">
<style type="text/css">
	.st0{fill:#241F21;}
</style>
<g>
	<path class="st0" d="M47.0002,56.787l10.729,6.712l-2.959-12.356l9.59-8.051l-12.559-1.083l-4.801-11.534l-4.802,11.534   l-12.558,1.083l9.589,8.051l-2.959,12.356L47.0002,56.787z M58.3132,65.949l-0.411-0.194l-10.902-6.822l-11.123,6.959l-0.451,0.057   c-0.387,0-0.761-0.182-1.002-0.488c-0.241-0.306-0.326-0.701-0.235-1.083l3.01-12.567l-9.745-8.179   c-0.397-0.334-0.551-0.869-0.393-1.362c0.157-0.49,0.591-0.836,1.106-0.879l12.775-1.102l4.884-11.728   c0.4-0.952,1.948-0.95,2.346-0.002l4.885,11.73l12.78001,1.102c0.51099,0.043,0.944,0.389,1.10199,0.879   c0.15701,0.493,0.00301,1.028-0.392,1.362l-9.74699,8.179l3.011,12.569c0.091,0.38,0.005,0.775-0.236,1.081   c-0.241,0.306-0.615,0.488-1.001,0.488H58.3132z"/>
</g>
</svg>