<svg xmlns="http://www.w3.org/2000/svg" width="434" height="730" viewBox="0 0 434 730">
  <g fill="none" fill-rule="evenodd" stroke="#C8CBD3" stroke-width="12" transform="translate(0 6)">
    <path fill="#F4F6FA" d="M157.020666,331.845659 C150.408198,331.845659 143.814188,332.543389 137.348152,333.92726 C86.5830212,344.792089 54.2374366,394.753043 65.1022662,445.518173 L104.58864,630.015397 C109.412265,652.553435 115.671396,667.733246 125.080825,680.643744 C134.055848,692.958201 145.489573,702.203793 159.409642,708.402872 C174.003465,714.901997 190.157048,717.845659 213.205487,717.845659 L224.591916,717.845659 C247.270108,717.845659 263.683009,714.784728 278.339124,708.152082 C292.379626,701.798034 303.871346,692.336595 312.802822,679.777201 C322.125903,666.667135 328.281,651.147231 332.634981,628.890923 L368.826005,443.892694 C369.989073,437.947418 370.574693,431.903632 370.574693,425.845659 C370.574693,373.930893 328.48946,331.845659 276.574693,331.845659 L157.020666,331.845659 Z"/>
    <rect width="422" height="287.035" x="6" y="83.846" fill="#F4F6FA" rx="28"/>
    <g stroke-linecap="round" stroke-linejoin="round" transform="translate(129 .537)">
      <path d="M4 303.189711C44 263.189711 132 263.189711 172 303.189711M109 82L175.5 0"/>
      <polyline points="0 82 8.884 45.181 57.534 36.921 66.5 0" transform="matrix(1 0 0 -1 0 82)"/>
      <g transform="translate(17 180)">
        <path d="M117.865242 24.2325889L93.3427797.401639344 117.865242 24.2325889 141.790323.401639344 117.865242 24.2325889zM117.865242 24.2325889L143 48.658569 117.865242 24.2325889 93.3427797 48.658569 117.865242 24.2325889zM24.8652415 24.2325889L.342779691.401639344 24.8652415 24.2325889 48.7903226.401639344 24.8652415 24.2325889zM24.8652415 24.2325889L50 48.658569 24.8652415 24.2325889.342779691 48.658569 24.8652415 24.2325889z"/>
      </g>
    </g>
  </g>
</svg>
