<svg xmlns="http://www.w3.org/2000/svg" width="57" height="71" viewBox="0 0 57 71">
  <path fill="#FFF" fill-rule="evenodd" d="M2,69 L2.001,1.999 L46,2.003 L46,8 C46,9.654 47.346,11 49,11 L55.005,11 L55,69 L2,69 Z M48,2.832 L54.17,9 L49,9 C48.448,9 48,8.551 48,8 L48,2.832 Z M48,0.003 L1.965,0 C0.882,0.019 0,0.916 0,2 L0,69 C0,70.103 0.897,71 2,71 L55,71 C56.103,71 57,70.103 57,69 L57.005,9.007 L48,0.003 Z M46,59 L11,59 C10.448,59 10,59.447 10,60 C10,60.553 10.448,61 11,61 L46,61 C46.553,61 47,60.553 47,60 C47,59.447 46.553,59 46,59 M46,52 L11,52 C10.448,52 10,52.447 10,53 C10,53.553 10.448,54 11,54 L46,54 C46.553,54 47,53.553 47,53 C47,52.447 46.553,52 46,52 M46,45 L11,45 C10.448,45 10,45.447 10,46 C10,46.553 10.448,47 11,47 L46,47 C46.553,47 47,46.553 47,46 C47,45.447 46.553,45 46,45 M46,38 L32,38 C31.447,38 31,38.447 31,39 C31,39.553 31.447,40 32,40 L46,40 C46.553,40 47,39.553 47,39 C47,38.447 46.553,38 46,38 M46,31 L32,31 C31.447,31 31,31.448 31,32 C31,32.552 31.447,33 32,33 L46,33 C46.553,33 47,32.552 47,32 C47,31.448 46.553,31 46,31 M46,24 L32,24 C31.447,24 31,24.448 31,25 C31,25.552 31.447,26 32,26 L46,26 C46.553,26 47,25.552 47,25 C47,24.448 46.553,24 46,24 M12,40 L24,40 C25.104,40 26,39.104 26,38 L26,26 C26,24.896 25.104,24 24,24 L12,24 C10.896,24 10,24.896 10,26 L10,38 C10,39.104 10.896,40 12,40 M41.459,14.104 L41.48,14.104 L42.434,14.104 L42.434,16.502 C42.434,17.253 42.609,17.816 42.952,18.181 C43.294,18.546 43.822,18.724 44.527,18.724 C44.827,18.724 45.107,18.692 45.387,18.63 C45.595,18.578 45.781,18.525 45.937,18.453 C45.998,18.432 46.04,18.369 46.04,18.307 C46.029,18.317 46.029,18.307 46.029,18.296 L46.029,18.275 L45.905,17.326 C45.895,17.243 45.822,17.18 45.739,17.17 C45.729,17.17 45.708,17.17 45.698,17.18 C45.688,17.191 45.667,17.191 45.656,17.201 C45.418,17.295 45.148,17.347 44.879,17.347 C44.558,17.347 44.33,17.264 44.195,17.086 C44.061,16.909 43.998,16.627 43.998,16.231 L43.998,14.115 L45.625,14.115 C45.708,14.104 45.781,14.042 45.781,13.948 L45.781,13.937 L45.781,12.988 L45.781,12.978 C45.781,12.884 45.698,12.811 45.605,12.811 L43.998,12.811 L43.998,11.445 L43.998,11.414 C43.988,11.331 43.916,11.257 43.822,11.257 L42.609,11.257 C42.517,11.257 42.444,11.331 42.434,11.424 L42.434,12.811 L41.501,12.811 C41.407,12.811 41.325,12.884 41.325,12.988 L41.325,13.937 C41.325,14.021 41.387,14.094 41.459,14.104 M35.832,18.5566 L37.055,18.5566 C37.138,18.5566 37.211,18.4836 37.221,18.4006 L37.221,15.4706 C37.221,15.0116 37.324,14.6566 37.532,14.4066 C37.739,14.1566 38.029,14.0316 38.402,14.0316 C39.086,14.0316 39.418,14.4796 39.418,15.3766 L39.418,18.4006 C39.418,18.4836 39.48,18.5466 39.553,18.5676 L39.584,18.5676 L40.807,18.5676 C40.899,18.5676 40.982,18.4946 40.982,18.3896 L40.982,15.0846 C40.962,14.2816 40.786,13.6766 40.434,13.2596 C40.081,12.8426 39.563,12.6336 38.89,12.6336 C38.496,12.6336 38.153,12.7066 37.853,12.8636 C37.553,13.0196 37.324,13.2386 37.169,13.5196 L37.159,12.9986 L37.159,12.9566 C37.148,12.8736 37.076,12.8106 36.993,12.8106 L35.832,12.8106 C35.739,12.8106 35.656,12.8846 35.656,12.9886 L35.656,18.3796 C35.656,18.4736 35.728,18.5566 35.832,18.5566 M30.1738,15.6787 C30.1738,15.1997 30.3198,14.8027 30.5988,14.4907 C30.8788,14.1877 31.2408,14.0317 31.6878,14.0317 C32.1328,14.0317 32.4948,14.1877 32.7758,14.4907 C32.7848,14.5007 32.7958,14.5107 32.8068,14.5317 C33.0658,14.8337 33.1898,15.2197 33.1898,15.6787 C33.1998,16.1687 33.0548,16.5647 32.7758,16.8777 C32.4948,17.1907 32.1328,17.3367 31.6878,17.3367 C31.2408,17.3367 30.8898,17.1797 30.5988,16.8777 C30.3398,16.5957 30.2048,16.2417 30.1738,15.8147 L30.1738,15.6787 Z M28.6298,15.8247 C28.6408,16.3777 28.7648,16.8677 28.9718,17.3057 C29.1998,17.7637 29.5218,18.1187 29.9148,18.3687 C30.3088,18.6187 30.7648,18.7447 31.2628,18.7447 C31.6138,18.7447 31.9258,18.6927 32.2048,18.5877 C32.2678,18.5677 32.3298,18.5357 32.3818,18.5147 C32.7028,18.3587 32.9618,18.1297 33.1578,17.8377 L33.1798,18.3797 L33.1798,18.4217 C33.1898,18.5047 33.2628,18.5677 33.3458,18.5677 L34.4948,18.5677 C34.5888,18.5677 34.6718,18.4937 34.6718,18.3897 L34.6718,12.9987 C34.6608,12.8947 34.5888,12.8217 34.4948,12.8217 L33.3458,12.8217 C33.2628,12.8217 33.1898,12.8847 33.1798,12.9677 L33.1798,12.9777 L33.1798,13.0197 L33.1578,13.5727 C32.9728,13.2807 32.7238,13.0507 32.4028,12.8947 C32.0808,12.7387 31.7288,12.6547 31.3448,12.6547 C30.8268,12.6547 30.3508,12.7897 29.9358,13.0717 C29.5218,13.3537 29.1898,13.7287 28.9718,14.1877 C28.7438,14.6467 28.6298,15.1577 28.6298,15.7097 L28.6298,15.8247 Z M10.2563,14.6777 L10.2563,14.6877 C10.2983,15.1677 10.4013,15.6267 10.5673,16.0437 C10.5773,16.0647 10.5883,16.0857 10.5983,16.1167 C10.6923,16.3247 10.7953,16.5237 10.9093,16.7107 C11.0753,16.9827 11.2613,17.2217 11.4793,17.4407 C11.5103,17.4717 11.5413,17.5037 11.5723,17.5347 C11.9663,17.9097 12.4223,18.2017 12.9403,18.4107 C12.9613,18.4217 12.9713,18.4217 12.9923,18.4317 C13.2933,18.5467 13.6033,18.6297 13.9243,18.6817 C14.1733,18.7237 14.4323,18.7447 14.7023,18.7447 L14.7123,18.7447 L14.7333,18.7447 L14.8373,18.7447 L14.8473,18.7447 C14.9093,18.7447 15.0033,18.7337 15.1063,18.7337 C15.4063,18.7127 15.7073,18.6607 15.9873,18.5777 C16.0593,18.5567 16.1013,18.5047 16.1223,18.4417 C16.1323,18.4217 16.1323,18.4007 16.1323,18.3797 C16.1323,18.3477 16.1223,18.3167 16.1113,18.2857 L15.6143,17.2847 C15.5723,17.2007 15.4793,17.1487 15.3863,17.1797 C15.1783,17.2327 14.9613,17.2537 14.7333,17.2537 C14.6403,17.2537 14.5473,17.2537 14.4533,17.2427 C14.3813,17.2327 14.3083,17.2217 14.2353,17.2117 C14.1013,17.1907 13.9663,17.1487 13.8313,17.1077 C13.5623,17.0237 13.3033,16.8877 13.0753,16.7317 C12.8163,16.5547 12.5983,16.3357 12.4123,16.0957 C12.3083,15.9497 12.2043,15.8037 12.1213,15.6367 C12.0393,15.4807 11.9763,15.3137 11.9243,15.1367 C11.8523,14.8757 11.8113,14.5947 11.8113,14.3127 L11.8113,14.2607 C11.8213,13.8017 11.9243,13.3737 12.1213,12.9987 C12.1323,12.9777 12.1423,12.9677 12.1423,12.9567 C12.1843,12.8737 12.2353,12.7897 12.2873,12.7067 C12.4013,12.5297 12.5363,12.3627 12.6923,12.2167 C12.9713,11.9457 13.3033,11.7267 13.6663,11.5807 C13.6863,11.5707 13.7073,11.5597 13.7283,11.5597 C13.8623,11.5077 13.9873,11.4657 14.1323,11.4457 C14.2563,11.4247 14.3813,11.4037 14.5053,11.3927 L14.5773,11.3927 L14.7223,11.3927 L14.8163,11.3927 L14.8683,11.3927 L14.9303,11.3927 C14.9613,11.3927 14.9923,11.4037 15.0233,11.4037 C15.0653,11.4037 15.1063,11.4137 15.1583,11.4247 C15.2823,11.4457 15.3963,11.4657 15.5103,11.4967 C15.5213,11.4967 15.5413,11.5077 15.5513,11.5077 C16.3183,11.7377 16.9513,12.2797 17.3033,12.9777 C17.3963,13.1557 17.4693,13.3427 17.5213,13.5517 C17.5833,13.8017 17.6243,14.0517 17.6243,14.3237 L17.6243,14.3437 C17.6243,15.2197 17.2313,16.0017 16.6193,16.5437 C16.6093,16.5547 16.5883,16.5757 16.5673,16.5857 C16.5363,16.6277 16.5153,16.6797 16.5153,16.7317 C16.5153,16.7627 16.5263,16.7837 16.5363,16.8157 L16.5473,16.8467 L17.0863,17.9207 L17.1583,18.0557 L17.1993,18.1297 L17.4693,18.6607 C17.4793,18.6717 17.4793,18.6817 17.4893,18.7027 C17.5313,18.7447 17.5833,18.7757 17.6453,18.7757 L19.0343,18.7757 C19.2313,18.7237 19.3343,18.5567 19.2513,18.4107 L18.6403,17.2537 L18.4743,16.9407 C18.4743,16.9407 18.4743,16.9297 18.4643,16.9297 C18.4323,16.8677 18.4433,16.7837 18.4853,16.7217 C18.9093,16.0857 19.1793,15.3237 19.2203,14.5107 L19.2203,14.4797 L19.2203,14.3857 L19.2203,14.2607 L19.2203,14.1457 L19.2203,14.0317 C19.2103,13.7287 19.1683,13.4477 19.1063,13.1767 C19.0543,12.9467 18.9923,12.7277 18.8993,12.5187 C18.8263,12.3527 18.7543,12.1857 18.6603,12.0297 C18.6403,11.9977 18.6303,11.9667 18.6093,11.9347 C18.2053,11.2577 17.6553,10.7257 16.9823,10.3607 C16.2983,9.9857 15.5513,9.8077 14.7223,9.8077 C14.2673,9.8077 13.8413,9.8607 13.4383,9.9747 C13.0753,10.0787 12.7223,10.2247 12.4013,10.4237 C12.1423,10.5797 11.9043,10.7567 11.6863,10.9447 C11.4383,11.1637 11.2303,11.4037 11.0333,11.6747 C10.9503,11.7887 10.8673,11.9147 10.7953,12.0497 C10.5773,12.4467 10.4223,12.8637 10.3293,13.3017 C10.2773,13.5407 10.2463,13.7807 10.2353,14.0417 L10.2353,14.0627 L10.2353,14.1567 L10.2353,14.2817 L10.2353,14.4067 C10.2353,14.4587 10.2353,14.5217 10.2463,14.5737 C10.2463,14.6047 10.2463,14.6467 10.2563,14.6777 M20.4536,15.3452 L21.4696,18.4312 C21.4696,18.4422 21.4796,18.4522 21.4796,18.4632 C21.5006,18.5252 21.5626,18.5672 21.6346,18.5672 L22.7746,18.5672 C22.8476,18.5672 22.8996,18.5252 22.9306,18.4732 L22.9516,18.4212 L23.8836,15.5432 L24.1326,14.7822 L24.2046,15.0012 L24.2156,15.0422 L24.4956,15.8562 L25.3756,18.4312 C25.3756,18.4312 25.3866,18.4422 25.3866,18.4522 C25.4076,18.5152 25.4696,18.5562 25.5416,18.5562 L26.7026,18.5562 C26.7746,18.5562 26.8276,18.5152 26.8576,18.4522 C26.8576,18.4422 26.8686,18.4212 26.8686,18.4102 L27.8636,15.3872 L28.6296,13.0612 C28.6406,13.0512 28.6406,13.0512 28.6406,13.0402 C28.6506,13.0192 28.6506,13.0092 28.6506,12.9882 C28.6506,12.8942 28.5676,12.8222 28.4746,12.8322 L27.2416,12.8322 C27.1586,12.8322 27.0966,12.8842 27.0756,12.9572 L27.0756,12.9782 L27.0656,13.0092 L26.6406,14.5842 L26.1326,16.4812 L26.1326,16.5022 L26.0596,16.7842 L24.8376,12.9782 L24.8266,12.9362 C24.7956,12.8732 24.7446,12.8322 24.6716,12.8322 L23.6146,12.8322 C23.5526,12.8322 23.4906,12.8732 23.4586,12.9362 C23.4586,12.9472 23.4486,12.9572 23.4486,12.9682 L22.7646,15.2092 L22.2876,16.7632 L22.2156,16.4922 C22.2046,16.4922 22.2046,16.4812 22.2046,16.4712 L21.8526,15.1372 L21.2826,12.9882 L21.2726,12.9362 C21.2516,12.8732 21.1996,12.8422 21.1376,12.8322 L19.8626,12.8322 C19.7596,12.8322 19.6866,12.9152 19.6866,13.0092 L19.6866,13.0402 L19.7076,13.0932 L20.4536,15.3452 Z"/>
</svg>
