<svg xmlns="http://www.w3.org/2000/svg" width="1438" height="150" viewBox="0 0 1438 150">
  <g fill="none">
    <rect width="1439" height="150" fill="#343B52"/>
    <path fill="#4BA2EA" d="M383.807071,0 C359.605175,55.9285714 330.395989,106.5 297.292245,150 L175.865488,150 C194.50373,103.5 209.525597,53.1428571 220.374723,0 L383.807071,0 Z"/>
    <path fill="#65CEE7" d="M221.21445,0 C210.494807,53.1428571 195.459464,103.5 176.665285,150 L0,150 L0,0 L221.21445,0 Z"/>
    <path fill="#87C966" d="M862.524212,150 L590.045128,150 C547.431231,109.5 509.536789,58.9285714 477.611068,0 L798.256349,0 C815.607284,54.2142857 837.261251,104.571429 862.524212,150 Z"/>
    <path fill="#FF3B4A" d="M1437.89393,0 L1437.89393,150 L1072.89008,150 C1115.57815,109.5 1153.53855,58.9285714 1185.51984,0 L1437.89393,0 Z"/>
    <path fill="#FDDC17" d="M1185.70945,0 C1153.75099,58.9285714 1115.67874,109.5 1073.16009,150 L860.844744,150 C835.555874,104.571429 813.740751,54.2142857 796.372022,0 L1185.70945,0 Z"/>
    <path fill="#AF27CC" d="M1437.89393,0 L1437.89393,150 L1259.8163,150 C1261.89989,98.3571429 1267.45613,48.2142857 1276.34612,0 L1437.89393,0 Z"/>
  </g>
</svg>
