<svg xmlns="http://www.w3.org/2000/svg" width="1438" height="150" viewBox="0 0 1438 150">
    <g fill="none" fill-rule="nonzero">
        <path fill="#60787E" d="M0 0h1439v150H0z"/>
        <path fill="#708B93" d="M383.807 0c-24.202 55.929-53.411 106.5-86.515 150H175.865c18.639-46.5 33.66-96.857 44.51-150h163.432z"/>
        <path fill="#82A2AA" d="M221.214 0c-10.72 53.143-25.755 103.5-44.549 150H0V0h221.214z"/>
        <path fill="#50626A" d="M862.524 150H590.045c-42.614-40.5-80.508-91.071-112.434-150h320.645c17.351 54.214 39.005 104.571 64.268 150z"/>
        <path fill="#414E55" d="M1437.894 0v150H1072.89c42.688-40.5 80.649-91.071 112.63-150h252.374z"/>
        <path fill="#414E55" d="M1185.71 0c-31.959 58.929-70.031 109.5-112.55 150H860.845c-25.29-45.429-47.104-95.786-64.473-150h389.337z"/>
        <path fill="#50626A" d="M1437.894 0v150h-178.078c2.084-51.643 7.64-101.786 16.53-150h161.548z"/>
    </g>
</svg>
