<svg xmlns="http://www.w3.org/2000/svg" xmlns:xlink="http://www.w3.org/1999/xlink">
<svg id="icon-search" width="24" height="24" viewBox="0 0 24 24" fill="none" stroke="currentColor" stroke-width="2" stroke-linecap="round" stroke-linejoin="round" class="feather feather-search"><circle cx="11" cy="11" r="8"></circle><line x1="21" y1="21" x2="16.65" y2="16.65"></line></svg>
<svg id="icon-more-arrow" width="17" height="17" viewBox="0 0 24 24" fill="none" stroke="currentColor" stroke-width="2" stroke-linecap="round" stroke-linejoin="round" class="feather feather-arrow-right icon_1JdxB"><g><line y2="12" x2="19" y1="12" x1="5"></line><polyline points="12 5 19 12 12 19"></polyline></g></svg>
<svg id="icon-retweet" width="14" height="14" viewBox="0 0 24 24" fill="none" stroke="currentColor" stroke-width="2" stroke-linecap="round" stroke-linejoin="round" class="feather feather-repeat icon_2PQt_"><g><polyline points="17 1 21 5 17 9"></polyline><path d="M3 11V9a4 4 0 0 1 4-4h14"></path><polyline points="7 23 3 19 7 15"></polyline><path d="M21 13v2a4 4 0 0 1-4 4H3"></path></g></svg>
<svg id="icon-heart" width="14" height="14" viewBox="0 0 24 24" fill="none" stroke="currentColor" stroke-width="2" stroke-linecap="round" stroke-linejoin="round" class="feather feather-heart icon_2PQt_"><g><path d="M20.84 4.61a5.5 5.5 0 0 0-7.78 0L12 5.67l-1.06-1.06a5.5 5.5 0 0 0-7.78 7.78l1.06 1.06L12 21.23l7.78-7.78 1.06-1.06a5.5 5.5 0 0 0 0-7.78z"></path></g></svg>
<svg id="chevron-left" width="17" height="17" viewBox="0 0 24 24" fill="none" stroke="currentColor" stroke-width="2" stroke-linecap="round" stroke-linejoin="round" class="feather feather-chevron-left"><polyline points="15 18 9 12 15 6"></polyline></svg>
<svg id="chevrons-right" width="24" height="24" viewBox="0 0 24 24" fill="none" stroke="currentColor" stroke-width="2" stroke-linecap="round" stroke-linejoin="round" class="feather feather-chevrons-right"><polyline points="13 17 18 12 13 7"></polyline><polyline points="6 17 11 12 6 7"></polyline></svg>
<svg id="chevron-right" width="17" height="17" viewBox="0 0 24 24" fill="none" stroke="currentColor" stroke-width="2" stroke-linecap="round" stroke-linejoin="round" class="feather feather-chevron-right"><polyline points="9 18 15 12 9 6"></polyline></svg>
<svg id="check" width="24" height="24" viewBox="0 0 24 24" fill="none" stroke="currentColor" stroke-width="2" stroke-linecap="round" stroke-linejoin="round" class="feather feather-check"><polyline points="20 6 9 17 4 12"></polyline></svg>
<svg id="user" width="32" height="32" viewBox="0 0 32 32" fill="none" stroke="currentColor" stroke-width="2" stroke-linecap="round" stroke-linejoin="round" class="feather feather-user"><path d="M20 21v-2a4 4 0 0 0-4-4H8a4 4 0 0 0-4 4v2"></path><circle cx="12" cy="7" r="4"></circle></svg>
<svg id="star" width="24" height="24" viewBox="0 0 24 24" fill="none" stroke="currentColor" stroke-width="2" stroke-linecap="round" stroke-linejoin="round" class="feather feather-star"><polygon points="12 2 15.09 8.26 22 9.27 17 14.14 18.18 21.02 12 17.77 5.82 21.02 7 14.14 2 9.27 8.91 8.26 12 2"></polygon></svg>
<svg id="settings" width="24" height="24" viewBox="0 0 24 24" fill="none" stroke="currentColor" stroke-width="2" stroke-linecap="round" stroke-linejoin="round" class="feather feather-settings"><circle cx="12" cy="12" r="3"></circle><path d="M19.4 15a1.65 1.65 0 0 0 .33 1.82l.06.06a2 2 0 0 1 0 2.83 2 2 0 0 1-2.83 0l-.06-.06a1.65 1.65 0 0 0-1.82-.33 1.65 1.65 0 0 0-1 1.51V21a2 2 0 0 1-2 2 2 2 0 0 1-2-2v-.09A1.65 1.65 0 0 0 9 19.4a1.65 1.65 0 0 0-1.82.33l-.06.06a2 2 0 0 1-2.83 0 2 2 0 0 1 0-2.83l.06-.06a1.65 1.65 0 0 0 .33-1.82 1.65 1.65 0 0 0-1.51-1H3a2 2 0 0 1-2-2 2 2 0 0 1 2-2h.09A1.65 1.65 0 0 0 4.6 9a1.65 1.65 0 0 0-.33-1.82l-.06-.06a2 2 0 0 1 0-2.83 2 2 0 0 1 2.83 0l.06.06a1.65 1.65 0 0 0 1.82.33H9a1.65 1.65 0 0 0 1-1.51V3a2 2 0 0 1 2-2 2 2 0 0 1 2 2v.09a1.65 1.65 0 0 0 1 1.51 1.65 1.65 0 0 0 1.82-.33l.06-.06a2 2 0 0 1 2.83 0 2 2 0 0 1 0 2.83l-.06.06a1.65 1.65 0 0 0-.33 1.82V9a1.65 1.65 0 0 0 1.51 1H21a2 2 0 0 1 2 2 2 2 0 0 1-2 2h-.09a1.65 1.65 0 0 0-1.51 1z"></path></svg>
<svg id="users" width="24" height="24" viewBox="0 0 24 24" fill="none" stroke="currentColor" stroke-width="2" stroke-linecap="round" stroke-linejoin="round" class="feather feather-users"><path d="M17 21v-2a4 4 0 0 0-4-4H5a4 4 0 0 0-4 4v2"></path><circle cx="9" cy="7" r="4"></circle><path d="M23 21v-2a4 4 0 0 0-3-3.87"></path><path d="M16 3.13a4 4 0 0 1 0 7.75"></path></svg>
<svg id="share" width="24" height="24" viewBox="0 0 24 24" fill="none" stroke="currentColor" stroke-width="2" stroke-linecap="round" stroke-linejoin="round" class="feather feather-share-2"><circle cx="18" cy="5" r="3"></circle><circle cx="6" cy="12" r="3"></circle><circle cx="18" cy="19" r="3"></circle><line x1="8.59" y1="13.51" x2="15.42" y2="17.49"></line><line x1="15.41" y1="6.51" x2="8.59" y2="10.49"></line></svg>
<svg id="at-sign" width="24" height="24" viewBox="0 0 24 24" fill="none" stroke="currentColor" stroke-width="2" stroke-linecap="round" stroke-linejoin="round" class="feather feather-at-sign"><circle cx="12" cy="12" r="4"></circle><path d="M16 8v5a3 3 0 0 0 6 0v-1a10 10 0 1 0-3.92 7.94"></path></svg>
<svg id="hash" width="24" height="24" viewBox="0 0 24 24" fill="none" stroke="currentColor" stroke-width="2" stroke-linecap="round" stroke-linejoin="round" class="feather feather-hash"><line x1="4" y1="9" x2="20" y2="9"></line><line x1="4" y1="15" x2="20" y2="15"></line><line x1="10" y1="3" x2="8" y2="21"></line><line x1="16" y1="3" x2="14" y2="21"></line></svg>
<svg id="arrow-left" width="24" height="24" viewBox="0 0 24 24" fill="none" stroke="currentColor" stroke-width="2" stroke-linecap="round" stroke-linejoin="round" class="feather feather-arrow-left"><line x1="19" y1="12" x2="5" y2="12"></line><polyline points="12 19 5 12 12 5"></polyline></svg>
<svg id="check-circle" width="24" height="24" viewBox="0 0 24 24" fill="none" stroke="currentColor" stroke-width="2" stroke-linecap="round" stroke-linejoin="round" class="feather feather-check-circle"><path d="M22 11.08V12a10 10 0 1 1-5.93-9.14"></path><polyline points="22 4 12 14.01 9 11.01"></polyline></svg>
<svg id="maximize" width="22" height="22" viewBox="0 0 24 24" fill="none" stroke="currentColor" stroke-width="2" stroke-linecap="round" stroke-linejoin="round" class="feather feather-maximize-2"><polyline points="15 3 21 3 21 9"></polyline><polyline points="9 21 3 21 3 15"></polyline><line x1="21" y1="3" x2="14" y2="10"></line><line x1="3" y1="21" x2="10" y2="14"></line></svg>
<svg id="minimize" width="22" height="22" viewBox="0 0 24 24" fill="none" stroke="currentColor" stroke-width="2" stroke-linecap="round" stroke-linejoin="round" class="feather feather-minimize-2"><polyline points="4 14 10 14 10 20"></polyline><polyline points="20 10 14 10 14 4"></polyline><line x1="14" y1="10" x2="21" y2="3"></line><line x1="3" y1="21" x2="10" y2="14"></line></svg>
<svg id="minus" width="24" height="24" viewBox="0 0 24 24" fill="none" stroke="currentColor" stroke-width="2" stroke-linecap="round" stroke-linejoin="round" class="feather feather-minus"><line x1="5" y1="12" x2="19" y2="12"></line></svg>
<svg id="logo-white" width="187.99184" height="108.75" viewBox="0 0 187.99184 108.75"><path d="M56,109.375C25.63867,109.375.9375,84.98242.9375,55S25.63867.625,56,.625,111.0625,25.01758,111.0625,55A53.46752,53.46752,0,0,1,101.002,86.25293l-.23242.32422.05566.39551a2.09821,2.09821,0,0,0,.09082.40039,9.84789,9.84789,0,0,0,.89063,1.89258l6.07422,11.35645c.88086,1.76172,1.873,3.64648,2.86523,5.53223a1.5666,1.5666,0,0,1,.001,1.5498,1.74588,1.74588,0,0,1-1.4375.84668l-15.64648-.001-.77246.00781a2.36947,2.36947,0,0,1-1.29785-.25488,4.59783,4.59783,0,0,1-1.48633-2.23535c-.0791-.18359-.15625-.36133-.2334-.53125-3.55664-7.0459-8.75781-17.38574-9.87012-19.69238l.01367-.02051-.25977-.52051a1.50257,1.50257,0,0,1-.0459-1.13672,1.40114,1.40114,0,0,1,.22168-.48926,4.13924,4.13924,0,0,1,.76953-.75781,36.127,36.127,0,0,0,6.60156-7.72754,52.51885,52.51885,0,0,0,2.77344-5.335A37.69419,37.69419,0,0,0,92.96094,53.2959a36.77653,36.77653,0,0,0-5.65137-17.67773A37.67907,37.67907,0,0,0,76.1084,24.41211l-.35254-.24609c-.416-.292-1.02441-.71729-1.26855-.86719a37.07749,37.07749,0,0,0-14.82715-4.644c-1.08887-.104-2.19727-.15625-3.29785-.15625a36.74976,36.74976,0,0,0-15.627,3.54785,36.066,36.066,0,0,0-7.91309,5.13574,40.12157,40.12157,0,0,0-6.06348,6.47363,36.78588,36.78588,0,0,0-6.58138,14.37549c-.10574.53069-.4047,2.83337-.41276,3.04395a36.64273,36.64273,0,0,0,2.78223,18.77637,34.84691,34.84691,0,0,0,6.37207,9.9668,37.85209,37.85209,0,0,0,5.13086,4.82129A36.04788,36.04788,0,0,0,51.53516,91.8418a30.72709,30.72709,0,0,0,4.58008.33691,35.82568,35.82568,0,0,0,5.502-.44043c.43652-.05371.9043-.14453,1.35449-.23145.32422-.06348.6377-.125.93359-.167.54395-.09082.90332-.15039,1.4375-.21191l.10059-.01074c.30469,0,.78223.3291,1.21191,1.25391l.90918,1.832c.85059,1.71777,1.72949,3.49414,2.70215,5.291l.001.05762.10059.24512,1.73633,3.47363c.04.19141.10059.39941.16895.62207a2.60548,2.60548,0,0,1,.14063,1.64063,2.50567,2.50567,0,0,1-1.89551,1.92773c-1.05176.26172-4.19922.94141-4.23047.94824A55.98055,55.98055,0,0,1,56,109.375Z" transform="translate(-0.9375 -0.625)" fill="#fff"/><path d="M188.53335,24.73336c.133.05.26349.1062.396.15747a7.37,7.37,0,0,1-.896-.45752C188.23336,24.53335,188.33333,24.63332,188.53335,24.73336Z" transform="translate(-0.9375 -0.625)" fill="#fff"/></svg>
<svg id="circle-close" viewBox="0 0 24 24" fill="none" stroke="currentColor" stroke-width="2" stroke-linecap="round" stroke-linejoin="round" class="feather feather-x-circle"><circle cx="12" cy="12" r="10"></circle><line x1="15" y1="9" x2="9" y2="15"></line><line x1="9" y1="9" x2="15" y2="15"></line></svg>
<svg id="external-link" viewBox="0 0 24 24" fill="none" stroke="currentColor" stroke-width="2" stroke-linecap="round" stroke-linejoin="round" class="feather feather-external-link"><path d="M18 13v6a2 2 0 0 1-2 2H5a2 2 0 0 1-2-2V8a2 2 0 0 1 2-2h6"></path><polyline points="15 3 21 3 21 9"></polyline><line x1="10" y1="14" x2="21" y2="3"></line></svg>
<svg id="more-horizontal" width="24" height="24" viewBox="0 0 24 24" fill="none" stroke="currentColor" stroke-width="2" stroke-linecap="round" stroke-linejoin="round" class="feather feather-more-horizontal"><circle cx="12" cy="12" r="1"></circle><circle cx="19" cy="12" r="1"></circle><circle cx="5" cy="12" r="1"></circle></svg>
<svg id="double-dash" viewBox="0 0 11 7" fill="currentColor" ><rect width="11" height="2" /><rect y="5" width="11" height="2" /></svg>
<svg id="copy" viewBox="0 0 24 24" fill="none" stroke="currentColor" stroke-width="2" stroke-linecap="round" stroke-linejoin="round" class="feather feather-copy"><rect x="9" y="9" width="13" height="13" rx="2" ry="2"></rect><path d="M5 15H4a2 2 0 0 1-2-2V4a2 2 0 0 1 2-2h9a2 2 0 0 1 2 2v1"></path></svg>
<svg id="edit" viewBox="0 0 24 24" fill="none" stroke="currentColor" stroke-width="2" stroke-linecap="round" stroke-linejoin="round" class="feather feather-edit"><path d="M20 14.66V20a2 2 0 0 1-2 2H4a2 2 0 0 1-2-2V6a2 2 0 0 1 2-2h5.34"></path><polygon points="18 2 22 6 12 16 8 16 8 12 18 2"></polygon></svg>
<svg id="trash" viewBox="0 0 24 24" fill="none" stroke="currentColor" stroke-width="2" stroke-linecap="round" stroke-linejoin="round" class="feather feather-trash-2"><polyline points="3 6 5 6 21 6"></polyline><path d="M19 6v14a2 2 0 0 1-2 2H7a2 2 0 0 1-2-2V6m3 0V4a2 2 0 0 1 2-2h4a2 2 0 0 1 2 2v2"></path><line x1="10" y1="11" x2="10" y2="17"></line><line x1="14" y1="11" x2="14" y2="17"></line></svg>
<svg id="circle-close" width="22" height="22" viewBox="0 0 24 24" fill="none" stroke="currentColor" stroke-width="2" stroke-linecap="round" stroke-linejoin="round" class="feather feather-x-circle"><circle cx="12" cy="12" r="10"></circle><line x1="15" y1="9" x2="9" y2="15"></line><line x1="9" y1="9" x2="15" y2="15"></line></svg>
<svg id="facebook" width="24" height="24" viewBox="0 0 24 24" fill="none" stroke="currentColor" stroke-width="2" stroke-linecap="round" stroke-linejoin="round" class="feather feather-facebook"><path d="M18 2h-3a5 5 0 0 0-5 5v3H7v4h3v8h4v-8h3l1-4h-4V7a1 1 0 0 1 1-1h3z"></path></svg>
<svg id="twitter" width="24" height="24" viewBox="0 0 24 24" fill="none" stroke="currentColor" stroke-width="2" stroke-linecap="round" stroke-linejoin="round" class="feather feather-twitter"><path d="M23 3a10.9 10.9 0 0 1-3.14 1.53 4.48 4.48 0 0 0-7.86 3v1A10.66 10.66 0 0 1 3 4s-4 9 5 13a11.64 11.64 0 0 1-7 2c9 5 20 0 20-11.5a4.5 4.5 0 0 0-.08-.83A7.72 7.72 0 0 0 23 3z"></path></svg>
<svg id="instagram" width="24" height="24" viewBox="0 0 24 24" fill="none" stroke="currentColor" stroke-width="2" stroke-linecap="round" stroke-linejoin="round" class="feather feather-instagram"><rect x="2" y="2" width="20" height="20" rx="5" ry="5"></rect><path d="M16 11.37A4 4 0 1 1 12.63 8 4 4 0 0 1 16 11.37z"></path><line x1="17.5" y1="6.5" x2="17.5" y2="6.5"></line></svg>
<svg id="live" width="14" height="14" viewBox="0 0 14 14">
    <defs>
        <circle id="pin-map-a" cx="8" cy="8" r="7"/>
        <circle id="pin-map-d" cx="8" cy="8" r="4"/>
        <filter id="pin-map-c" width="175%" height="175%" x="-37.5%" y="-37.5%" filterUnits="objectBoundingBox">
            <feOffset in="SourceAlpha" result="shadowOffsetOuter1"/>
            <feGaussianBlur in="shadowOffsetOuter1" result="shadowBlurOuter1" stdDeviation="1"/>
            <feColorMatrix in="shadowBlurOuter1" values="0 0 0 0 0   0 0 0 0 0   0 0 0 0 0  0 0 0 1 0"/>
        </filter>
    </defs>
    <g fill="none" fill-rule="evenodd" transform="translate(-1 -1)">
        <mask id="pin-map-b" fill="#fff">
            <use xlink:href="#pin-map-a"/>
        </mask>
        <use fill="#E53B5B" opacity=".1" xlink:href="#pin-map-a"/>
        <g mask="url(#pin-map-b)">
            <use fill="#000" filter="url(#pin-map-c)" xlink:href="#pin-map-d"/>
            <use fill="#E53B5B" xlink:href="#pin-map-d"/>
        </g>
        <g fill="#D2302F" mask="url(#pin-map-b)" opacity=".6">
            <rect width="16" height="16"/>
        </g>
    </g>
</svg>
<svg id="message-circle" width="24" height="24" viewBox="0 0 24 24" fill="none" stroke="currentColor" stroke-width="2" stroke-linecap="round" stroke-linejoin="round" class="feather feather-message-circle"><path d="M21 11.5a8.38 8.38 0 0 1-.9 3.8 8.5 8.5 0 0 1-7.6 4.7 8.38 8.38 0 0 1-3.8-.9L3 21l1.9-5.7a8.38 8.38 0 0 1-.9-3.8 8.5 8.5 0 0 1 4.7-7.6 8.38 8.38 0 0 1 3.8-.9h.5a8.48 8.48 0 0 1 8 8v.5z"></path></svg>
<svg id="eye" width="24" height="24" viewBox="0 0 24 24" fill="none" stroke="currentColor" stroke-width="2" stroke-linecap="round" stroke-linejoin="round" class="feather feather-eye"><path d="M1 12s4-8 11-8 11 8 11 8-4 8-11 8-11-8-11-8z"></path><circle cx="12" cy="12" r="3"></circle></svg>
<svg id="clipboard" width="24" height="24" viewBox="0 0 24 24" fill="none" stroke="currentColor" stroke-width="2" stroke-linecap="round" stroke-linejoin="round" class="feather feather-clipboard"><path d="M16 4h2a2 2 0 0 1 2 2v14a2 2 0 0 1-2 2H6a2 2 0 0 1-2-2V6a2 2 0 0 1 2-2h2"></path><rect x="8" y="2" width="8" height="4" rx="1" ry="1"></rect></svg>
<svg id="file-text" width="24" height="24" viewBox="0 0 24 24" fill="none" stroke="currentColor" stroke-width="2" stroke-linecap="round" stroke-linejoin="round" class="feather feather-file-text"><path d="M14 2H6a2 2 0 0 0-2 2v16a2 2 0 0 0 2 2h12a2 2 0 0 0 2-2V8z"></path><polyline points="14 2 14 8 20 8"></polyline><line x1="16" y1="13" x2="8" y2="13"></line><line x1="16" y1="17" x2="8" y2="17"></line><polyline points="10 9 9 9 8 9"></polyline></svg>
<svg id="image" width="24" height="24" viewBox="0 0 24 24" fill="none" stroke="currentColor" stroke-width="2" stroke-linecap="round" stroke-linejoin="round" class="feather feather-image"><rect x="3" y="3" width="18" height="18" rx="2" ry="2"></rect><circle cx="8.5" cy="8.5" r="1.5"></circle><polyline points="21 15 16 10 5 21"></polyline></svg>
<svg id="video" width="24" height="24" viewBox="0 0 24 24" fill="none" stroke="currentColor" stroke-width="2" stroke-linecap="round" stroke-linejoin="round" class="feather feather-video"><polygon points="23 7 16 12 23 17 23 7"></polygon><rect x="1" y="5" width="15" height="14" rx="2" ry="2"></rect></svg>
<svg id="play" width="24" height="24" viewBox="0 0 24 24" fill="none" stroke="currentColor" stroke-width="2" stroke-linecap="round" stroke-linejoin="round" class="feather feather-play"><polygon points="5 3 19 12 5 21 5 3"></polygon></svg>
<svg id="icon-filter" width="24" height="24" viewBox="0 0 24 24" fill="none" stroke="currentColor" stroke-width="2" stroke-linecap="round" stroke-linejoin="round" class="feather feather-filter"><polygon points="22 3 2 3 10 12.46 10 19 14 21 14 12.46 22 3"></polygon></svg>

<svg id="thumbs-up" width="24" height="24" viewBox="0 0 24 24" fill="none" stroke="currentColor" stroke-width="2" stroke-linecap="round" stroke-linejoin="round" class="feather feather-thumbs-up"><path d="M14 9V5a3 3 0 0 0-3-3l-4 9v11h11.28a2 2 0 0 0 2-1.7l1.38-9a2 2 0 0 0-2-2.3zM7 22H4a2 2 0 0 1-2-2v-7a2 2 0 0 1 2-2h3"></path></svg>
<!-- IA -->

<!-- gamepad -->
<svg id="icon-games" height="16" viewBox="0 0 22 16" width="22" ><path d="m13 5c.5522847 0 1 .44771525 1 1h7c1.1045695 0 2 .8954305 2 2v10c0 1.1045695-.8954305 2-2 2h-5c-1.1045695 0-2-.8954305-2-2v-1h-4v1c0 1.1045695-.8954305 2-2 2h-5c-1.1045695 0-2-.8954305-2-2v-10c0-1.1045695.8954305-2 2-2h7c0-.55228475.4477153-1 1-1 0-.55228475.4477153-1 1-1s1 .44771525 1 1zm-5 6h1c.55228475 0 1 .4477153 1 1s-.44771525 1-1 1h-1v1c0 .5522847-.44771525 1-1 1s-1-.4477153-1-1v-1h-1c-.55228475 0-1-.4477153-1-1s.44771525-1 1-1h1v-1c0-.55228475.44771525-1 1-1s1 .44771525 1 1zm-5 7h5v-1c0-1.1045695.8954305-2 2-2h4c1.1045695 0 2 .8954305 2 2v1h5v-10h-18zm13.875-7c-.6213203 0-1.125-.5036797-1.125-1.125 0-.62132034.5036797-1.125 1.125-1.125s1.125.50367966 1.125 1.125c0 .6213203-.5036797 1.125-1.125 1.125zm2 2c-.6213203 0-1.125-.5036797-1.125-1.125s.5036797-1.125 1.125-1.125 1.125.5036797 1.125 1.125-.5036797 1.125-1.125 1.125zm-4 0c-.6213203 0-1.125-.5036797-1.125-1.125s.5036797-1.125 1.125-1.125 1.125.5036797 1.125 1.125-.5036797 1.125-1.125 1.125zm2 2c-.6213203 0-1.125-.5036797-1.125-1.125s.5036797-1.125 1.125-1.125 1.125.5036797 1.125 1.125-.5036797 1.125-1.125 1.125z" transform="translate(-1 -4)"/></svg>

<!-- Calc -->
<svg id="calc" width="70" height="99" viewBox="0 0 70 99">
    <defs>
        <linearGradient id="calculatrice-illu-a" x1="50%" x2="50%" y1="3.667%" y2="100%">
            <stop offset="0%" stop-color="#3C4E61"/>
            <stop offset="100%" stop-color="#353C52"/>
        </linearGradient>
        <rect id="calculatrice-illu-c" width="18" height="18" x="4" y="31" rx="2"/>
        <filter id="calculatrice-illu-b" width="166.7%" height="166.7%" x="-33.3%" y="-33.3%" filterUnits="objectBoundingBox">
            <feOffset in="SourceAlpha" result="shadowOffsetOuter1"/>
            <feGaussianBlur in="shadowOffsetOuter1" result="shadowBlurOuter1" stdDeviation="2"/>
            <feColorMatrix in="shadowBlurOuter1" values="0 0 0 0 0.207843137   0 0 0 0 0.235294118   0 0 0 0 0.321568627  0 0 0 1 0"/>
        </filter>
        <rect id="calculatrice-illu-e" width="18" height="18" x="26" y="31" rx="2"/>
        <filter id="calculatrice-illu-d" width="166.7%" height="166.7%" x="-33.3%" y="-33.3%" filterUnits="objectBoundingBox">
            <feOffset in="SourceAlpha" result="shadowOffsetOuter1"/>
            <feGaussianBlur in="shadowOffsetOuter1" result="shadowBlurOuter1" stdDeviation="2"/>
            <feColorMatrix in="shadowBlurOuter1" values="0 0 0 0 0.207843137   0 0 0 0 0.235294118   0 0 0 0 0.321568627  0 0 0 1 0"/>
        </filter>
        <rect id="calculatrice-illu-g" width="18" height="18" x="48" y="31" rx="2"/>
        <filter id="calculatrice-illu-f" width="166.7%" height="166.7%" x="-33.3%" y="-33.3%" filterUnits="objectBoundingBox">
            <feOffset in="SourceAlpha" result="shadowOffsetOuter1"/>
            <feGaussianBlur in="shadowOffsetOuter1" result="shadowBlurOuter1" stdDeviation="2"/>
            <feColorMatrix in="shadowBlurOuter1" values="0 0 0 0 0.207843137   0 0 0 0 0.235294118   0 0 0 0 0.321568627  0 0 0 0.5 0"/>
        </filter>
        <rect id="calculatrice-illu-i" width="18" height="18" x="4" y="53" rx="2"/>
        <filter id="calculatrice-illu-h" width="177.8%" height="177.8%" x="-38.9%" y="-27.8%" filterUnits="objectBoundingBox">
            <feOffset dy="2" in="SourceAlpha" result="shadowOffsetOuter1"/>
            <feGaussianBlur in="shadowOffsetOuter1" result="shadowBlurOuter1" stdDeviation="2"/>
            <feColorMatrix in="shadowBlurOuter1" values="0 0 0 0 0.207843137   0 0 0 0 0.235294118   0 0 0 0 0.321568627  0 0 0 0.5 0"/>
        </filter>
        <rect id="calculatrice-illu-k" width="18" height="18" x="26" y="53" rx="2"/>
        <filter id="calculatrice-illu-j" width="177.8%" height="177.8%" x="-38.9%" y="-27.8%" filterUnits="objectBoundingBox">
            <feOffset dy="2" in="SourceAlpha" result="shadowOffsetOuter1"/>
            <feGaussianBlur in="shadowOffsetOuter1" result="shadowBlurOuter1" stdDeviation="2"/>
            <feColorMatrix in="shadowBlurOuter1" values="0 0 0 0 0.207843137   0 0 0 0 0.235294118   0 0 0 0 0.321568627  0 0 0 0.5 0"/>
        </filter>
        <rect id="calculatrice-illu-m" width="18" height="18" x="48" y="53" rx="2"/>
        <filter id="calculatrice-illu-l" width="177.8%" height="177.8%" x="-38.9%" y="-27.8%" filterUnits="objectBoundingBox">
            <feOffset dy="2" in="SourceAlpha" result="shadowOffsetOuter1"/>
            <feGaussianBlur in="shadowOffsetOuter1" result="shadowBlurOuter1" stdDeviation="2"/>
            <feColorMatrix in="shadowBlurOuter1" values="0 0 0 0 0.207843137   0 0 0 0 0.235294118   0 0 0 0 0.321568627  0 0 0 0.5 0"/>
        </filter>
        <rect id="calculatrice-illu-o" width="18" height="18" x="4" y="75" rx="2"/>
        <filter id="calculatrice-illu-n" width="177.8%" height="177.8%" x="-38.9%" y="-27.8%" filterUnits="objectBoundingBox">
            <feOffset dy="2" in="SourceAlpha" result="shadowOffsetOuter1"/>
            <feGaussianBlur in="shadowOffsetOuter1" result="shadowBlurOuter1" stdDeviation="2"/>
            <feColorMatrix in="shadowBlurOuter1" values="0 0 0 0 0.207843137   0 0 0 0 0.235294118   0 0 0 0 0.321568627  0 0 0 0.5 0"/>
        </filter>
        <rect id="calculatrice-illu-q" width="18" height="18" x="26" y="75" rx="2"/>
        <filter id="calculatrice-illu-p" width="177.8%" height="177.8%" x="-38.9%" y="-27.8%" filterUnits="objectBoundingBox">
            <feOffset dy="2" in="SourceAlpha" result="shadowOffsetOuter1"/>
            <feGaussianBlur in="shadowOffsetOuter1" result="shadowBlurOuter1" stdDeviation="2"/>
            <feColorMatrix in="shadowBlurOuter1" values="0 0 0 0 0.207843137   0 0 0 0 0.235294118   0 0 0 0 0.321568627  0 0 0 0.5 0"/>
        </filter>
        <rect id="calculatrice-illu-s" width="18" height="18" x="48" y="75" rx="2"/>
        <filter id="calculatrice-illu-r" width="177.8%" height="177.8%" x="-38.9%" y="-27.8%" filterUnits="objectBoundingBox">
            <feOffset dy="2" in="SourceAlpha" result="shadowOffsetOuter1"/>
            <feGaussianBlur in="shadowOffsetOuter1" result="shadowBlurOuter1" stdDeviation="2"/>
            <feColorMatrix in="shadowBlurOuter1" values="0 0 0 0 0.207843137   0 0 0 0 0.235294118   0 0 0 0 0.321568627  0 0 0 0.5 0"/>
        </filter>
    </defs>
    <g fill="none" fill-rule="evenodd">
        <rect width="70" height="97" fill="url(#calculatrice-illu-a)" rx="2"/>
        <rect width="62" height="23" x="4" y="4" fill="#E0E1E6" rx="2"/>
        <text fill="#353C52" font-family="Asap-Regular, Asap" font-size="16">
            <tspan x="52" y="21">0</tspan>
        </text>
        <use fill="#000" filter="url(#calculatrice-illu-b)" xlink:href="#calculatrice-illu-c"/>
        <use fill="#5C6F84" xlink:href="#calculatrice-illu-c"/>
        <use fill="#000" filter="url(#calculatrice-illu-d)" xlink:href="#calculatrice-illu-e"/>
        <use fill="#5C6F84" xlink:href="#calculatrice-illu-e"/>
        <use fill="#000" filter="url(#calculatrice-illu-f)" xlink:href="#calculatrice-illu-g"/>
        <use fill="#5C6F84" xlink:href="#calculatrice-illu-g"/>
        <use fill="#000" filter="url(#calculatrice-illu-h)" xlink:href="#calculatrice-illu-i"/>
        <use fill="#5C6F84" xlink:href="#calculatrice-illu-i"/>
        <use fill="#000" filter="url(#calculatrice-illu-j)" xlink:href="#calculatrice-illu-k"/>
        <use fill="#5C6F84" xlink:href="#calculatrice-illu-k"/>
        <use fill="#000" filter="url(#calculatrice-illu-l)" xlink:href="#calculatrice-illu-m"/>
        <use fill="#5C6F84" xlink:href="#calculatrice-illu-m"/>
        <g>
            <use fill="#000" filter="url(#calculatrice-illu-n)" xlink:href="#calculatrice-illu-o"/>
            <use fill="#5C6F84" xlink:href="#calculatrice-illu-o"/>
        </g>
        <g>
            <use fill="#000" filter="url(#calculatrice-illu-p)" xlink:href="#calculatrice-illu-q"/>
            <use fill="#C8CBD3" xlink:href="#calculatrice-illu-q"/>
        </g>
        <g>
            <use fill="#000" filter="url(#calculatrice-illu-r)" xlink:href="#calculatrice-illu-s"/>
            <use fill="#3394D2" xlink:href="#calculatrice-illu-s"/>
        </g>
        <rect width="10" height="1" x="52" y="82" fill="#FFF" rx=".5"/>
        <rect width="10" height="1" x="52" y="85" fill="#FFF" rx=".5"/>
    </g>
</svg>

<svg id="arrow-left" width="24" height="24" viewBox="0 0 24 24" fill="none" stroke="currentColor" stroke-width="2" stroke-linecap="round" stroke-linejoin="round" class="feather feather-arrow-left"><line x1="19" y1="12" x2="5" y2="12"></line><polyline points="12 19 5 12 12 5"></polyline></svg>

<svg id="arrow-right" width="24" height="24" viewBox="0 0 24 24" fill="none" stroke="currentColor" stroke-width="2" stroke-linecap="round" stroke-linejoin="round" class="feather feather-arrow-right"><line x1="5" y1="12" x2="19" y2="12"></line><polyline points="12 5 19 12 12 19"></polyline></svg>

<svg id="play-white" viewBox="0 0 48 48"><title>play-white</title><path d="M24,0A24,24,0,1,0,48,24,24,24,0,0,0,24,0ZM17.5,36.5v-25l18,12Z" fill="#fff"/></svg>

<svg id="icon-list" viewBox="0 0 24 24" fill="none" stroke="currentColor" stroke-width="2" stroke-linecap="round" stroke-linejoin="round" class="feather feather-list"><line x1="8" y1="6" x2="21" y2="6"></line><line x1="8" y1="12" x2="21" y2="12"></line><line x1="8" y1="18" x2="21" y2="18"></line><line x1="3" y1="6" x2="3" y2="6"></line><line x1="3" y1="12" x2="3" y2="12"></line><line x1="3" y1="18" x2="3" y2="18"></line></svg>

<svg id="icon-grid" viewBox="0 0 24 24" fill="none" stroke="currentColor" stroke-width="2" stroke-linecap="round" stroke-linejoin="round" class="feather feather-grid"><rect x="3" y="3" width="7" height="7"></rect><rect x="14" y="3" width="7" height="7"></rect><rect x="14" y="14" width="7" height="7"></rect><rect x="3" y="14" width="7" height="7"></rect></svg>

<svg id="logo-red" viewBox="0 0 55 52">
    <defs>
        <path id="monochrom-a" d="M49.9458226,41.504726 C49.7959604,41.2646004 49.6211212,41.0004622 49.5711672,40.7123114 C49.446282,40.0399597 50.0207537,39.4636582 50.3704322,38.9113692 C50.7450876,38.3110551 51.094766,37.7107411 51.4194674,37.110427 C52.0688702,35.8617737 52.6183649,34.5650953 53.0679515,33.2444044 C53.9921016,30.4829596 54.3667571,27.6014521 54.291826,24.695932 C54.2168949,21.5983113 53.6424232,18.4766782 52.4435257,15.5951706 C51.3695134,12.9297761 49.7709834,10.4564821 47.8477521,8.31936405 C46.0743829,6.35033389 43.9513353,4.64544192 41.6284714,3.30073839 C39.1307683,1.85998462 36.408272,0.827444413 33.5858675,0.22713034 C30.5886238,-0.421208859 27.466495,-0.613309362 24.3943202,-0.373183733 C21.2721914,-0.133058104 18.1750396,0.563306221 15.3026811,1.81195949 C12.4552996,3.0366002 9.85768837,4.74149217 7.60975561,6.80657258 C5.36182285,8.89566556 3.51352258,11.3689595 2.16476292,14.0823791 C0.791026232,16.8198113 -0.0332157805,19.7733566 -0.332940149,22.7749269 C-0.632664517,25.7764973 -0.457825302,28.8501053 0.216554526,31.779638 C0.890934355,34.6611456 2.08983183,37.4225903 3.73831585,39.9198969 C5.36182285,42.3691783 7.40993937,44.5062964 9.80773431,46.2592135 C12.1555752,47.9641054 14.8281175,49.2847964 17.6255449,50.1732612 C19.1741208,50.6535125 20.7476738,51.0137009 22.3462037,51.229814 C23.8448256,51.4219145 25.4183785,51.5659899 26.9419774,51.5179647 C28.4156222,51.4699396 29.889267,51.3738894 31.3379348,51.1577763 C32.1371997,51.0377135 32.9364647,50.8936381 33.7357297,50.7015376 C34.4101095,50.5334497 35.1344434,50.4373994 35.3842137,49.7410351 C35.58403,49.1647336 35.2843056,48.7084949 35.0345353,48.2282436 C34.7098339,47.603917 34.3851325,47.0036029 34.0604311,46.3792763 C33.4609824,45.2506858 32.8865107,44.1220954 32.2870619,42.9935049 C32.1122227,42.6813416 31.8624524,42.441216 31.512774,42.3211531 C31.1880726,42.2251029 30.8633712,42.2971406 30.5386698,42.3691783 C30.1640143,42.441216 29.7643818,42.5132537 29.3647493,42.5612788 C27.7412423,42.7773918 26.1177354,42.7773918 24.4942284,42.5852913 C21.4470306,42.2010903 18.499741,41.0244747 16.051992,39.2235325 C13.62922,37.4466029 11.7059886,35.0693591 10.4821141,32.3799521 C9.25823964,29.6425199 8.80865308,26.5929244 9.15833151,23.6393792 C9.50800994,20.7098465 10.6569534,17.9003767 12.4802766,15.5231329 C14.2286687,13.2179269 16.5765096,11.344947 19.2740289,10.1443188 C22.1214104,8.84764043 25.2934933,8.29535148 28.4405992,8.58350224 C31.2879807,8.84764043 34.0354541,9.7120927 36.433249,11.2008716 C38.6062507,12.5455751 40.479528,14.3225048 41.8532647,16.4115978 C43.5017487,18.8848917 44.4508759,21.7423867 44.6257151,24.6719194 C44.7755773,27.2892888 44.3010137,29.9546832 43.2270014,32.3799521 C42.2029431,34.6851581 40.6293902,36.7742511 38.6811818,38.431118 C38.4064345,38.6712436 38.1316871,38.8633441 38.006802,39.2235325 C37.9068938,39.5116833 37.9318709,39.8238466 38.056756,40.1119974 L43.1520703,49.8130728 C43.4018406,50.3173366 43.6516109,51.0617261 44.1761285,51.3498768 C44.550784,51.5659899 45.0253476,51.5179647 45.4499571,51.5179647 L53.2427907,51.5179647 C54.1919178,51.4939522 54.8413206,50.5574622 54.3667571,49.7170225 C53.8672164,48.8285577 53.3926529,47.9400929 52.8931123,47.0276155 L49.9458226,41.504726 Z"/>
    </defs>
    <g fill="none" fill-rule="evenodd" transform="translate(.47 .208)">
        <use fill="#c1185b" xlink:href="#monochrom-a"/>
    </g>
</svg>

<svg id="logo-green" viewBox="0 0 55 52">
    <defs>
        <path id="monochrom-a" d="M49.9458226,41.504726 C49.7959604,41.2646004 49.6211212,41.0004622 49.5711672,40.7123114 C49.446282,40.0399597 50.0207537,39.4636582 50.3704322,38.9113692 C50.7450876,38.3110551 51.094766,37.7107411 51.4194674,37.110427 C52.0688702,35.8617737 52.6183649,34.5650953 53.0679515,33.2444044 C53.9921016,30.4829596 54.3667571,27.6014521 54.291826,24.695932 C54.2168949,21.5983113 53.6424232,18.4766782 52.4435257,15.5951706 C51.3695134,12.9297761 49.7709834,10.4564821 47.8477521,8.31936405 C46.0743829,6.35033389 43.9513353,4.64544192 41.6284714,3.30073839 C39.1307683,1.85998462 36.408272,0.827444413 33.5858675,0.22713034 C30.5886238,-0.421208859 27.466495,-0.613309362 24.3943202,-0.373183733 C21.2721914,-0.133058104 18.1750396,0.563306221 15.3026811,1.81195949 C12.4552996,3.0366002 9.85768837,4.74149217 7.60975561,6.80657258 C5.36182285,8.89566556 3.51352258,11.3689595 2.16476292,14.0823791 C0.791026232,16.8198113 -0.0332157805,19.7733566 -0.332940149,22.7749269 C-0.632664517,25.7764973 -0.457825302,28.8501053 0.216554526,31.779638 C0.890934355,34.6611456 2.08983183,37.4225903 3.73831585,39.9198969 C5.36182285,42.3691783 7.40993937,44.5062964 9.80773431,46.2592135 C12.1555752,47.9641054 14.8281175,49.2847964 17.6255449,50.1732612 C19.1741208,50.6535125 20.7476738,51.0137009 22.3462037,51.229814 C23.8448256,51.4219145 25.4183785,51.5659899 26.9419774,51.5179647 C28.4156222,51.4699396 29.889267,51.3738894 31.3379348,51.1577763 C32.1371997,51.0377135 32.9364647,50.8936381 33.7357297,50.7015376 C34.4101095,50.5334497 35.1344434,50.4373994 35.3842137,49.7410351 C35.58403,49.1647336 35.2843056,48.7084949 35.0345353,48.2282436 C34.7098339,47.603917 34.3851325,47.0036029 34.0604311,46.3792763 C33.4609824,45.2506858 32.8865107,44.1220954 32.2870619,42.9935049 C32.1122227,42.6813416 31.8624524,42.441216 31.512774,42.3211531 C31.1880726,42.2251029 30.8633712,42.2971406 30.5386698,42.3691783 C30.1640143,42.441216 29.7643818,42.5132537 29.3647493,42.5612788 C27.7412423,42.7773918 26.1177354,42.7773918 24.4942284,42.5852913 C21.4470306,42.2010903 18.499741,41.0244747 16.051992,39.2235325 C13.62922,37.4466029 11.7059886,35.0693591 10.4821141,32.3799521 C9.25823964,29.6425199 8.80865308,26.5929244 9.15833151,23.6393792 C9.50800994,20.7098465 10.6569534,17.9003767 12.4802766,15.5231329 C14.2286687,13.2179269 16.5765096,11.344947 19.2740289,10.1443188 C22.1214104,8.84764043 25.2934933,8.29535148 28.4405992,8.58350224 C31.2879807,8.84764043 34.0354541,9.7120927 36.433249,11.2008716 C38.6062507,12.5455751 40.479528,14.3225048 41.8532647,16.4115978 C43.5017487,18.8848917 44.4508759,21.7423867 44.6257151,24.6719194 C44.7755773,27.2892888 44.3010137,29.9546832 43.2270014,32.3799521 C42.2029431,34.6851581 40.6293902,36.7742511 38.6811818,38.431118 C38.4064345,38.6712436 38.1316871,38.8633441 38.006802,39.2235325 C37.9068938,39.5116833 37.9318709,39.8238466 38.056756,40.1119974 L43.1520703,49.8130728 C43.4018406,50.3173366 43.6516109,51.0617261 44.1761285,51.3498768 C44.550784,51.5659899 45.0253476,51.5179647 45.4499571,51.5179647 L53.2427907,51.5179647 C54.1919178,51.4939522 54.8413206,50.5574622 54.3667571,49.7170225 C53.8672164,48.8285577 53.3926529,47.9400929 52.8931123,47.0276155 L49.9458226,41.504726 Z"/>
    </defs>
    <g fill="none" fill-rule="evenodd" transform="translate(.47 .208)">
        <use fill="#4fba4f" xlink:href="#monochrom-a"/>
    </g>
</svg>

<svg id="movie-ticket" width="24" height="24" viewBox="0 0 24 24" fill="none" stroke="currentColor" stroke-width="2" stroke-linecap="round" stroke-linejoin="round" class="feather feather-film"><rect x="2" y="2" width="20" height="20" rx="2.18" ry="2.18"></rect><line x1="7" y1="2" x2="7" y2="22"></line><line x1="17" y1="2" x2="17" y2="22"></line><line x1="2" y1="12" x2="22" y2="12"></line><line x1="2" y1="7" x2="7" y2="7"></line><line x1="2" y1="17" x2="7" y2="17"></line><line x1="17" y1="17" x2="22" y2="17"></line><line x1="17" y1="7" x2="22" y2="7"></line></svg>
<svg id="calendar" viewBox="0 0 24 24" fill="none" stroke="currentColor" stroke-width="2" stroke-linecap="round" stroke-linejoin="round" class="feather feather-calendar"><rect x="3" y="4" width="18" height="18" rx="2" ry="2"></rect><line x1="16" y1="2" x2="16" y2="6"></line><line x1="8" y1="2" x2="8" y2="6"></line><line x1="3" y1="10" x2="21" y2="10"></line></svg>
<svg id="external-link" width="24" height="24" viewBox="0 0 24 24" fill="none" stroke="currentColor" stroke-width="2" stroke-linecap="round" stroke-linejoin="round" class="feather feather-external-link"><path d="M18 13v6a2 2 0 0 1-2 2H5a2 2 0 0 1-2-2V8a2 2 0 0 1 2-2h6"></path><polyline points="15 3 21 3 21 9"></polyline><line x1="10" y1="14" x2="21" y2="3"></line></svg>
<svg id="icon-plus" viewBox="0 0 24 24" fill="none" stroke="currentColor" stroke-width="2" stroke-linecap="round" stroke-linejoin="round" class="feather feather-plus"><line x1="12" y1="5" x2="12" y2="19"></line><line x1="5" y1="12" x2="19" y2="12"></line></svg>
<svg id="icon-chevrons-left" width="24" height="24" viewBox="0 0 24 24" fill="none" stroke="currentColor" stroke-width="2" stroke-linecap="round" stroke-linejoin="round" class="feather feather-chevrons-left"><polyline points="11 17 6 12 11 7"></polyline><polyline points="18 17 13 12 18 7"></polyline></svg>
<svg id="icon-chevrons-right" width="24" height="24" viewBox="0 0 24 24" fill="none" stroke="currentColor" stroke-width="2" stroke-linecap="round" stroke-linejoin="round" class="feather feather-chevrons-right"><polyline points="13 17 18 12 13 7"></polyline><polyline points="6 17 11 12 6 7"></polyline></svg>
<svg id="logo-2" fill="currentColor" stroke="none" viewBox="0 0 24 22.69091"><path id="monochrom-a" d="M22.00144,18.972a1.01719,1.01719,0,0,1-.16349-.34578c-.0545-.29339.19618-.54487.34877-.78587q.24523-.39293.45776-.78587a12.133,12.133,0,0,0,.71934-1.687,10.82857,10.82857,0,0,0,.53405-3.73024A11.054,11.054,0,0,0,23.09135,7.666a10.85287,10.85287,0,0,0-2.00543-3.1749A11.24748,11.24748,0,0,0,18.372,2.30115,12.04143,12.04143,0,0,0,14.86255.95994,13.9166,13.9166,0,0,0,10.85169.698a12.32547,12.32547,0,0,0-3.96726.95352A11.94918,11.94918,0,0,0,3.52752,3.831a11.0699,11.0699,0,0,0-2.376,3.1749A10.85588,10.85588,0,0,0,.06161,10.799a12.20059,12.20059,0,0,0,.23978,3.92933,11.01872,11.01872,0,0,0,1.53677,3.55211,10.84884,10.84884,0,0,0,2.64847,2.76625A12.01427,12.01427,0,0,0,7.898,22.75461a12.69069,12.69069,0,0,0,2.05992.461,12.80573,12.80573,0,0,0,2.00543.12574,16.70139,16.70139,0,0,0,1.91824-.15717c.34877-.05239.69754-.11526,1.04631-.19909.29428-.07335.61035-.11526.71934-.41913a.80046.80046,0,0,0-.15259-.66013c-.14169-.27243-.28338-.53439-.42506-.80682-.26158-.49248-.51226-.985-.77383-1.47743a.61026.61026,0,0,0-.33787-.29339.83781.83781,0,0,0-.42506.021c-.16349.03143-.33787.06287-.51226.08383a8.4863,8.4863,0,0,1-2.12532.01048A7.935,7.935,0,0,1,7.2114,17.97655a7.64368,7.64368,0,0,1-2.43049-2.98629,7.21794,7.21794,0,0,1,.87193-7.3557A7.62433,7.62433,0,0,1,8.61738,5.28744a8.04374,8.04374,0,0,1,7.48766.461,7.62852,7.62852,0,0,1,2.3651,2.27377,7.24975,7.24975,0,0,1,.59945,6.968A7.47664,7.47664,0,0,1,17.086,17.63077a.83616.83616,0,0,0-.29428.34578.5315.5315,0,0,0,.0218.38769l2.22341,4.2332c.109.22.218.54487.44686.67061a1.10549,1.10549,0,0,0,.55585.07335h3.40051a.53379.53379,0,0,0,.49046-.78587c-.218-.38769-.42506-.77539-.643-1.17356Z"  transform="translate(0 -0.65455)" /></svg>
<svg id="icon-music" width="16" height="16" viewBox="0 0 24 24" fill="none" stroke="currentColor" stroke-width="2" stroke-linecap="round" stroke-linejoin="round" class="feather feather-music"><path d="M9 17H5a2 2 0 0 0-2 2 2 2 0 0 0 2 2h2a2 2 0 0 0 2-2zm12-2h-4a2 2 0 0 0-2 2 2 2 0 0 0 2 2h2a2 2 0 0 0 2-2z"></path><polyline points="9 17 9 5 21 3 21 15"></polyline></svg>
<svg id="chevrons-right" width="24" height="24" viewBox="0 0 24 24" fill="none" stroke="currentColor" stroke-width="2" stroke-linecap="round" stroke-linejoin="round" class="feather feather-chevrons-right"><polyline points="13 17 18 12 13 7"></polyline><polyline points="6 17 11 12 6 7"></polyline></svg>
<svg id="plus" width="24" height="24" viewBox="0 0 24 24" fill="none" stroke="currentColor" stroke-width="2" stroke-linecap="round" stroke-linejoin="round" class="feather feather-plus"><line x1="12" y1="5" x2="12" y2="19"></line><line x1="5" y1="12" x2="19" y2="12"></line></svg>
<svg id="minus" height="24" viewBox="0 0 24 24" fill="none" stroke="currentColor" stroke-width="2" stroke-linecap="round" stroke-linejoin="round" class="feather feather-minus"><line x1="5" y1="12" x2="19" y2="12"></line></svg>
<svg id="maximize" width="24" height="24" viewBox="0 0 24 24" fill="none" stroke="currentColor" stroke-width="2" stroke-linecap="round" stroke-linejoin="round" class="feather feather-maximize-2"><polyline points="15 3 21 3 21 9"></polyline><polyline points="9 21 3 21 3 15"></polyline><line x1="21" y1="3" x2="14" y2="10"></line><line x1="3" y1="21" x2="10" y2="14"></line></svg>
<svg id="minimize" height="24" viewBox="0 0 24 24" fill="none" stroke="currentColor" stroke-width="2" stroke-linecap="round" stroke-linejoin="round" class="feather feather-minimize-2"><polyline points="4 14 10 14 10 20"></polyline><polyline points="20 10 14 10 14 4"></polyline><line x1="14" y1="10" x2="21" y2="3"></line><line x1="3" y1="21" x2="10" y2="14"></line></svg>
<svg id="compass" width="24" height="24" viewBox="0 0 24 24" fill="none" stroke="currentColor" stroke-width="2" stroke-linecap="round" stroke-linejoin="round" class="feather feather-compass"><circle cx="12" cy="12" r="10"></circle><polygon points="16.24 7.76 14.12 14.12 7.76 16.24 9.88 9.88 16.24 7.76"></polygon></svg>
<svg id="help-circle2" x="0px" y="0px" viewBox="0 0 16 16" style="enable-background:new 0 0 16 16;" fill="currentColor" stroke="currentColor">

    <g>
        <g>
            <path id="help-circle-a_1_" class="st0" d="M10.6,6.6C10.6,8,8.9,9.1,8,9.1C7.6,9.1,7.2,9,7.2,8.6c0-0.4,0.2-0.6,0.8-0.7
                c0.7-0.2,1.4-0.8,1.4-1.3c0-0.5-0.3-1-0.8-1.2C8,5.2,7.1,5.5,6.8,6.1C6.5,6.4,6.1,6.6,5.8,6.5C5.5,6.4,5.3,5.9,5.6,5.6
                c0.7-1,1.9-1.5,3-1.3C9.9,4.6,10.6,5.6,10.6,6.6z M15,8c0,3.9-3.1,7-7,7s-7-3.1-7-7s3.1-7,7-7S15,4.1,15,8z M14,8c0-3.3-2.7-6-6-6
                S2,4.7,2,8s2.7,6,6,6S14,11.3,14,8z M8,12c0.6,0,1-0.4,1-1s-0.4-1-1-1s-1,0.4-1,1S7.4,12,8,12z"/>
        </g>
    </g>
</svg>
<svg id="alert-circle" width="24" height="24" viewBox="0 0 24 24" fill="none" stroke="currentColor" stroke-width="2" stroke-linecap="round" stroke-linejoin="round" class="feather feather-alert-circle"><circle cx="12" cy="12" r="10"></circle><line x1="12" y1="8" x2="12" y2="12"></line><line x1="12" y1="16" x2="12" y2="16"></line></svg>
<svg id="icon-music" width="24" height="24" viewBox="0 0 24 24" fill="none" stroke="currentColor" stroke-width="2" stroke-linecap="round" stroke-linejoin="round" class="feather feather-music"><path d="M9 17H5a2 2 0 0 0-2 2 2 2 0 0 0 2 2h2a2 2 0 0 0 2-2zm12-2h-4a2 2 0 0 0-2 2 2 2 0 0 0 2 2h2a2 2 0 0 0 2-2z"></path><polyline points="9 17 9 5 21 3 21 15"></polyline></svg>
<svg id="more-vertical" width="24" height="24" viewBox="0 0 24 24" fill="none" stroke="currentColor" stroke-width="2" stroke-linecap="round" stroke-linejoin="round" class="feather feather-more-vertical"><circle cx="12" cy="12" r="1"></circle><circle cx="12" cy="5" r="1"></circle><circle cx="12" cy="19" r="1"></circle></svg>
<svg id="icon-phone" viewBox="0 0 24 24" fill="none" stroke="currentColor" stroke-width="2" stroke-linecap="round" stroke-linejoin="round" class="feather feather-phone"><path d="M22 16.92v3a2 2 0 0 1-2.18 2 19.79 19.79 0 0 1-8.63-3.07 19.5 19.5 0 0 1-6-6 19.79 19.79 0 0 1-3.07-8.67A2 2 0 0 1 4.11 2h3a2 2 0 0 1 2 1.72 12.84 12.84 0 0 0 .7 2.81 2 2 0 0 1-.45 2.11L8.09 9.91a16 16 0 0 0 6 6l1.27-1.27a2 2 0 0 1 2.11-.45 12.84 12.84 0 0 0 2.81.7A2 2 0 0 1 22 16.92z"></path></svg>
<svg id="icon-navigation" viewBox="0 0 24 24" fill="none" stroke="currentColor" stroke-width="2" stroke-linecap="round" stroke-linejoin="round" class="feather feather-navigation"><polygon points="3 11 22 2 13 21 11 13 3 11"></polygon></svg>
<svg id="icon-external-link" viewBox="0 0 24 24" fill="none" stroke="currentColor" stroke-width="2" stroke-linecap="round" stroke-linejoin="round" class="feather feather-external-link"><path d="M18 13v6a2 2 0 0 1-2 2H5a2 2 0 0 1-2-2V8a2 2 0 0 1 2-2h6"></path><polyline points="15 3 21 3 21 9"></polyline><line x1="10" y1="14" x2="21" y2="3"></line></svg>
<svg id="icon-chevron-up" viewBox="0 0 24 24" fill="none" stroke="currentColor" stroke-width="2" stroke-linecap="round" stroke-linejoin="round" class="feather feather-chevron-up"><polyline points="18 15 12 9 6 15"></polyline></svg>
<svg id="icon-chevron-down"  viewBox="0 0 24 24" fill="none" stroke="currentColor" stroke-width="2" stroke-linecap="round" stroke-linejoin="round" class="feather feather-chevron-down"><polyline points="6 9 12 15 18 9"></polyline></svg>
<svg id="junior" width="16" height="16" viewBox="0 0 24 24" fill="none" stroke="currentColor">
    <defs>
        <path id="junior-a" d="M12,1 C5.9,1 1,5.9 1,12 C1,18.1 5.9,23 12,23 C18.1,23 23,18.1 23,12 C23,5.9 18.1,1 12,1 Z M12,21.4 C6.8,21.4 2.6,17.2 2.6,12 C2.6,10.3 3,8.8 3.8,7.4 L5.5,7.8 C6.1,8 6.7,7.7 7.1,7.2 L7.9,6.1 C8.4,5.4 9.4,5.3 10.1,5.8 L11,6.5 C11.6,6.9 12.3,6.9 12.9,6.5 L13.8,5.8 C14.5,5.3 15.5,5.4 16,6.1 L16.8,7.2 C17.2,7.7 17.8,7.9 18.4,7.8 L20.1,7.4 C20.9,8.8 21.3,10.3 21.3,12 C21.4,17.2 17.2,21.4 12,21.4 Z M15.3,15.5 C14,17.2 10,17.2 8.7,15.5 C8.4,15.2 7.9,15.1 7.6,15.3 C7.3,15.6 7.2,16.1 7.4,16.4 C9.3,18.9 14.6,18.9 16.5,16.4 C16.8,16.1 16.7,15.6 16.3,15.3 C16.1,15 15.6,15.1 15.3,15.5 Z M9.9,12.4 C10.2,12.7 10.7,12.7 11,12.4 C11.3,12.1 11.3,11.6 11,11.3 C9.9,10.2 7.8,10.2 6.7,11.3 C6.4,11.6 6.4,12.1 6.7,12.4 C7,12.7 7.5,12.7 7.8,12.4 C8.3,11.9 9.4,11.9 9.9,12.4 Z M13,11.2 C12.7,11.5 12.7,12 13,12.3 C13.3,12.6 13.8,12.6 14.1,12.3 C14.6,11.8 15.7,11.8 16.1,12.3 C16.4,12.6 16.9,12.6 17.2,12.3 C17.5,12 17.5,11.5 17.2,11.2 C16.2,10.2 14.1,10.2 13,11.2 Z"/>
    </defs>
    <g fill="none" fill-rule="evenodd">
        <mask id="junior-b" fill="#fff">
            <use xlink:href="#junior-a"/>
        </mask>
        <use fill="currentColor" fill-rule="nonzero" xlink:href="#junior-a"/>
    </g>
</svg>
<svg id="icon-flag" viewBox="0 0 24 24" fill="none" stroke="currentColor" stroke-width="2" stroke-linecap="round" stroke-linejoin="round" class="feather feather-flag"><path d="M4 15s1-1 4-1 5 2 8 2 4-1 4-1V3s-1 1-4 1-5-2-8-2-4 1-4 1z"></path><line x1="4" y1="22" x2="4" y2="15"></line></svg>
<svg id="icon-logout" viewBox="0 0 24 24" fill="none" stroke="currentColor" stroke-width="2" stroke-linecap="round" stroke-linejoin="round" class="feather feather-log-out"><path d="M9 21H5a2 2 0 0 1-2-2V5a2 2 0 0 1 2-2h4"></path><polyline points="16 17 21 12 16 7"></polyline><line x1="21" y1="12" x2="9" y2="12"></line></svg>
<svg id="icon-login" viewBox="0 0 24 24" fill="none" stroke="currentColor" stroke-width="2" stroke-linecap="round" stroke-linejoin="round" class="feather feather-log-in"><path d="M15 3h4a2 2 0 0 1 2 2v14a2 2 0 0 1-2 2h-4"></path><polyline points="10 17 15 12 10 7"></polyline><line x1="15" y1="12" x2="3" y2="12"></line></svg>


<!-- Local -->
<svg id="icon-pin-map" viewBox="0 0 35 42">
	<defs>
		<path id="pin-map-o-a" d="M28.1661667,4.85405475 C21.723118,-1.61801825 11.276882,-1.61801825 4.83383332,4.85405475 C-1.61127777,11.3240567 -1.61127777,21.8139926 4.83383332,28.2839946 L16.4989688,40 L28.1661667,28.2839946 C34.6112778,21.8139926 34.6112778,11.3240567 28.1661667,4.85405475"/>
	</defs>
	<g fill="none" fill-rule="evenodd" transform="translate(1 1)">
		<use fill="#FF3B4A" stroke="#FFF" xlink:href="#pin-map-o-a"/>
		<circle cx="16.5" cy="16.5" r="8.5" fill="#FFF"/>
	</g>
</svg>
<svg id="icon-pin-bar" viewBox="0 0 35 42">
	<defs>
		<path id="pin-bar-a" d="M29.1661667,5.85405475 C22.723118,-0.618018251 12.276882,-0.618018251 5.83383332,5.85405475 C-0.611277773,12.3240567 -0.611277773,22.8139926 5.83383332,29.2839946 L17.4989688,41 L29.1661667,29.2839946 C35.6112778,22.8139926 35.6112778,12.3240567 29.1661667,5.85405475"/>
	</defs>
	<g fill="none" fill-rule="evenodd">
		<mask id="pin-bar-b" fill="#fff">
			<use xlink:href="#pin-bar-a"/>
		</mask>
		<use fill="#FF3B4A" stroke="#FFF" xlink:href="#pin-bar-a"/>
		<path fill="#FFF" fill-rule="nonzero" d="M17.5,11 C15.2046442,11 9.46625455,11.2884615 10.0400935,11.8653846 L16.926161,19.0769231 L16.926161,23.6923077 C16.926161,24.8461538 13.4831273,24.2692308 13.4831273,26 L21.5168727,26 C21.5168727,24.2692308 18.073839,24.8461538 18.073839,23.6923077 L18.073839,19.0769231 L24.9599065,11.8653846 C25.5337455,11.2884615 19.7953558,11 17.5,11 Z M17.5,12.1538462 C20.3691948,12.1538462 22.9514701,12.4423077 22.9514701,12.4423077 L22.0907117,13.3076923 L12.9092883,13.3076923 L12.0485299,12.4423077 C12.0485299,12.4423077 14.6308052,12.1538462 17.5,12.1538462 Z" mask="url(#pin-bar-b)"/>
	</g>
</svg>
<svg id="icon-pin-service" viewBox="0 0 35 42">
	<defs>
		<path id="pin-service-a" d="M28.1661667,4.86289206 C21.723118,-1.62096402 11.276882,-1.62096402 4.83383332,4.86289206 C-1.61127777,11.3446733 -1.61127777,21.8537073 4.83383332,28.3354885 L16.4989688,40.0728241 L28.1661667,28.3354885 C34.6112778,21.8537073 34.6112778,11.3446733 28.1661667,4.86289206"/>
	</defs>
	<g fill="none" fill-rule="evenodd" transform="translate(1 1)">
		<mask id="pin-service-b" fill="#fff">
			<use xlink:href="#pin-service-a"/>
		</mask>
		<use fill="#FF3B4A" stroke="#FFF" xlink:href="#pin-service-a"/>
		<path fill="#FFF" fill-rule="nonzero" d="M21.0769231,11.9230769 L21.0769231,9.30769231 C21.0769231,8 19.7692308,8 19.7692308,8 L13.2957615,8 C13.2957615,8 11.8522,8.00196154 11.9230769,9.30769231 L11.9230769,11.9230769 L9.30769231,11.9230769 C9.30769231,11.9230769 8,11.9230769 8,13.2307692 L8,22.3846154 C8,23.6923077 9.30769231,23.6923077 9.30769231,23.6923077 L23.6923077,23.6923077 C23.6923077,23.6923077 25,23.6923077 25,22.3846154 L25,13.2307692 C25,11.9230769 23.6923077,11.9230769 23.6923077,11.9230769 L21.0769231,11.9230769 Z M13.8846154,9.96153846 L19.1153846,9.96153846 L19.1153846,11.9230769 L13.8846154,11.9230769 L13.8846154,9.96153846 Z" mask="url(#pin-service-b)"/>
	</g>
</svg>
<svg id="icon-pin-resto" viewBox="0 0 35 42">
	<defs>
		<path id="pin-resto-a" d="M28.1661667,4.86289206 C21.723118,-1.62096402 11.276882,-1.62096402 4.83383332,4.86289206 C-1.61127777,11.3446733 -1.61127777,21.8537073 4.83383332,28.3354885 L16.4989688,40.0728241 L28.1661667,28.3354885 C34.6112778,21.8537073 34.6112778,11.3446733 28.1661667,4.86289206"/>
	</defs>
	<g fill="none" fill-rule="evenodd" transform="translate(1 1)">
		<mask id="pin-resto-b" fill="#fff">
			<use xlink:href="#pin-resto-a"/>
		</mask>
		<use fill="#FF3B4A" stroke="#FFF" xlink:href="#pin-resto-a"/>
		<path fill="#FFF" fill-rule="nonzero" d="M12.1423281,8 L11.0089947,14.2333333 C10.8430747,15.1456667 13.0280281,15.5718 12.9923281,16.5 L12.7089947,23.8666667 C12.6654747,24.9992067 13.8423281,25 13.8423281,25 C13.8423281,25 15.0191814,24.9992067 14.9756614,23.8666667 L14.6923281,16.5 C14.6567414,15.5733867 16.6568481,15.16176 16.6756614,14.2333333 L15.5423281,8 L14.9756614,8 L15.2589947,12.5333333 L14.4089947,13.1 L14.1256614,8 L13.5589947,8 L13.2756614,13.1 L12.4256614,12.5333333 L12.7089947,8 L12.1423281,8 Z M21.7756614,8 C20.9410747,8 19.5495681,8.74222 18.9932147,9.85492667 C18.5295681,10.6895133 18.3756614,12.55396 18.3756614,13.6666667 L18.3756614,16.5 C18.3756614,17.4272933 19.6120147,17.6333333 20.0756614,17.6333333 L19.5089947,23.8666667 C19.4064281,24.9953533 20.6423281,25 20.6423281,25 C20.6423281,25 21.7756614,25 21.7756614,23.8666667 L21.7756614,8 Z" mask="url(#pin-resto-b)"/>
	</g>
</svg>
<svg id="icon-pin-sante" viewBox="0 0 35 42">
	<defs>
		<path id="pin-sante-a" d="M28.1661667,4.86289206 C21.723118,-1.62096402 11.276882,-1.62096402 4.83383332,4.86289206 C-1.61127777,11.3446733 -1.61127777,21.8537073 4.83383332,28.3354885 L16.4989688,40.0728241 L28.1661667,28.3354885 C34.6112778,21.8537073 34.6112778,11.3446733 28.1661667,4.86289206"/>
	</defs>
	<g fill="none" fill-rule="evenodd" transform="translate(1 1)">
		<mask id="pin-sante-b" fill="#fff">
			<use xlink:href="#pin-sante-a"/>
		</mask>
		<use fill="#FF3B4A" stroke="#FFF" xlink:href="#pin-sante-a"/>
		<path fill="#FFF" fill-rule="nonzero" d="M15.8461538,8 C15.0615385,8 14.5384615,8.52307692 14.5384615,9.30769231 L14.5384615,14.5384615 L9.30769231,14.5384615 C8.52307692,14.5384615 8,15.0615385 8,15.8461538 L8,17.1538462 C8,17.9384615 8.52307692,18.4615385 9.30769231,18.4615385 L14.5384615,18.4615385 L14.5384615,23.6923077 C14.5384615,24.4769231 15.0615385,25 15.8461538,25 L17.1538462,25 C17.9384615,25 18.4615385,24.4769231 18.4615385,23.6923077 L18.4615385,18.4615385 L23.6923077,18.4615385 C24.4769231,18.4615385 25,17.9384615 25,17.1538462 L25,15.8461538 C25,15.0615385 24.4769231,14.5384615 23.6923077,14.5384615 L18.4615385,14.5384615 L18.4615385,9.30769231 C18.4615385,8.52307692 17.9384615,8 17.1538462,8 L15.8461538,8 Z" mask="url(#pin-sante-b)"/>
	</g>
</svg>
<svg id="icon-pin-building" viewBox="0 0 35 42">
	<defs>
		<path id="pin-building-a" d="M28.1661667,4.86289206 C21.723118,-1.62096402 11.276882,-1.62096402 4.83383332,4.86289206 C-1.61127777,11.3446733 -1.61127777,21.8537073 4.83383332,28.3354885 L16.4989688,40.0728241 L28.1661667,28.3354885 C34.6112778,21.8537073 34.6112778,11.3446733 28.1661667,4.86289206"/>
	</defs>
	<g fill="none" fill-rule="evenodd" transform="translate(1 1)">
		<mask id="pin-building-b" fill="#fff">
			<use xlink:href="#pin-building-a"/>
		</mask>
		<use fill="#FF3B4A" stroke="#FFF" xlink:href="#pin-building-a"/>
		<path fill="#FFF" fill-rule="nonzero" d="M9.5,8 L9.5,25 L17.2777778,25 L17.2777778,20.3636364 L21.9444444,20.3636364 L21.9444444,25 L23.5,25 L23.5,8 L9.5,8 Z M15.7222222,23.4545455 L11.0555556,23.4545455 L11.0555556,20.3636364 L15.7222222,20.3636364 L15.7222222,23.4545455 Z M15.7222222,18.8181818 L11.0555556,18.8181818 L11.0555556,15.7272727 L15.7222222,15.7272727 L15.7222222,18.8181818 Z M15.7222222,14.1818182 L11.0555556,14.1818182 L11.0555556,11.0909091 L15.7222222,11.0909091 L15.7222222,14.1818182 Z M21.9444444,18.8181818 L17.2777778,18.8181818 L17.2777778,15.7272727 L21.9444444,15.7272727 L21.9444444,18.8181818 Z M21.9444444,14.1818182 L17.2777778,14.1818182 L17.2777778,11.0909091 L21.9444444,11.0909091 L21.9444444,14.1818182 Z" mask="url(#pin-building-b)"/>
	</g>
</svg>
<svg id="icon-pin-musee" viewBox="0 0 35 42">
	<defs>
		<path id="pin-musee-a" d="M28.1661667,4.86289206 C21.723118,-1.62096402 11.276882,-1.62096402 4.83383332,4.86289206 C-1.61127777,11.3446733 -1.61127777,21.8537073 4.83383332,28.3354885 L16.4989688,40.0728241 L28.1661667,28.3354885 C34.6112778,21.8537073 34.6112778,11.3446733 28.1661667,4.86289206"/>
	</defs>
	<g fill="none" fill-rule="evenodd" transform="translate(1 1)">
		<mask id="pin-musee-b" fill="#fff">
			<use xlink:href="#pin-musee-a"/>
		</mask>
		<use fill="#FF3B4A" stroke="#FFF" xlink:href="#pin-musee-a"/>
		<path fill="#FFF" fill-rule="nonzero" d="M16.5,8 L8,12.5053923 L8,13.2307692 L25,13.2307692 L25,12.5053923 L16.5,8 Z M9.30769231,14.5384615 L9.30769231,21.0769231 L8,23.1099923 L8,25 L25,25 L25,23.1099923 L23.6923077,21.0769231 L23.6923077,14.5384615 L9.30769231,14.5384615 Z M12.7275692,15.8461538 C12.9485692,15.8431462 13.1614615,15.9297154 13.3176,16.0862462 L16.5,19.2686462 L19.6824,16.0862462 C20.0021308,15.7675615 20.5195846,15.7682154 20.8384,16.0879462 C20.9907462,16.2406846 21.0765308,16.4476923 21.0769231,16.6634615 L21.0769231,22.2109538 C21.0833308,22.6623692 20.7225385,23.0334923 20.2711231,23.0397692 C19.8197077,23.0461769 19.4485846,22.6853846 19.4423077,22.2339692 C19.4421769,22.2262538 19.4421769,22.2185385 19.4423077,22.2108231 L19.4423077,18.6352 L17.0772154,21.0002923 C16.7581385,21.3184538 16.2418615,21.3184538 15.9227846,21.0002923 L13.5576923,18.6352 L13.5576923,22.2109538 C13.5641,22.6623692 13.2033077,23.0334923 12.7518923,23.0397692 C12.3006077,23.0461769 11.9294846,22.6855154 11.9230769,22.2341 C11.9229462,22.2263846 11.9229462,22.2186692 11.9230769,22.2109538 L11.9230769,16.6634615 C11.9230769,16.2170154 12.2812538,15.8532154 12.7275692,15.8461538 Z" mask="url(#pin-musee-b)"/>
	</g>
</svg>
<svg id="icon-pin-cinema" viewBox="0 0 35 42">
	<g fill="none" fill-rule="evenodd" transform="translate(1 1)">
		<path fill="#FF3B4A" stroke="#FFF" d="M28.1661667,4.86289206 C21.723118,-1.62096402 11.276882,-1.62096402 4.83383332,4.86289206 C-1.61127777,11.3446733 -1.61127777,21.8537073 4.83383332,28.3354885 L16.4989688,40.0728241 L28.1661667,28.3354885 C34.6112778,21.8537073 34.6112778,11.3446733 28.1661667,4.86289206"/>
		<path fill="#FFF" fill-rule="nonzero" d="M25,16.7916667 L25,19.625 C25,20.0161417 24.6828083,20.3333333 24.2916667,20.3333333 C23.900525,20.3333333 23.5833333,20.0161417 23.5833333,19.625 C23.5833333,19.625 23.6683333,18.9166667 22.1666667,18.9166667 L20.75,18.9166667 L20.75,22.4583333 C20.75,22.849475 20.4328083,23.1666667 20.0416667,23.1666667 L8.70833333,23.1666667 C8.31719167,23.1666667 8,22.849475 8,22.4583333 L8,16.7916667 C8,16.400525 8.31719167,16.0833333 8.70833333,16.0833333 L20.0416667,16.0833333 C20.4328083,16.0833333 20.75,16.400525 20.75,16.7916667 L20.75,17.5 L22.1666667,17.5 C23.6683333,17.5 23.5833333,16.7916667 23.5833333,16.7916667 C23.5833333,16.400525 23.900525,16.0833333 24.2916667,16.0833333 C24.6828083,16.0833333 25,16.400525 25,16.7916667 Z M10.8333333,10.4166667 C9.26848333,10.4166667 8,11.68515 8,13.25 C8,14.81485 9.26848333,16.0833333 10.8333333,16.0833333 C12.3981833,16.0833333 13.6666667,14.81485 13.6666667,13.25 C13.6666667,11.68515 12.3981833,10.4166667 10.8333333,10.4166667 Z M10.8333333,14.6666667 C10.0509083,14.6666667 9.41666667,14.032425 9.41666667,13.25 C9.41666667,12.467575 10.0509083,11.8333333 10.8333333,11.8333333 C11.6157583,11.8333333 12.25,12.467575 12.25,13.25 C12.25,14.032425 11.6157583,14.6666667 10.8333333,14.6666667 Z M17.2083333,9 C15.2523417,9 13.6666667,10.585675 13.6666667,12.5416667 C13.6666667,14.4976583 15.2523417,16.0833333 17.2083333,16.0833333 C19.164325,16.0833333 20.75,14.4976583 20.75,12.5416667 C20.75,10.585675 19.164325,9 17.2083333,9 Z M17.2083333,14.6666667 C16.0347667,14.6666667 15.0833333,13.7152333 15.0833333,12.5416667 C15.0833333,11.3681 16.0347667,10.4166667 17.2083333,10.4166667 C18.3819,10.4166667 19.3333333,11.3681 19.3333333,12.5416667 C19.3333333,13.7152333 18.3819,14.6666667 17.2083333,14.6666667 Z"/>
	</g>
</svg>
<svg id="icon-pin-education" viewBox="0 0 35 42">
	<g fill="none" fill-rule="evenodd" transform="translate(1 1)">
		<path fill="#FF3B4A" stroke="#FFF" d="M28.1661667,4.86289206 C21.723118,-1.62096402 11.276882,-1.62096402 4.83383332,4.86289206 C-1.61127777,11.3446733 -1.61127777,21.8537073 4.83383332,28.3354885 L16.4989688,40.0728241 L28.1661667,28.3354885 C34.6112778,21.8537073 34.6112778,11.3446733 28.1661667,4.86289206"/>
		<path fill="#FFF" fill-rule="nonzero" d="M16.5,9 L8,12.9666667 L10.2666667,13.9866667 L10.2666667,15.9133333 C9.58666667,16.14 9.13333333,16.82 9.13333333,17.5 C9.13333333,18.18 9.58666667,18.86 10.2666667,19.0866667 L10.2666667,19.2 L9.24666667,21.58 C8.90666667,22.6 9.13333333,23.7333333 10.8333333,23.7333333 C12.5333333,23.7333333 12.76,22.6 12.42,21.58 L11.4,19.2 C12.08,18.86 12.5333333,18.2933333 12.5333333,17.5 C12.5333333,16.7066667 12.08,16.14 11.4,15.9133333 L11.4,14.5533333 L16.5,16.9333333 L25,12.9666667 L16.5,9 Z M21.4866667,16.3666667 L16.3866667,18.6333333 L13.6666667,17.3866667 L13.6666667,17.5 C13.6666667,18.2933333 13.3266667,18.9733333 12.76,19.54 L13.44,21.1266667 L13.44,21.24 C13.5533333,21.6933333 13.6666667,22.1466667 13.5533333,22.6 C14.3466667,22.94 15.2533333,23.1666667 16.3866667,23.1666667 C20.1266667,23.1666667 21.4866667,20.9 21.4866667,19.7666667 L21.4866667,16.3666667 Z"/>
	</g>
</svg>

<!-- Maki -->
<svg version="1.1" id="icon-bar" viewBox="0 0 15 15">
<path id="path4" d="M7.5,1c-2,0-7,0.25-6.5,0.75L7,8v4c0,1-3,0.5-3,2h7c0-1.5-3-1-3-2V8l6-6.25C14.5,1.25,9.5,1,7.5,1z M7.5,2c2.5,0,4.75,0.25,4.75,0.25L11.5,3h-8L2.75,2.25C2.75,2.25,5,2,7.5,2z"/>
</svg>
<svg version="1.1" id="icon-restaurant" viewBox="0 0 15 15">
	<path id="path11774" d="M3.5,0l-1,5.5c-0.1464,0.805,1.7815,1.181,1.75,2L4,14c-0.0384,0.9993,1,1,1,1s1.0384-0.0007,1-1L5.75,7.5c-0.0314-0.8176,1.7334-1.1808,1.75-2L6.5,0H6l0.25,4L5.5,4.5L5.25,0h-0.5L4.5,4.5L3.75,4L4,0H3.5z M12,0c-0.7364,0-1.9642,0.6549-2.4551,1.6367C9.1358,2.3731,9,4.0182,9,5v2.5c0,0.8182,1.0909,1,1.5,1L10,14c-0.0905,0.9959,1,1,1,1s1,0,1-1V0z"/>
</svg>
<svg version="1.1" id="icon-building" viewBox="0 0 15 15">
	<path d="M3,2v11h5v-3h3v3h1V2H3z M7,12H4v-2h3V12z M7,9H4V7h3V9z M7,6H4V4h3V6z M11,9H8V7h3V9z M11,6H8V4h3V6z"/>
</svg>
</svg>
