<svg xmlns="http://www.w3.org/2000/svg" xmlns:xlink="http://www.w3.org/1999/xlink">

<!-- Cloudy with sun-->
<svg id="icon-weather-02" width="32" height="32" viewBox="0 0 32 32">
    <g fill="none" transform="translate(0 1.778)">
        <path fill="#FFD330" d="M12.7320376 4.29875269C12.4020222 4.29861692 12.1345256 4.02968215 12.1343906 3.69789247L12.1343906.600860215C12.1343906.269014281 12.4019663 6.09591091e-17 12.7320376 0 13.062109-6.09591091e-17 13.3296847.269014281 13.3296847.600860215L13.3296847 3.69789247C13.3295497 4.02968215 13.0620531 4.29861692 12.7320376 4.29875269M7.89853176 5.69227527C7.69211409 5.69263919 7.50020225 5.58560738 7.39123765 5.40935054L5.75923765 2.78354409C5.58637986 2.50224905 5.67206227 2.13340099 5.95096732 1.95818069 6.22987238 1.7829604 6.59718045 1.86722013 6.77288471 2.14672688L8.40488471 4.77253333C8.51972597 4.95778629 8.52573814 5.19104818 8.42059414 5.38203225 8.31545015 5.57301631 8.11565117 5.69174971 7.89853176 5.69227527M4.53288471 9.4495914C4.44214507 9.44941707 4.35264723 9.42837881 4.27123765 9.38808602L1.50323765 8.0311828C1.20748662 7.88520459 1.0850809 7.52608498 1.22961559 7.22841763 1.37415028 6.93075028 1.73107436 6.8068823 2.02747294 6.95152688L4.79547294 8.30843011C5.04546132 8.43133117 5.17806855 8.71137327 5.1153477 8.9839468 5.05262686 9.25652033 4.81116109 9.44955788 4.53288471 9.4495914M.597261176 14.7520172C.279425129 14.7516261.0174449267 14.501294.000910758143 14.1821816-.0156234104 13.8630692.219068149 13.5867256.535143529 13.5531355L3.59773176 13.2295226C3.92497577 13.1965735 4.21720538 13.4356356 4.25164769 13.7644665 4.28609 14.0932975 4.04980072 14.3883143 3.72290824 14.4246194L.66032 14.7482323C.63940536 14.7508792.618340502 14.7521436.597261176 14.7520172M17.5655435 5.69227527C17.3484241 5.69174971 17.1486251 5.57301631 17.0434811 5.38203225 16.9383372 5.19104818 16.9443493 4.95778629 17.0591906 4.77253333L18.6911906 2.14672688C18.8037966 1.96348085 19.005351 1.85485314 19.2194781 1.86200647 19.4336052 1.86915981 19.6275426 1.99099969 19.7278007 2.18135687 19.8280589 2.37171404 19.8192979 2.60146301 19.7048376 2.78354409L18.0728376 5.40935054C17.963873 5.58560738 17.7719612 5.69263919 17.5655435 5.69227527M20.9311906 9.4495914C20.6529142 9.44955788 20.4114484 9.25652033 20.3487276 8.9839468 20.2860067 8.71137327 20.418614 8.43133117 20.6686024 8.30843011L23.4366024 6.95152688C23.6285094 6.85680449 23.8561307 6.8723826 24.0334995 6.99237774 24.2108683 7.11237288 24.3109539 7.31849808 24.2959567 7.53290508 24.2809595 7.74731208 24.1531649 7.93732577 23.9608376 8.0311828L21.1928376 9.38808602C21.111428 9.42837849 21.0219302 9.44941674 20.9311906 9.4495914"/>
        <path fill="#5C6F84" d="M24.9008847,14.367391 C23.3353131,11.5275171 20.2494604,9.88498735 17.0332536,10.1796285 C13.8170468,10.4742697 11.0773036,12.6504903 10.0480565,15.7280791 C6.54711284,16.0171056 3.89661109,19.0318222 4.0411244,22.560445 C4.1856377,26.0890678 7.07368257,28.8745099 10.5864094,28.8731974 L17.6527624,28.8731974 L17.6527624,27.4368103 L10.6531765,27.4368103 L10.6532329,27.4358641 C7.81247702,27.4377218 5.49902938,25.1413186 5.46464,22.2854985 C5.46596747,19.9366407 7.04779688,17.8862298 9.31031934,17.3006228 C11.5728418,16.7150158 13.9428428,17.7425774 15.0721694,19.7987888 L16.3211106,19.1033049 C15.3350156,17.3131969 13.5775797,16.0853545 11.5649506,15.7803871 C12.780917,12.7903739 15.9324328,11.0844884 19.0846094,11.7100675 C22.236786,12.3356465 24.5071568,15.1175563 24.5018165,18.3478297 L25.9314635,18.3478297 C25.9321097,17.5210699 25.8080321,16.6989931 25.5634635,15.909643 C28.4532496,16.5524676 30.3982734,19.2794679 30.0767472,22.237445 C29.755221,25.1954221 27.2702637,27.4357006 24.3105882,27.4358452 C22.5467147,27.440116 20.8777382,26.6332084 19.7797647,25.2453075 L18.6635294,26.1413935 C20.5806073,28.5541622 23.8049,29.4855269 26.7034788,28.4638022 C29.6020575,27.4420775 31.5419499,24.6903808 31.5407059,21.6022968 C31.5177845,17.8286737 28.6403674,14.6933722 24.9008847,14.367391 Z"/>
        <path fill="#FFD330" d="M7.24027294,14.827243 C7.00939916,14.1996564 6.88808634,13.5366916 6.88168471,12.8675871 C6.87770197,10.4702521 8.32389036,8.31129763 10.5349778,7.41373791 C12.7460651,6.5161782 15.2778391,7.06033503 16.9306259,8.78836129 C17.4596149,8.71168159 17.993344,8.67278847 18.5278024,8.67197419 C18.5729788,8.67197419 18.6153318,8.67765161 18.6605082,8.67859785 C16.5733436,5.67163205 12.5878271,4.69404205 9.35776485,6.3967684 C6.1277026,8.09949476 4.66084603,11.9513016 5.93392,15.3874151 C6.35421284,15.1668077 6.79099001,14.979515 7.24027294,14.827243"/>
    </g>
</svg>

<!-- Cloudy -->
<svg id="icon-weather-04" width="32" height="32" viewBox="0 0 32 32">
    <path fill="#5C6F84" d="M24.0913876,4.8818 C22.2837079,1.59762415 18.7205531,-0.30179553 15.0069818,0.0391535444 C11.2934105,0.380102618 8.13015927,2.89708469 6.94214621,6.4563 C2.89988556,6.79035521 -0.160487366,10.2766392 0.00648587689,14.3571938 C0.173459119,18.4377484 3.50828704,21.6586984 7.56413793,21.6567667 L7.56427034,21.6539222 L7.56427034,21.6567667 L15.7242703,21.6567667 L15.7242703,19.9945444 L7.64096,19.9945444 C4.36141057,19.9962632 1.69075371,17.3410674 1.65072552,14.0389889 C1.65153676,11.3226168 3.47774949,8.95104566 6.09019267,8.27377204 C8.70263584,7.59649843 11.4391553,8.78518528 12.7425876,11.1634333 L14.1858979,10.3589889 C13.0467182,8.28920095 11.0174495,6.86958457 8.69363862,6.51676667 C10.0981062,3.05924026 13.7369289,1.08674981 17.3765353,1.81004358 C21.0161416,2.53333736 23.6379089,5.74998594 23.6325517,9.48555556 L25.2822069,9.48555556 C25.2829747,8.52963838 25.1397362,7.57913416 24.8573793,6.66647778 C28.1942966,7.40960353 30.4402447,10.5635336 30.0685556,13.9844055 C29.6968665,17.4052775 26.8267878,19.995587 23.4092359,19.9945889 C21.3726767,19.9990957 19.4457798,19.0659942 18.1777876,17.4612556 L16.8900634,18.5001444 C19.2661115,21.4973156 23.355865,22.4944979 26.8303549,20.9238314 C30.3048447,19.353165 32.2825508,15.6131468 31.6372399,11.8335843 C30.991929,8.05402175 27.8873242,5.19383558 24.0913876,4.8818 Z" transform="translate(0 5.778)"/>
</svg>

<!-- Rainy -->
<svg id="icon-weather-09"  width="32" height="32" viewBox="0 0 32 32">
    <g fill="none" transform="translate(0 .889)">
        <path fill="#5C6F84" d="M20.5486588,4.1421899 C19.0068243,1.35559337 15.967655,-0.256058666 12.8001809,0.0332216209 C9.63270674,0.322501908 6.9346209,2.45812817 5.92130824,5.47808215 C2.47354508,5.76158101 -0.136713238,8.71960986 0.00568519099,12.1818569 C0.14808362,15.6441038 2.99240493,18.3770358 6.45176471,18.3754949 L6.45182118,18.3742882 L6.45182118,18.3754949 L13.4118212,18.3754949 L13.4118212,16.9651246 L6.51843765,16.9651246 C3.72074967,16.9671822 1.44217475,14.7141158 1.40802824,11.9119259 C1.40868687,9.60710676 2.96634009,7.59483294 5.19461846,7.02017189 C7.42289683,6.44551085 9.75700323,7.45412073 10.8687341,9.47206061 L12.0997929,8.78950168 C11.1281747,7.03326558 9.39731264,5.82869956 7.41520941,5.52934007 C8.61317256,2.59571726 11.716864,0.922129333 14.8212127,1.5358381 C17.9255614,2.14954687 20.161765,4.87879596 20.1572235,8.04835017 L21.5642824,8.04835017 C21.5649373,7.23726893 21.4427633,6.4307805 21.2019294,5.65640539 C24.0482261,6.28684633 25.9639955,8.96296893 25.6469408,11.8656054 C25.3298862,14.7682418 22.8817337,16.9660874 19.9666824,16.9650963 C18.2296201,16.9689077 16.5860955,16.1771877 15.5045647,14.8156013 L14.4062118,15.6970828 C16.4328129,18.2401564 19.9211195,19.0862879 22.8846679,17.7536361 C25.8482162,16.4209844 27.5351193,13.2476587 26.9847471,10.0407529 C26.434375,6.833847 23.7863634,4.40699047 20.5486588,4.1421899 Z"/>
        <path fill="#3394D2" d="M15.5789271 22.4695003C15.6388165 22.6870451 15.6794443 22.9094548 15.7003388 23.1341468 15.7624565 23.6281535 15.8151624 23.9411502 16.1248094 24.1560997 16.451009 24.3116494 16.8396317 24.2447744 17.0953039 23.9890951 17.3509761 23.7334158 17.4183814 23.3442501 17.2636329 23.0172444 17.0490447 22.7070761 16.7356329 22.6533387 16.2424565 22.5920593 16.0181681 22.5704308 15.7961655 22.5294252 15.5789271 22.4695003zM16.4730447 25.1252579C16.1743189 25.1251907 15.8829696 25.0323026 15.6391624 24.8593993 15.1414029 24.469757 14.8513274 23.8715781 14.85328 23.2387933 14.838804 23.0243695 14.7944526 22.8130284 14.7215153 22.6109145 14.564134 22.2420216 14.3539253 21.898071 14.0975153 21.5899044 13.941656 21.421304 13.9466768 21.1594639 14.1088846 20.996983 14.2710924 20.8345021 14.5324924 20.8294729 14.7008094 20.9855946 15.0078113 21.2431056 15.3509284 21.4540237 15.7191624 21.6115879 15.921841 21.6837427 16.1333221 21.7281397 16.3478682 21.7435744 16.9793254 21.7418432 17.576282 22.0319537 17.9657506 22.529837 18.3882227 23.1912732 18.2763734 24.0609547 17.7003388 24.5935407L17.6993976 24.5935407C17.3749771 24.9234608 16.935221 25.1141285 16.4730447 25.1252579zM20.8972329 22.7168902C20.9572058 22.9344159 20.997835 23.156833 21.0186447 23.3815367 21.0807624 23.8755434 21.1325271 24.1894828 21.4431153 24.4044323 21.7696903 24.559076 22.1580458 24.4915391 22.4134725 24.2356824 22.6688992 23.9798257 22.7363226 23.5908164 22.5819388 23.2636916 22.3673506 22.954466 22.0539388 22.9007286 21.5617035 22.8394492 21.3370939 22.8179063 21.1147714 22.7768998 20.8972329 22.7168902M21.7894682 25.3717051C21.491555 25.3720205 21.2008738 25.2797946 20.9574682 25.107732 20.4595167 24.7182453 20.1693923 24.1199659 20.1715859 23.4871259 20.1573047 23.2723686 20.112949 23.0606893 20.0398212 22.8583044 19.8829581 22.4889362 19.6723608 22.1448687 19.41488 21.8372943 19.2597803 21.6685811 19.2651505 21.4073519 19.4270524 21.2451774 19.5889543 21.0830029 19.8497445 21.0776237 20.0181741 21.2329845 20.3261026 21.489435 20.6694159 21.6999612 21.0374682 21.858035 21.2401412 21.9315185 21.4520744 21.9762612 21.6671153 21.9909643 22.2980302 21.9892975 22.8943862 22.2794537 23.2831153 22.7772269 23.7076559 23.4380412 23.5951788 24.3091163 23.0167624 24.8399879 22.6918631 25.1697715 22.2518792 25.3603916 21.7894682 25.3717051M29.0508329 17.7143178C29.1106609 17.9325609 29.1515968 18.1555637 29.1731859 18.3808498 29.2353035 18.8739138 29.2880094 19.1869104 29.5976565 19.4009172 29.9237832 19.5561977 30.3121687 19.4891635 30.5676072 19.2335067 30.8230456 18.9778499 30.8902884 18.5888661 30.7355388 18.262062 30.5218918 17.9518936 30.20848 17.8981562 29.7153035 17.8368768 29.4907056 17.8152498 29.2683903 17.7742446 29.0508329 17.7143178zM29.9449506 20.3700754C29.6462247 20.3700088 29.3548752 20.2771207 29.1110682 20.1042168 28.6143769 19.7150496 28.3247338 19.1180899 28.3261271 18.4864391 28.3118288 18.2710708 28.2674761 18.0587714 28.1943624 17.855732 28.0368967 17.4866754 27.8263514 17.1426929 27.5694212 16.8347219 27.413452 16.6663899 27.4182188 16.4046695 27.5802139 16.2421481 27.742209 16.0796268 28.0034817 16.0744434 28.1717741 16.2304121 28.4802105 16.4873653 28.8241728 16.6982182 29.1929506 16.8564054 29.3952756 16.9286647 29.6064603 16.973066 29.8207153 16.9883919 30.4521661 16.9864664 31.0490401 17.2770536 31.4376565 17.7755973 31.8613563 18.4364332 31.7493766 19.3067315 31.1722447 19.8383582L31.1713035 19.8383582C30.8468824 20.1682775 30.4071267 20.358945 29.9449506 20.3700754zM25.648 21.1275838C25.7078288 21.3458268 25.7487646 21.5688296 25.7703529 21.7941158 25.8324706 22.2871798 25.8851765 22.6001764 26.1948235 22.8151259 26.5209371 22.9699549 26.9090076 22.9027525 27.1643009 22.647241 27.4195942 22.3917294 27.4870047 22.0030613 27.3327059 21.6762707 27.1181176 21.3651596 26.8047059 21.312365 26.3115294 21.2501428 26.087241 21.2285143 25.8652385 21.1875087 25.648 21.1275838zM26.5402353 23.7823987C26.2426636 23.7823877 25.9523787 23.6901831 25.7091765 23.5184256 25.2121776 23.1289974 24.9222211 22.53176 24.9232941 21.8997051 24.9085457 21.6847056 24.8642046 21.4727794 24.7915294 21.2699407 24.6339896 20.9005518 24.4238022 20.5560008 24.1675294 20.2470451 24.0123397 20.0786443 24.017549 19.8175558 24.1793319 19.6555005 24.3411148 19.4934452 24.6017645 19.4882272 24.7698824 19.6436781 25.0778687 19.9007785 25.4215432 20.1116493 25.7901176 20.2696714 25.9920887 20.342036 26.2029772 20.3864415 26.4169412 20.4016579 27.0486186 20.3998945 27.6457122 20.6904194 28.0348235 21.1888633 28.4584622 21.8493889 28.3464674 22.7194064 27.7694118 23.2506815L27.7675294 23.2516242C27.4422825 23.5807744 27.0024386 23.770996 26.5402353 23.7823987zM26.1330918 26.3350842C26.1931488 26.5529105 26.2337789 26.7756482 26.2545035 27.0006734 26.31568 27.4946801 26.3683859 27.8076768 26.6789741 28.0226263 27.0055491 28.17727 27.3939046 28.109733 27.6493313 27.8538763 27.904758 27.5980196 27.9721815 27.2090103 27.8177976 26.8818855 27.6032094 26.5717172 27.2897976 26.5189226 26.7975624 26.4576431 26.573017 26.4356407 26.3507335 26.3946414 26.1330918 26.3350842M27.0253271 28.989899C26.7274835 28.9897624 26.4369355 28.8975787 26.1933271 28.7259259 25.6953755 28.3364392 25.4052512 27.7381598 25.4074447 27.1053199 25.3930625 26.8905765 25.3487097 26.6789112 25.27568 26.4764983 25.1183498 26.1070829 24.9077968 25.7627702 24.6507388 25.4545455 24.4959458 25.2858347 24.5015402 25.0248572 24.6634202 24.8629576 24.8253003 24.701058 25.0858476 24.6958616 25.2540329 24.8511785 25.5619619 25.1076283 25.9052751 25.3181544 26.2733271 25.476229 26.4761266 25.5492666 26.6879971 25.5939961 26.9029741 25.6091582 27.5339878 25.607058 28.130524 25.8973019 28.5189741 26.3954209 28.9435147 27.0562351 28.8310376 27.9273103 28.2526212 28.4581818 27.9277219 28.7879654 27.487738 28.9785855 27.0253271 28.989899M20.8972329 27.7964862C20.95729 28.0143125 20.9979201 28.2370502 21.0186447 28.4620754 21.0798212 28.9560822 21.1325271 29.2690788 21.4431153 29.4840283 21.7696903 29.638672 22.1580458 29.571135 22.4134725 29.3152784 22.6688992 29.0594217 22.7363226 28.6704123 22.5819388 28.3432875 22.3673506 28.0331192 22.0539388 27.9803246 21.5617035 27.9190451 21.3371582 27.8970428 21.1148747 27.8560435 20.8972329 27.7964862M21.7894682 30.451301C21.4916247 30.4511644 21.2010767 30.3589807 20.9574682 30.1873279 20.4595167 29.7978412 20.1693923 29.1995618 20.1715859 28.5667219 20.1572037 28.3519785 20.1128509 28.1403132 20.0398212 27.9379003 19.8824912 27.5684848 19.6719382 27.224172 19.41488 26.9159475 19.260087 26.7472367 19.2656814 26.4862592 19.4275614 26.3243596 19.5894415 26.16246 19.8499888 26.1572637 20.0181741 26.3125805 20.3261031 26.5690303 20.6694163 26.7795564 21.0374682 26.937631 21.2402678 27.0106686 21.4521383 27.0553981 21.6671153 27.0705603 22.298129 27.0684601 22.8946651 27.3587039 23.2831153 27.8568229 23.7076559 28.5176372 23.5951788 29.3887123 23.0167624 29.9195838 22.6918631 30.2493674 22.2518792 30.4399875 21.7894682 30.451301"/>
    </g>
</svg>

<!-- Shiny -->
<svg id="icon-weather-01" width="32" height="32" viewBox="0 0 32 32">
    <g fill="#FFD330">
        <path d="M15.70288 5.273C15.2958461 5.273 14.96588 4.94303386 14.96588 4.536L14.96588.73705C14.96588.330016157 15.2958462.0000500439286 15.70288.0000500439286 16.1099138.0000500439286 16.43988.330016157 16.43988.73705L16.43988 4.53605C16.43988 4.94308386 16.1099139 5.27305 15.70288 5.27305M9.74138 6.9827C9.48676961 6.98298225 9.25006225 6.85177226 9.11538 6.6357L7.10238 3.4147C6.96206247 3.19120687 6.95187225 2.90976757 7.07565926 2.67671186 7.19944628 2.44365616 7.43833778 2.29451606 7.70207887 2.28563775 7.96581996 2.27675944 8.21420029 2.40949653 8.35338 2.6337L10.36638 5.8547C10.5081997 6.08197548 10.5156325 6.36827968 10.3857966 6.60260767 10.2559606 6.83693565 10.0092735 6.98243761 9.74138 6.9827M5.59028 11.592C5.47837084 11.5913718 5.36801594 11.5657476 5.26728 11.517L1.85428 9.852C1.48839135 9.67361203 1.33639203 9.23238865 1.51478 8.8665 1.69316797 8.50061135 2.13439135 8.34861203 2.50028 8.527L5.91428 10.192C6.22274387 10.3427167 6.38639411 10.6863628 6.30898701 11.0208379 6.23157991 11.355313 5.9335954 11.5921237 5.59028 11.592M.73618 18.0969C.344267927 18.096027.0214767152 17.788798.00125528935 17.397407-.0189661365 17.006016.270444605 16.6671572.66018 16.6259L4.43718 16.2289C4.84200472 16.1863741 5.20465407 16.4800753 5.24718 16.8849 5.28970593 17.2897247 4.99600472 17.6523741 4.59118 17.6949L.81318 18.0929C.787612845 18.0957282.761902582 18.0970638.73618 18.0969M3.84558 25.7893C3.53063268 25.7894781 3.25032799 25.5896342 3.14782509 25.2918339 3.04532219 24.9940336 3.14324432 24.664004 3.39158 24.4703L6.38358 22.1323C6.70445744 21.8815627 7.16784272 21.9384226 7.41858 22.2593 7.66931728 22.5801774 7.61245744 23.0435627 7.29158 23.2943L4.29858 25.6333C4.16911535 25.7342029 4.00972152 25.7890934 3.84558 25.7893M11.20568 30.6646C10.9648554 30.6649974 10.7390402 30.5476622 10.6009361 30.3503707 10.4628321 30.1530792 10.4298767 29.9007421 10.51268 29.6746L11.81068 26.1056C11.9000987 25.857184 12.1155054 25.6755298 12.3754502 25.6293246 12.635395 25.5831194 12.9002071 25.6794148 13.0697557 25.8817993 13.2393042 26.0841839 13.2877139 26.3617713 13.19668 26.6096L11.89868 30.1796C11.7923866 30.4707058 11.5155846 30.6644273 11.20568 30.6646M21.66438 6.9827C21.3964865 6.98243761 21.1497994 6.83693565 21.0199634 6.60260767 20.8901275 6.36827968 20.8975603 6.08197548 21.03938 5.8547L23.05238 2.6337C23.2685361 2.28941367 23.7225542 2.18500726 24.0673888 2.40028768 24.4122234 2.6155681 24.5177833 3.06931941 24.30338 3.4147L22.29038 6.6357C22.1556964 6.85177082 21.9189899 6.98298033 21.66438 6.9827M25.81538 11.592C25.4720646 11.5921237 25.1740801 11.355313 25.096673 11.0208379 25.0192659 10.6863628 25.1829161 10.3427167 25.49138 10.192L28.90538 8.527C29.2712686 8.34861203 29.712492 8.50061135 29.89088 8.8665 30.069268 9.23238865 29.9172686 9.67361203 29.55138 9.852L26.13838 11.517C26.0376441 11.5657476 25.9272892 11.5913718 25.81538 11.592M30.66948 18.0969C30.6437574 18.0970638 30.6180472 18.0957282 30.59248 18.0929L26.81448 17.6949C26.4096553 17.6523741 26.1159541 17.2897247 26.15848 16.8849 26.2010059 16.4800753 26.5636553 16.1863741 26.96848 16.2289L30.74548 16.6259C31.1352154 16.6671572 31.4246261 17.006016 31.4044047 17.397407 31.3841833 17.788798 31.0613921 18.096027 30.66948 18.0969M27.56008 25.7893C27.3959386 25.7890927 27.236545 25.7342022 27.10708 25.6333L24.11408 23.2943C23.7932026 23.0435627 23.7363427 22.5801774 23.98708 22.2593 24.2378173 21.9384226 24.7012026 21.8815627 25.02208 22.1323L28.01408 24.4703C28.2624157 24.664004 28.3603378 24.9940336 28.2578349 25.2918339 28.155332 25.5896342 27.8750273 25.7894781 27.56008 25.7893M20.55758 30.85805C20.2476754 30.8578773 19.9708734 30.6641558 19.86458 30.37305L18.56658 26.80305C18.4755461 26.5552213 18.5239558 26.2776339 18.6935043 26.0752493 18.8630529 25.8728648 19.127865 25.7765694 19.3878098 25.8227746 19.6477546 25.8689798 19.8631613 26.050634 19.95258 26.29905L21.25058 29.86805C21.3333833 30.0941921 21.3004279 30.3465292 21.1623239 30.5438207 21.0242198 30.7411122 20.7984046 30.8584474 20.55758 30.85805M15.62483 6.8858C10.7097719 6.88552387 6.72510617 10.8697419 6.72483003 15.7848 6.72455389 20.6998581 10.7087719 24.6845238 15.62383 24.6848 20.5388881 24.6850761 24.5235538 20.7008581 24.52383 15.7858 24.5240675 10.8707579 20.5398721 6.88611479 15.62483 6.8858M15.62483 8.2448C19.7896093 8.2448 23.16583 11.6210207 23.16583 15.7858 23.16583 19.9505793 19.7896093 23.3268 15.62483 23.3268 11.4600507 23.3268 8.08383 19.9505793 8.08383 15.7858 8.08862429 11.6230082 11.4620382 8.24959429 15.62483 8.2448"/>
    </g>
</svg>

<!-- Snowy -->
<svg id="icon-weather-13" width="32" height="32" viewBox="0 0 32 32">
    <g fill="none" transform="translate(1.333)">
        <path fill="#5C6F84" d="M22.0839034,4.39368 C20.4268744,1.43789725 17.1606407,-0.271605085 13.7565162,0.0352386479 C10.3523917,0.342082381 7.45272476,2.60737167 6.36370483,5.81068 C2.66654685,6.1102189 -0.136251704,9.23514237 0.00528644383,12.8998698 C0.146824591,16.5645971 3.18249103,19.4691246 6.89198805,19.48907 L5.5519908,17.79507 C3.17068774,17.1697158 1.5175583,15.0326472 1.5308685,12.5967996 C1.54417871,10.1609519 3.22056616,8.04166571 5.60856428,7.44178346 C7.99656241,6.84190121 10.4929182,7.91296435 11.6807761,10.04707 L13.0038106,9.32307 C11.9595815,7.46023593 10.0994052,6.1825672 7.96922943,5.86505 C9.25669557,2.75331438 12.592272,0.978115757 15.9285548,1.62908542 C19.2648376,2.28005508 21.6681139,5.17500857 21.6632331,8.537 L23.175417,8.537 C23.1761208,7.67667454 23.0448189,6.82122075 22.7859917,5.99983 C25.0875872,6.50481198 26.8933989,8.26817641 27.4325877,10.5372034 C27.9717766,12.8062304 27.1490931,15.1800891 25.3157127,16.6454605 C23.4823323,18.1108319 20.9621275,18.4088535 18.8308874,17.41231 L18.1262906,18.25307 C19.101841,19.0847642 20.3621057,19.5162599 21.6489913,19.45919 L21.6489913,19.48159 C25.7146137,19.3862484 28.9929896,16.1605695 29.1088433,12.1416485 C29.2246969,8.12272753 26.1374648,4.71769368 22.0839338,4.39359 L22.0839034,4.39368 Z"/>
        <path fill="#3394D2" d="M17.6023568,20.87944 L7.72545931,20.87944 C7.45340511,20.87944 7.23286161,20.6614027 7.23286161,20.39244 C7.23286161,20.1234773 7.45340511,19.90544 7.72545931,19.90544 L17.6023972,19.90544 C17.8744514,19.90544 18.0949949,20.1234773 18.0949949,20.39244 C18.0949949,20.6614027 17.8744514,20.87944 17.6023972,20.87944 L17.6023568,20.87944 Z"/>
        <path fill="#3394D2" d="M15.4264607,24.92686 C15.2624776,24.9271132 15.1091422,24.8465901 15.0175439,24.71212 L9.4938446,16.61681 C9.34173726,16.3938029 9.4012908,16.0911139 9.62686115,15.940735 C9.85243151,15.7903562 10.1585998,15.8492329 10.3107071,16.07224 L15.8344064,24.16756 C15.9362089,24.3167866 15.9464545,24.509359 15.8610488,24.6683208 C15.7756432,24.8272825 15.6085142,24.9267101 15.4264506,24.92687 L15.4264607,24.92686 Z"/>
        <path fill="#3394D2" d="M9.90131494 24.92686C9.71925131 24.9267001 9.55212234 24.8272725 9.46671668 24.6683108 9.38131102 24.509349 9.39155661 24.3167766 9.49335908 24.16755L15.0170584 16.07223C15.1691657 15.849223 15.475334 15.7903462 15.7009044 15.940725 15.9264747 16.0911039 15.9860283 16.3937929 15.8339209 16.6168L10.3102317 24.71213C10.2186311 24.8465963 10.0652962 24.9271154 9.90131494 24.92686zM10.9955191 18.28405C10.8586765 18.2838611 10.7311075 18.215636 10.6560634 18.1025061 10.5810192 17.9893761 10.5685657 17.8465155 10.6229251 17.72236L11.4811577 15.76452C11.5384867 15.6321928 11.663048 15.5403039 11.8076787 15.5236455 11.9523094 15.5069871 12.0949014 15.5681056 12.1814647 15.6838595 12.268028 15.7996134 12.2853306 15.9523087 12.2268211 16.08413L11.3685885 18.042C11.3041404 18.1889799 11.1575565 18.2840846 10.9955191 18.28405z"/>
        <path fill="#3394D2" d="M10.9957618 18.28405L10.9917159 18.28405 8.83361195 18.26265C8.6099019 18.2604435 8.43003963 18.0799461 8.43115296 17.85877 8.43226629 17.6375938 8.61393674 17.4588752 8.83765793 17.45887L8.84170391 17.45887 10.9998078 17.48027C11.2235179 17.4824765 11.4033801 17.6629739 11.4022668 17.88415 11.4011535 18.1053262 11.219483 18.2840448 10.9957618 18.28405zM8.74336644 23.31812C8.52033174 23.3179675 8.33909167 23.1401429 8.33724315 22.9196502 8.33539463 22.6991575 8.51362839 22.5183874 8.73662989 22.51458L10.9423549 22.47658 10.9495669 22.47634C11.1726016 22.4764925 11.3538417 22.6543171 11.3556902 22.8748098 11.3575387 23.0953025 11.1793049 23.2760726 10.9563034 23.27988L8.75057839 23.31788 8.74336644 23.31812z"/>
        <path fill="#3394D2" d="M11.7397462 25.31615C11.571454 25.3161469 11.4205959 25.2135359 11.3604359 25.05815L10.570034 23.02207C10.4922351 22.8156175 10.5971668 22.5857397 10.8052269 22.5068238 11.0132871 22.4279079 11.2468152 22.5294101 11.3286547 22.73433L12.1190566 24.77041C12.1577611 24.869864 12.1548638 24.9804538 12.1110034 25.0777935 12.067143 25.1751333 11.9859218 25.2512286 11.8852497 25.2893 11.8388493 25.3070826 11.7895109 25.3161871 11.7397462 25.31615zM15.5363798 20.79431C15.3767404 20.7940848 15.2320102 20.7015084 15.1663773 20.5576386 15.1007443 20.4137687 15.1263583 20.245238 15.2318593 20.12679L16.6613738 18.52399C16.8100523 18.3588131 17.0658034 18.343493 17.2335667 18.4897143 17.40133 18.6359356 17.4180123 18.8887066 17.2708901 19.05524L15.8413857 20.658C15.7643129 20.744736 15.6531586 20.7944119 15.5363798 20.79431z"/>
        <path fill="#3394D2" d="M16.9663798 22.39711C16.8495985 22.3972729 16.7384262 22.3476072 16.6613738 22.26085L15.2318593 20.658C15.0847371 20.4914666 15.1014194 20.2386956 15.2691827 20.0924743 15.436946 19.946253 15.6926971 19.9615731 15.8413756 20.12675L17.2708901 21.72955C17.3763912 21.847998 17.4020051 22.0165287 17.3363721 22.1603986 17.2707392 22.3042684 17.126009 22.3968448 16.9663697 22.39707L16.9663798 22.39711zM9.70527724 20.79431C9.58849593 20.7944729 9.47732362 20.7448072 9.40027126 20.65805L7.97075678 19.05525C7.82363455 18.8887166 7.84031685 18.6359456 8.00808016 18.4897243 8.17584346 18.343503 8.43159455 18.3588231 8.5802731 18.524L10.0097876 20.1268C10.1152886 20.245248 10.1409026 20.4137787 10.0752696 20.5576486 10.0096367 20.7015184 9.8649065 20.7940948 9.70526713 20.79432L9.70527724 20.79431z"/>
        <path fill="#3394D2" d="M8.27528736 22.39711C8.11564798 22.3968848 7.97091783 22.3043084 7.90528487 22.1604386 7.83965191 22.0165687 7.86526586 21.848038 7.9707669 21.72959L9.40028138 20.12679C9.49606113 20.0183732 9.64320063 19.968916 9.78597382 19.9971493 9.928747 20.0253826 10.045323 20.1269894 10.091551 20.2634882 10.1377791 20.399987 10.1065907 20.5505063 10.0097977 20.65804L8.58028322 22.26084C8.50320529 22.3475585 8.39205624 22.3972192 8.27528736 22.39711zM14.2355577 18.30736C14.0698213 18.3074146 13.9206629 18.2079448 13.8586345 18.056L13.0412864 16.05773C12.9571954 15.8520592 13.0576718 15.6179354 13.2657067 15.5348 13.4737415 15.4516646 13.7105564 15.5509992 13.7946474 15.75667L14.6119954 17.75494C14.6624353 17.8787377 14.6474665 18.01921 14.5720396 18.1298984 14.4966128 18.2405868 14.3705552 18.30707 14.2355577 18.30736z"/>
        <path fill="#3394D2" d="M14.2350722 18.30736C14.0133206 18.3073073 13.8325255 18.1315654 13.8287204 17.9123661 13.8249154 17.6931667 13.9995045 17.5113952 14.2211237 17.50382L16.4001453 17.42915C16.623356 17.4244483 16.8097724 17.5963056 16.8206032 17.81677 16.8282966 18.0385418 16.6528388 18.2245629 16.4285278 18.23245L14.2495062 18.30712 14.2350722 18.30736zM16.551212 23.44154C16.5352918 23.4415245 16.5193866 23.4405728 16.5035807 23.43869L14.1773462 23.17045C13.9550171 23.1440653 13.7961752 22.9448389 13.8221546 22.7249533 13.8481339 22.5050677 14.049143 22.3473967 14.2716377 22.37238L16.5978722 22.64062C16.8115959 22.6653291 16.9688036 22.8504424 16.9564306 23.0628254 16.9440575 23.2752084 16.7663919 23.4412534 16.551212 23.44154z"/>
        <path fill="#3394D2" d="M13.6048708 25.40628C13.4781277 25.406118 13.3586974 25.3475834 13.2818319 25.2479539 13.2049664 25.1483244 13.179443 25.0189766 13.2127954 24.89809L13.8326593 22.66509C13.8710732 22.5266925 13.9812519 22.4190685 14.1216923 22.3827591 14.2621326 22.3464496 14.4114984 22.386971 14.5135249 22.4890591 14.6155514 22.5911472 14.6547385 22.7392925 14.6163246 22.87769L13.9964607 25.11069C13.948041 25.2850832 13.7877931 25.4060457 13.6048708 25.40628zM21.377486 25.54591L22.8055945 26.36103 22.8055945 27.99134 21.377486 28.8065 19.9493674 27.99135 19.9493674 26.361 21.3774759 25.54588 21.377486 25.54591zM21.3774759 24.39116L18.9378731 25.78371 18.9378731 28.56871 21.3774759 29.9612 23.8170786 28.56871 23.8170786 25.78371 21.3774759 24.39119 21.3774759 24.39116z"/>
        <path fill="#3394D2" d="M17.3794032 30.22548C17.1782261 30.225547 17.0008511 30.0950761 16.9431056 29.9045546 16.88536 29.7140331 16.9609337 29.508628 17.1289977 29.39931L19.1445821 28.08925C19.280458 28.0009804 19.4536451 27.9910811 19.5989054 28.0632811 19.7441658 28.1354811 19.8394309 28.2788115 19.8488153 28.4392811 19.8581997 28.5997507 19.7802778 28.7529804 19.6444018 28.84125L17.6288175 30.15131C17.5548786 30.1997704 17.4681143 30.2255722 17.3794032 30.22548zM25.4022115 30.22548C25.3134952 30.2255573 25.2267304 30.1997381 25.1527972 30.15126L23.1367172 28.8412C23.0008413 28.7529304 22.9229194 28.5997007 22.9323038 28.4392311 22.9416882 28.2787615 23.0369534 28.1354311 23.1822137 28.0632311 23.327474 27.9910311 23.5006611 28.0009304 23.636537 28.0892L25.6526069 29.39926C25.8206709 29.508578 25.8962446 29.7139831 25.838499 29.9045046 25.7807535 30.0950261 25.6033785 30.225497 25.4022014 30.22543L25.4022115 30.22548z"/>
        <rect width="1.263" height="1.251" x="20.746" y="29.259" fill="#3394D2"/>
        <path fill="#3394D2" d="M19.394492,28.86513 C19.3473286,28.8652719 19.3005112,28.8571706 19.2562005,28.8412 L17.3497664,28.15663 C17.1397205,28.0811216 17.0313598,27.8515691 17.1077361,27.64391 C17.1841124,27.4362509 17.4163035,27.3291216 17.6263494,27.40463 L19.5327834,28.0892 C19.7172795,28.1555835 19.8269417,28.3433368 19.7928698,28.5344957 C19.758798,28.7256545 19.590827,28.8650412 19.394492,28.86508 L19.394492,28.86513 Z"/>
        <path fill="#3394D2" d="M19.2403908 30.789L19.2077903 30.788C18.9850653 30.7702264 18.8189183 30.5775747 18.8363798 30.35734L18.9909664 28.43351C19.0133917 28.215593 19.2053816 28.0537584 19.4265766 28.06632 19.6493016 28.0840936 19.8154486 28.2767453 19.7979871 28.49698L19.6434005 30.42081C19.626632 30.6286116 19.4512487 30.788842 19.2403908 30.789zM23.5565278 31.05946C23.3518557 31.0592523 23.1796304 30.9078541 23.1554906 30.70692L22.8902667 28.51258C22.8774772 28.4072809 22.9075647 28.3012754 22.9738982 28.2179263 23.0402317 28.1345771 23.1373666 28.0807256 23.2438952 28.06824 23.3506171 28.0544073 23.4584722 28.0837048 23.5430628 28.1495049 23.6276534 28.2153051 23.6818319 28.3120482 23.6933425 28.41785L23.9585664 30.61219C23.9720058 30.7257081 23.9357713 30.8394974 23.8589786 30.9249319 23.7821859 31.0103663 23.6721446 31.0593136 23.5565379 31.05946L23.5565278 31.05946z"/>
        <path fill="#3394D2" d="M23.2917995 28.86513C23.0915437 28.8651413 22.9214245 28.7202835 22.8917542 28.5244884 22.862084 28.3286933 22.9817953 28.1409079 23.1732625 28.0829L25.0846326 27.50282C25.2982119 27.4380978 25.524423 27.5568027 25.5898892 27.767955 25.6553554 27.9791073 25.535286 28.2027478 25.3217067 28.26747L23.4103366 28.84755C23.3719528 28.859311 23.3319844 28.8652387 23.2917995 28.86513zM19.9150474 31.83437C19.7432681 31.834531 19.5901226 31.7274076 19.5331073 31.5672076 19.476092 31.4070076 19.5276447 31.2286783 19.6616782 31.12246L21.1245922 29.96377C21.2372626 29.8735923 21.3901368 29.8499343 21.525291 29.90176 21.6604451 29.9535857 21.7572022 30.0729663 21.778901 30.2146687 21.8005998 30.356371 21.7439207 30.4987163 21.6303393 30.58777L20.1674253 31.74646C20.0958901 31.8033399 20.0068482 31.8343556 19.9150474 31.83437z"/>
        <path fill="#3394D2" d="M22.6156662 31.8998C22.5083609 31.8999603 22.4054281 31.857777 22.3297067 31.78261L21.0915163 30.55849C20.9340541 30.4022711 20.9342779 30.1495007 21.0920165 29.9935545 21.2497552 29.8376083 21.505431 29.8373871 21.6634455 29.99306L22.9016359 31.21718C23.0172754 31.3315475 23.0518625 31.5035124 22.989275 31.6529164 22.9266874 31.8023204 22.7792454 31.8997539 22.6156763 31.8998L22.6156662 31.8998zM19.3939963 26.53212C19.3052801 26.5321973 19.2185153 26.5063781 19.1445821 26.4579L17.1289977 25.14784C16.9931218 25.0595704 16.9151998 24.9063407 16.9245843 24.7458711 16.9339687 24.5854015 17.0292338 24.4420711 17.1744941 24.3698711 17.3197545 24.2976711 17.4929416 24.3075704 17.6288175 24.39584L19.6444018 25.7059C19.8124658 25.815218 19.8880395 26.0206231 19.830294 26.2111446 19.7725484 26.4016661 19.5951734 26.532137 19.3939963 26.53207L19.3939963 26.53212zM23.3871228 26.53212C23.1859457 26.532187 23.0085706 26.4017161 22.9508251 26.2111946 22.8930796 26.0206731 22.9686533 25.815268 23.1367172 25.70595L25.1527871 24.39589C25.3628331 24.259437 25.6449974 24.317161 25.7830188 24.52482 25.9210402 24.7324791 25.8626528 25.011437 25.6526069 25.14789L23.636537 26.4579C23.5626038 26.5063781 23.475839 26.5321973 23.3871228 26.53212z"/>
        <rect width="1.263" height="1.251" x="20.746" y="24.037" fill="#3394D2"/>
        <path fill="#3394D2" d="M17.4880579,27.1664 C17.2917228,27.1663612 17.1237519,27.0269745 17.08968,26.8358157 C17.0556082,26.6446568 17.1652704,26.4569035 17.3497664,26.39052 L19.2562005,25.70595 C19.3920764,25.6571046 19.5439891,25.6836349 19.6547146,25.775547 C19.7654401,25.8674591 19.8181565,26.0107895 19.7930061,26.151547 C19.7678557,26.2923045 19.6686594,26.4091047 19.5327834,26.45795 L17.6263494,27.14252 C17.5820356,27.1584736 17.5352182,27.1665579 17.4880579,27.1664 Z"/>
        <path fill="#3394D2" d="M19.3939963 26.48183C19.1831453 26.4816785 19.0077602 26.3214635 18.9909766 26.11367L18.8363899 24.18984C18.8197484 23.9701617 18.9858205 23.7784952 19.2079441 23.761023 19.4300678 23.7435509 19.6247064 23.906844 19.6434106 24.12636L19.7979972 26.05019C19.8154587 26.2704247 19.6493117 26.4630764 19.4265867 26.48085L19.3939963 26.48183zM23.2922952 26.48183C23.1766885 26.4816836 23.0666472 26.4327363 22.9898545 26.3473019 22.9130618 26.2618674 22.8768273 26.1480781 22.8902667 26.03456L23.1554906 23.84022C23.172607 23.6983945 23.2649559 23.57637 23.3977503 23.5201121 23.5305448 23.4638541 23.6836102 23.4819095 23.7992883 23.5674771 23.9149663 23.6530446 23.9756828 23.7931245 23.9585664 23.93495L23.6933425 26.12929C23.6692022 26.3302278 23.4969711 26.4816273 23.2922952 26.48183z"/>
        <path fill="#3394D2" d="M25.2031697 27.06142C25.1629848 27.0615287 25.1230164 27.055601 25.0846326 27.04384L23.1732625 26.46425C22.9596832 26.3995277 22.8396138 26.1758873 22.90508 25.964735 22.9705462 25.7535827 23.1967573 25.6348778 23.4103366 25.6996L25.3217067 26.27919C25.5131739 26.3371979 25.6328852 26.5249833 25.603215 26.7207784 25.5735447 26.9165735 25.4034255 27.0614313 25.2031697 27.06142zM21.3769802 24.67128C21.2851818 24.6712712 21.1961402 24.6402627 21.1246023 24.58339L19.6616883 23.4247C19.5481069 23.3356463 19.4914278 23.193301 19.5131266 23.0515987 19.5348254 22.9098963 19.6315825 22.7905157 19.7667366 22.73869 19.9018908 22.6868643 20.054765 22.7105223 20.1674354 22.8007L21.6303494 23.95939C21.7643829 24.0656083 21.8159356 24.2439376 21.7589203 24.4041376 21.701905 24.5643376 21.5487595 24.671461 21.3769802 24.6713L21.3769802 24.67128z"/>
        <path fill="#3394D2" d="M21.3774759,24.67128 C21.2139068,24.6712339 21.0664648,24.5738004 21.0038772,24.4243964 C20.9412897,24.2749924 20.9758768,24.1030275 21.0915163,23.98866 L22.3297067,22.76454 C22.4877212,22.6088671 22.743397,22.6090883 22.9011357,22.7650345 C23.0588743,22.9209807 23.0590981,23.1737511 22.9016359,23.32997 L21.6634455,24.55409 C21.5877217,24.6292595 21.4847846,24.671443 21.3774759,24.67128 Z"/>
    </g>
</svg>

<!-- Stormy -->
<svg id="icon-weather-11" width="32" height="32" viewBox="0 0 32 32">
    <g fill="none" transform="translate(0 .444)">
        <polygon fill="#FFD330" points="11.103 14.354 21.907 24.925 14.845 24.417 17.801 31.433 7.734 20.052 14.783 20.593"/>
        <path fill="#5C6F84" d="M24.0919834,4.84990897 C22.2843154,1.58835559 18.7211514,-0.297991818 15.007561,0.0405943701 C11.2939707,0.379180559 8.13069761,2.87881012 6.94267586,6.41349517 C2.90930391,6.74389361 -0.148441972,10.1921347 0.00596679193,14.2360697 C0.160375555,18.2800047 3.47216213,21.4850391 7.51898483,21.5069131 L6.05716966,19.6376717 C3.4593845,18.9476257 1.65597056,16.5894811 1.67049078,13.9016492 C1.68501101,11.2138173 3.51379732,8.87529458 6.11888618,8.21335554 C8.72397504,7.5514165 11.4472723,8.73327928 12.7431172,11.0881545 L14.1864276,10.2892579 C13.0472727,8.23367053 11.0179585,6.82379612 8.69409103,6.47343448 C10.0986481,3.03986097 13.737432,1.08108961 17.3769685,1.79940822 C21.0165051,2.51772683 23.6382351,5.71210709 23.632949,9.42184828 L25.2826041,9.42184828 C25.2833723,8.4725236 25.1401338,7.52857454 24.8577766,6.62221241 C27.3686079,7.17943391 29.3385844,9.12521535 29.9267904,11.6289693 C30.5149964,14.1327232 29.6175235,16.7521535 27.6174721,18.369115 C25.6174208,19.9860766 22.8681064,20.314928 20.5431172,19.2152938 L19.7744662,20.143029 C20.8387256,21.0607818 22.2135955,21.5369165 23.6175007,21.47392 L23.6175007,21.4986372 C28.0527251,21.3934328 31.6291353,17.8340629 31.755521,13.3993915 C31.8819068,8.96472004 28.5140173,5.20744131 24.0919834,4.84980966 L24.0919834,4.84990897 Z"/>
    </g>
</svg>

<!-- Windy -->
<svg id="icon-weather-50" width="32" height="32" viewBox="0 0 32 32">
    <g fill="none" transform="translate(0 3.556)">
        <path fill="#C8CBD3" d="M30.5138222 16.3281511C29.3483826 16.3507067 28.2075142 15.9916839 27.2650222 15.3057778 25.8934874 14.3120352 24.0386993 14.3120352 22.6671644 15.3057778 21.7250315 15.9917472 20.5844117 16.3507871 19.4192267 16.3281511 18.254344 16.3504596 17.1140883 15.9914429 16.1721156 15.3057778 15.5133488 14.8037805 14.7033478 14.5409339 13.8753422 14.5604711 13.3872109 14.5604711 12.9915022 14.1647625 12.9915022 13.6766311 12.9915022 13.1884998 13.3872109 12.7927911 13.8753422 12.7927911 15.0404974 12.770363 16.1810525 13.1293825 17.12328 13.8151644 18.4935426 14.8089121 20.3474263 14.8089121 21.7176889 13.8151644 23.6687497 12.4520069 26.263357 12.4520069 28.2144178 13.8151644 28.8741103 14.3172863 29.6849625 14.5801132 30.5137778 14.5604711 31.0019091 14.5604711 31.3976178 14.9561798 31.3976178 15.4443111 31.3976178 15.9324425 31.0019091 16.3281511 30.5137778 16.3281511L30.5138222 16.3281511zM30.5138222 20.8250311C29.3483826 20.8475867 28.2075142 20.4885639 27.2650222 19.8026578 25.8934874 18.8089152 24.0386993 18.8089152 22.6671644 19.8026578 21.7250315 20.4886272 20.5844117 20.8476671 19.4192267 20.8250311 18.254344 20.8473396 17.1140883 20.4883229 16.1721156 19.8026578 15.5133488 19.3006605 14.7033478 19.0378139 13.8753422 19.0573511 13.3872109 19.0573511 12.9915022 18.6616425 12.9915022 18.1735111 12.9915022 17.6853798 13.3872109 17.2896711 13.8753422 17.2896711 15.0405044 17.2672223 16.1810728 17.6262265 17.1233156 18.312 18.4935782 19.3057477 20.3474618 19.3057477 21.7177244 18.312 23.6687853 16.9488425 26.2633925 16.9488425 28.2144533 18.312 28.8741458 18.8141219 29.6849981 19.0769488 30.5138133 19.0573067 31.0019447 19.0573067 31.3976533 19.4530153 31.3976533 19.9411467 31.3976533 20.429278 31.0019447 20.8249867 30.5138133 20.8249867L30.5138222 20.8250311zM30.5138222 25.3214756C29.3483826 25.3440312 28.2075142 24.9850084 27.2650222 24.2991022 25.8934874 23.3053596 24.0386993 23.3053596 22.6671644 24.2991022 21.7250315 24.9850717 20.5844117 25.3441116 19.4192267 25.3214756 18.254344 25.343784 17.1140883 24.9847674 16.1721156 24.2991022 15.5133488 23.7971049 14.7033478 23.5342583 13.8753422 23.5537956 13.3872109 23.5537956 12.9915022 23.1580869 12.9915022 22.6699556 12.9915022 22.1818242 13.3872109 21.7861156 13.8753422 21.7861156 15.0404974 21.7636874 16.1810525 22.122707 17.12328 22.8084889 18.4935426 23.8022366 20.3474263 23.8022366 21.7176889 22.8084889 23.6687497 21.4453313 26.263357 21.4453313 28.2144178 22.8084889 28.8741103 23.3106108 29.6849625 23.5734376 30.5137778 23.5537956 31.0019091 23.5537956 31.3976178 23.9495042 31.3976178 24.4376356 31.3976178 24.9257669 31.0019091 25.3214756 30.5137778 25.3214756L30.5138222 25.3214756z"/>
        <path fill="#5C6F84" d="M12.2675111,1.27656 C15.5844054,1.27997987 18.272425,3.96800347 18.27584,7.28489778 L19.5515556,7.28489778 C19.5521436,6.550759 19.4413788,5.82077736 19.22304,5.11985778 C21.5866086,5.65650837 23.269012,7.75066476 23.2837156,10.1743467 C23.2795539,10.4724346 23.2495362,10.7695994 23.194,11.0624978 L24.4910044,11.0624978 C24.7506829,9.30362832 24.2665501,7.51603664 23.1547593,6.12860166 C22.0429685,4.74116668 20.403852,3.87909607 18.6306667,3.74921778 C17.2327375,1.22696313 14.4772283,-0.231795948 11.6053985,0.0300599203 C8.73356877,0.291915789 6.28732842,2.22497479 5.36862222,4.95846222 C2.24260492,5.21500752 -0.124091425,7.89246999 0.00502921671,11.0263378 C0.134149859,14.1602056 2.71308255,16.6338998 5.84960889,16.6324178 L5.84967111,16.6302044 L5.84967111,16.6324178 L12.1600267,16.6324178 L12.1600267,15.3557956 L5.90898667,15.3557956 C3.3728051,15.3570944 1.30751381,13.3178953 1.27656889,10.7819022 C1.27715408,8.69568454 2.68944599,6.87426234 4.70978049,6.35411519 C6.730115,5.83396803 8.84639271,6.74693895 9.85434667,8.57350222 L10.9704889,7.95566222 C10.0894759,6.36608345 8.5201744,5.27582365 6.72309333,5.00481778 C7.64538164,2.75368699 9.83477982,1.28146013 12.2675111,1.27656 Z"/>
    </g>
</svg>

<!-- Night version of "sunny" -->
<svg id="icon-weather-01-night" viewBox="0 0 32 32"><defs><style>.cls-1{fill:#ffd330;}</style></defs><path fill="#5c6f84" class="cls-1" d="M15.51,28.77A13.46,13.46,0,0,1,3.05,20.46a.63.63,0,0,1,.14-.7.65.65,0,0,1,.7-.14A12.17,12.17,0,0,0,17.22,17h0A12.18,12.18,0,0,0,19.86,3.66a.64.64,0,0,1,.84-.84,13.35,13.35,0,0,1,4.35,2.91,13.5,13.5,0,0,1-9.54,23ZM4.91,21.34a11.9,11.9,0,0,0,2,2.57A12.21,12.21,0,1,0,21.57,4.67a13.44,13.44,0,0,1-3.44,13.22h0A13.45,13.45,0,0,1,4.91,21.34Z"/><path fill="#ffd330" class="cls-1" d="M5.41,7.14A.43.43,0,0,1,5,6.71,1.29,1.29,0,0,0,3.69,5.43a.43.43,0,1,1,0-.86A1.29,1.29,0,0,0,5,3.28a.43.43,0,0,1,.85,0A1.29,1.29,0,0,0,7.12,4.57a.43.43,0,1,1,0,.86A1.29,1.29,0,0,0,5.83,6.71.42.42,0,0,1,5.41,7.14ZM5,5a2.24,2.24,0,0,1,.44.43A2,2,0,0,1,5.84,5a2,2,0,0,1-.43-.43A2.24,2.24,0,0,1,5,5Z"/><path fill="#ffd330" class="cls-1" d="M14,11.43a.43.43,0,0,1-.43-.43,2.14,2.14,0,0,0-2.14-2.14.43.43,0,0,1,0-.86,2.14,2.14,0,0,0,2.14-2.14.43.43,0,0,1,.86,0A2.14,2.14,0,0,0,16.55,8a.43.43,0,0,1,0,.86A2.14,2.14,0,0,0,14.41,11,.43.43,0,0,1,14,11.43Zm-1-3a3,3,0,0,1,1,1,3,3,0,0,1,1-1,3,3,0,0,1-1-1A3,3,0,0,1,13,8.43Z"/><path fill="#ffd330" class="cls-1" d="M7.12,16.58a.43.43,0,0,1-.43-.43A2.15,2.15,0,0,0,4.55,14a.43.43,0,1,1,0-.85A2.15,2.15,0,0,0,6.69,11a.43.43,0,0,1,.86,0,2.15,2.15,0,0,0,2.14,2.15.43.43,0,1,1,0,.85,2.15,2.15,0,0,0-2.14,2.15A.43.43,0,0,1,7.12,16.58Zm-1-3a3.07,3.07,0,0,1,1,1,3.07,3.07,0,0,1,1-1,3,3,0,0,1-1-1A3,3,0,0,1,6.09,13.57Z"/></svg>

<!-- Night version of "cloudy with sun" -->
<svg id="icon-weather-02-night" viewBox="0 0 32 32"><defs><style>.cls-1{fill:#5c6f84;}.cls-2{fill:#ffd330;}</style></defs><path fill="#5c6f84" class="cls-1" d="M24.9,16.15a8.13,8.13,0,0,0-14.85,1.36,6.58,6.58,0,0,0,.54,13.14h7.06V29.21h-7A5.15,5.15,0,0,1,9.31,19.08a5.1,5.1,0,0,1,5.76,2.5l1.25-.7a6.52,6.52,0,0,0-4.76-3.32A6.72,6.72,0,0,1,24.5,20.13h1.43a8.07,8.07,0,0,0-.37-2.44,5.83,5.83,0,0,1-1.25,11.52A5.74,5.74,0,0,1,19.78,27l-1.12.9A7.24,7.24,0,1,0,24.9,16.15Z"/><path fill="#5c6f84" class="cls-1" d="M24.9,16.15a8.13,8.13,0,0,0-14.85,1.36,6.58,6.58,0,0,0,.54,13.14h7.06V29.21h-7A5.15,5.15,0,0,1,9.31,19.08a5.1,5.1,0,0,1,5.76,2.5l1.25-.7a6.52,6.52,0,0,0-4.76-3.32A6.72,6.72,0,0,1,24.5,20.13h1.43a8.07,8.07,0,0,0-.37-2.44,5.83,5.83,0,0,1-1.25,11.52A5.74,5.74,0,0,1,19.78,27l-1.12.9A7.24,7.24,0,1,0,24.9,16.15Z"/><path fill="#ffd330" class="cls-2" d="M3.08,20.12A6.72,6.72,0,0,1,0,15.46a1.26,1.26,0,0,1,1.49-1.4c1.47.29,5.16.76,7.54-1.15,3.32-2.65,2.54-6.39,1.79-8.39a1.22,1.22,0,0,1,.27-1.32,1.25,1.25,0,0,1,1.32-.32c6.27,2.13,6.82,7.33,6.84,7.55l-1.5.14c0-.17-.47-4.21-5.36-6.11C13.1,6.61,13.87,11,10,14.09c-2.69,2.15-6.56,1.83-8.42,1.51a5.33,5.33,0,0,0,2.37,3.28Z"/></svg>

</svg>
