<svg id="Calque_1" data-name="Calque 1" xmlns="http://www.w3.org/2000/svg" xmlns:xlink="http://www.w3.org/1999/xlink" viewBox="0 0 182.6 178.42249"><defs><linearGradient id="Dégradé_sans_nom_2" x1="36.40448" y1="152.43638" x2="116.50566" y2="152.43638" gradientTransform="matrix(1, 0, 0, -1, 0, 182)" gradientUnits="userSpaceOnUse"><stop offset="0" stop-color="#ffda12"/><stop offset="1" stop-color="#efe333"/></linearGradient></defs><title>logo-home2</title><path d="M182.69188,177.0483v-.0721l-.61284-4.83059h0a.88808.88808,0,0,0-.86519-.757.45725.45725,0,0,0-.21629.036.51257.51257,0,0,1-.21629.0721,11.06541,11.06541,0,0,1-3.96541.721,4.2414,4.2414,0,0,1-3.49677-1.29776,7.07352,7.07352,0,0,1-1.00937-4.3259V155.85141h8.2913a.8579.8579,0,0,0,.79309-.82913v-4.86663a.87017.87017,0,0,0-.86519-.82913h-8.18316v-6.92144h0v-.18025a.89248.89248,0,0,0-.86519-.79309h-6.1644a.8466.8466,0,0,0-.86518.82913v7.02958h-4.75849a.854.854,0,0,0-.86518.86518v4.79453a.859.859,0,0,0,.68493.86518H164.451v12.14856c0,3.8212.86518,6.633,2.63158,8.47155s4.434,2.77579,8.039,2.77579a19.03853,19.03853,0,0,0,4.36194-.46863,13.95113,13.95113,0,0,0,2.77579-.90123.82744.82744,0,0,0,.54074-.757v-.036C182.69188,177.08434,182.69188,177.08434,182.69188,177.0483Z" transform="translate(-0.2 -0.78876)" fill="#11100e"/><path d="M42.49679,170.41525a2.39066,2.39066,0,0,1-.32444-.68494c-.10815-.57678.39654-1.08147.68493-1.55011a13.52283,13.52283,0,0,0,.86518-1.58616,22.08083,22.08083,0,0,0,2.37925-10.81474,22.98464,22.98464,0,0,0-1.55011-7.93081,22.01539,22.01539,0,0,0-3.85726-6.34465,20.30786,20.30786,0,0,0-5.22712-4.36195,21.78044,21.78044,0,0,0-6.74119-2.66763,25.0156,25.0156,0,0,0-7.67847-.50469,22.55164,22.55164,0,0,0-14.05916,6.27255,22.16082,22.16082,0,0,0-6.66909,13.915,25.05249,25.05249,0,0,0,.46864,7.85871,23.17938,23.17938,0,0,0,2.956,7.10167A21.179,21.179,0,0,0,8.8269,174.633a22.2519,22.2519,0,0,0,6.56094,3.38863,21.74363,21.74363,0,0,0,3.9654.90123,22.86912,22.86912,0,0,0,3.85726.25235,31.645,31.645,0,0,0,3.677-.32445,19.95409,19.95409,0,0,0,2.01875-.39653c.54074-.14421,1.15357-.25235,1.36987-.82913a1.61645,1.61645,0,0,0-.28839-1.33382c-.25234-.54074-.54074-1.08147-.79308-1.62221-.50469-.97333-.97333-1.9827-1.478-2.956a1.02323,1.02323,0,0,0-.64889-.57678,1.62078,1.62078,0,0,0-.82913.036c-.32444.0721-.64889.10814-.97333.18025a15.41131,15.41131,0,0,1-4.07355,0,14.85253,14.85253,0,0,1-11.716-8.90413A15.28311,15.28311,0,0,1,8.35825,154.842a14.88563,14.88563,0,0,1,2.77578-7.06563,14.98532,14.98532,0,0,1,13.37423-6.05625,14.86842,14.86842,0,0,1,6.70514,2.27109,14.85918,14.85918,0,0,1,6.84934,11.716,14.77051,14.77051,0,0,1-1.18962,6.70514,14.563,14.563,0,0,1-3.82121,5.26318,1.733,1.733,0,0,0-.57679.68493,1.08674,1.08674,0,0,0,.03605.757L36.765,177.553c.2163.43259.43259,1.08147.86518,1.33382a2.112,2.112,0,0,0,1.04542.14421h6.5249a1.04712,1.04712,0,0,0,.93728-1.55011c-.39654-.79309-.82913-1.55011-1.22567-2.34319Z" transform="translate(-0.2 -0.78876)" fill="#1d1e1c"/><path d="M80.99726,169.11749l5.22712-19.35839a.85451.85451,0,0,1,.82913-.61284h6.27255a.87722.87722,0,0,1,.86518.86518.61346.61346,0,0,1-.03605.25235l-9.12043,27.4334a.8866.8866,0,0,1-.79309.5047H78.29357a.88658.88658,0,0,1-.79309-.5047l-6.3807-18.67345-6.12835,18.70951v.036a.84075.84075,0,0,1-.757.46863h-5.84a.82534.82534,0,0,1-.79308-.54074l-9.15648-27.68573a.87722.87722,0,0,1,.86518-.86518H55.7989a.89072.89072,0,0,1,.721.50469l5.155,19.43049,6.0202-19.39443a.89977.89977,0,0,1,.79308-.54074h5.40737a.88658.88658,0,0,1,.79308.50469Z" transform="translate(-0.2 -0.78876)" fill="#1d1e1c"/><path d="M117.19059,152.89536a9.69435,9.69435,0,0,0-3.85726-3.46072A11.69657,11.69657,0,0,0,107.926,148.209a12.82429,12.82429,0,0,0-7.20983,2.1269,14.43326,14.43326,0,0,0-4.93874,5.65972,17.23344,17.23344,0,0,0-1.73035,7.75056v.61284a17.27785,17.27785,0,0,0,1.76641,7.49822,13.08106,13.08106,0,0,0,4.83058,5.40737,12.73612,12.73612,0,0,0,6.88539,1.87456,13.37923,13.37923,0,0,0,4.79453-.79309,9.96865,9.96865,0,0,0,4.86663-3.85726l.0721,2.956a.88807.88807,0,0,0,.86518.757h5.876a.87722.87722,0,0,0,.86518-.86519V150.01142a.87722.87722,0,0,0-.86518-.86518h-5.876a.88987.88987,0,0,0-.86518.721v.03605Zm-1.73035,4.93874a9.524,9.524,0,0,1-.18025,11.86016,7.74806,7.74806,0,0,1-11.10313,0,8.50548,8.50548,0,0,1-2.16295-5.37132,8.9443,8.9443,0,0,1,2.1269-6.66909,7.26388,7.26388,0,0,1,5.58762-2.34319A7.45116,7.45116,0,0,1,115.46024,157.8341Z" transform="translate(-0.2 -0.78876)" fill="#1d1e1c"/><path d="M137.63046,149.90329a.88808.88808,0,0,0-.86518-.757h-5.91206a.87722.87722,0,0,0-.86518.86518v27.32525a.87723.87723,0,0,0,.86518.86519h6.2365a.8545.8545,0,0,0,.82913-.61284V162.55654a8.33356,8.33356,0,0,1,1.58616-5.40737,5.44816,5.44816,0,0,1,4.434-1.9106q5.19108,0,5.19107,6.81328v15.57322a.888.888,0,0,0,.82913.61284h6.2365a.854.854,0,0,0,.86518-.86519V160.60988c0-4.00146-.90123-7.06563-2.70369-9.15648-1.80246-2.1269-4.434-3.17232-7.85871-3.17232a11.70944,11.70944,0,0,0-5.29923,1.15358,8.47677,8.47677,0,0,0-3.49677,3.35257Z" transform="translate(-0.2 -0.78876)" fill="#1d1e1c"/><path d="M123.49919,105.41866c.50469,1.04542,1.00937,2.59554,2.09085,3.20837a5.00538,5.00538,0,0,0,2.52344.32444H143.7588a2.56645,2.56645,0,0,0,2.27109-3.74911c-.97333-1.87456-1.9827-3.71306-2.956-5.58762l-6.02021-11.35548a5.7487,5.7487,0,0,1-.757-1.65826s-.2163-.36049.0721-1.33382c.28839-.721,3.92935-7.89476,4.14565-8.61574,1.478-4.57824,19.46653-47.94535-31.579-52.3794a11.55993,11.55993,0,0,1,1.11753.68493,36.33607,36.33607,0,0,1,10.88684,10.85079,35.71276,35.71276,0,0,1,2.73974,33.2373,34.71632,34.71632,0,0,1-2.70369,5.119,35.35483,35.35483,0,0,1-6.41674,7.49822,3.7504,3.7504,0,0,0-1.33382,1.65826,2.49392,2.49392,0,0,0,.10814,1.83851Z" transform="translate(-0.2 -0.78876)" fill="#4ba2ea"/><path d="M36.40448,48.74941c8.2192-5.58762,16.51051-5.94811,19.106,1.76641a1.61653,1.61653,0,0,0-.03605.39654A35.63007,35.63007,0,0,0,86.1523,90.38615a35.20365,35.20365,0,0,0,9.73327-.03605c.79309-.10814,1.55011-.25235,2.34319-.39654a4.70253,4.70253,0,0,1,1.73035-.14419c.90123,11.031-33.70594,13.915-55.11913-12.473-5.29923-6.52489-7.85871-19.68283-8.4355-28.587" transform="translate(-0.2 -0.78876)" fill="#ff3b4a"/><path d="M143.29018,71.06382a52.19685,52.19685,0,0,1-3.28047,8.039c-.28839.54074-.54074,1.04542-.82913,1.58616-.39654.721-.82913,1.478-1.26172,2.199a13.08267,13.08267,0,0,0-1.55011,2.55949l.03605-.14419a22.579,22.579,0,0,0,.757-2.199,47.41378,47.41378,0,0,0-28.22648-58.79615c-.18025-.10815-.32444-.18025-.50469-.28839h0c1.36986.721-6.48884-19.07,9.84141-16.5105.68493.36049,1.36986.757,2.05481,1.15357a51.87766,51.87766,0,0,1,12.473,10.45425,52.39944,52.39944,0,0,1,9.22858,15.17668,55.053,55.053,0,0,1,3.677,18.96185A55.07978,55.07978,0,0,1,143.29018,71.06382Z" transform="translate(-0.2 -0.78876)" fill="#65cee7"/><path d="M122.634,15.54816a9.822,9.822,0,0,1-.68493,3.56887,9.65588,9.65588,0,0,1-8.94018,6.05626,9.79667,9.79667,0,0,1-4.57824-1.15357h0A36.226,36.226,0,0,0,94.011,19.54961a35.036,35.036,0,0,0-18.349,3.28047,34.67684,34.67684,0,0,0-7.71451,4.93873,35.883,35.883,0,0,0-5.876,6.27255A36.25969,36.25969,0,0,0,55.69078,49.146C38.13484,27.66067,74.184-6.9465,114.63111,6.06723h0c.68493.18025,1.40591.39654,2.09085.61284.50469.25234,1.04542.50469,1.55011.79308h.03605A9.68163,9.68163,0,0,1,122.634,15.54816Z" transform="translate(-0.2 -0.78876)" fill="#87c966"/><path d="M116.50566,6.57192a11.06021,11.06021,0,0,0-1.87456-.50469h0a47.12859,47.12859,0,0,0-9.37278-1.55011c-.93728-.0721-1.87456-.0721-2.84788-.0721A46.9904,46.9904,0,0,0,55.69076,49.14595a2.82766,2.82766,0,0,0-.0721.50469h0c-.03605.28839-.0721.57679-.10815.82913h0a9.64055,9.64055,0,0,1-9.48092,7.85871H45.7412a9.61243,9.61243,0,0,1-9.33672-9.62512c0-.43259.03605-.82913.0721-1.22567h0a53.396,53.396,0,0,1,4.83058-16.40236A51.57675,51.57675,0,0,1,52.23,15.9447a55.4146,55.4146,0,0,1,15.429-10.4182A54.74409,54.74409,0,0,1,85.86389.98431a64.16007,64.16007,0,0,1,10.85079.0721A53.68473,53.68473,0,0,1,104.24895,2.246,55.08808,55.08808,0,0,1,116.50566,6.57192Z" transform="translate(-0.2 -0.78876)" fill="url(#Dégradé_sans_nom_2)"/><path d="M107.88992,105.34656c-.50469,1.442-1.9827,1.69431-3.31652,2.01875-1.58616.39654-3.17232.68493-4.79453.93728-2.92.43259-5.876.61284-8.796.757a49.04025,49.04025,0,0,1-9.19253-.57679,61.17333,61.17333,0,0,1-9.48092-2.16295A52.00631,52.00631,0,0,1,52.30215,94.49576a51.12209,51.12209,0,0,1-7.85871-9.517,52.86178,52.86178,0,0,1-7.06563-16.97915,61.76468,61.76468,0,0,1-1.00938-19.106v-.14419a46.624,46.624,0,0,0,43.15082,43.8718c1.26172.10814,2.52344.14419,3.82121.14419a46.82746,46.82746,0,0,0,16.5826-2.99207.917.917,0,0,1,.25235.0721,2.49428,2.49428,0,0,1,1.55011,1.40591c1.18962,2.34319,2.37925,4.68639,3.53281,7.06563.03605.0721.0721.18025.10814.25235.61284,1.18962,1.18962,2.4153,1.80246,3.60491C107.70968,103.18361,108.32252,104.15694,107.88992,105.34656Z" transform="translate(-0.2 -0.78876)" fill="#af27cc"/></svg>