<svg xmlns="http://www.w3.org/2000/svg" xmlns:xlink="http://www.w3.org/1999/xlink" width="183" viewBox="0 0 183 46"
	 height="46">
	<defs>
		<path id="a" d="M.467.05h24.15v38.056H.467z"/>
		<path id="c" d="M0 .467h46.15V45.94H0z"/>
		<path id="e" d="M.467.049h80.35V57.96H.467z"/>
	</defs>
	<g fill="none" fill-rule="evenodd">
		<g transform="translate(158 8.023)">
			<mask id="b" fill="#fff">
				<use xlink:href="#a"/>
			</mask>
			<path fill="#000"
				  d="M24.617 35.85v-.1l-.6-4.864c-.05-.452-.4-.752-.85-.752-.1 0-.15 0-.25.05-.05.05-.15.05-.2.1-1.25.501-2.55.702-4 .702-1.65 0-2.8-.451-3.5-1.304-.7-.902-1.05-2.356-1.05-4.362V14.54h8.3c.45-.05.8-.4.8-.852V8.775c0-.452-.4-.853-.9-.853h-8.2V.852a.88.88 0 0 0-.9-.802h-6.2c-.45 0-.85.351-.9.853v7.069h-4.8c-.5 0-.9.401-.9.902v4.814c0 .451.3.802.7.852H6.117v12.234c0 3.81.85 6.669 2.65 8.524 1.75 1.856 4.45 2.808 8.05 2.808 1.5 0 3-.15 4.4-.451 1.1-.25 2-.552 2.8-.903.3-.1.5-.401.55-.752.05-.1.05-.1.05-.15 0 .05 0 0 0 0"
				  mask="url(#b)"/>
		</g>
		<g>
			<mask id="d" fill="#fff">
				<use xlink:href="#c"/>
			</mask>
			<path fill="#000"
				  d="M42.167 37.203c-.1-.2-.25-.45-.3-.701-.1-.602.4-1.104.65-1.555.3-.501.6-1.053.9-1.604.55-1.103 1-2.207 1.4-3.36a23.69 23.69 0 0 0 1.05-7.47c-.05-2.708-.55-5.416-1.55-7.973-.9-2.306-2.25-4.462-3.85-6.367-1.5-1.755-3.25-3.21-5.2-4.413a23.82 23.82 0 0 0-6.75-2.707c-2.5-.552-5.15-.702-7.7-.502-2.6.201-5.2.803-7.6 1.906a21.88 21.88 0 0 0-6.45 4.362c-1.9 1.805-3.45 4.011-4.55 6.368a22.466 22.466 0 0 0-2.1 7.62c-.25 2.608-.1 5.315.45 7.873.55 2.507 1.6 4.963 2.95 7.12 1.35 2.155 3.1 4.01 5.1 5.565 2 1.504 4.2 2.658 6.55 3.41 1.3.4 2.6.701 3.95.902 1.25.2 2.55.3 3.85.25 1.25-.05 2.45-.15 3.7-.3.65-.1 1.35-.251 2-.401.55-.15 1.15-.251 1.4-.853.2-.501-.1-.902-.3-1.353-.25-.552-.55-1.054-.8-1.605-.5-1.003-1-1.955-1.5-2.958-.15-.251-.35-.502-.65-.602-.3-.1-.55 0-.8.05-.3.05-.65.101-1 .15a14.01 14.01 0 0 1-4.1 0c-2.55-.35-5.05-1.353-7.1-2.958-2.05-1.554-3.65-3.66-4.65-6.016-1.05-2.407-1.4-5.064-1.1-7.672.3-2.557 1.25-5.014 2.8-7.07a14.896 14.896 0 0 1 5.7-4.712 14.555 14.555 0 0 1 7.7-1.354c2.4.25 4.7 1.003 6.7 2.306 1.8 1.153 3.4 2.758 4.55 4.563 1.4 2.156 2.2 4.663 2.35 7.22.15 2.306-.25 4.613-1.2 6.719-.85 2.005-2.2 3.86-3.8 5.314-.25.201-.45.402-.55.702-.1.251-.05.552.05.752l4.25 8.474c.2.452.45 1.103.85 1.354.3.2.7.15 1.05.15h6.55c.8 0 1.35-.852.95-1.554-.4-.802-.85-1.554-1.25-2.357l-2.6-4.713z"
				  mask="url(#d)"/>
		</g>
		<path d="M80.717 169.723l5.25-19.454c.1-.351.45-.602.85-.602h6.3c.5 0 .9.401.9.903 0 .1 0 .15-.05.25l-9.15 27.577c-.15.3-.45.502-.8.502h-5.95a.891.891 0 0 1-.8-.502l-6.4-18.752-6.15 18.802c-.15.25-.45.452-.75.452h-5.85c-.35 0-.65-.202-.8-.552l-9.15-27.827c0-.502.4-.903.9-.903h6.5c.3.05.6.25.7.501l5.2 19.505 6-19.505c.15-.3.45-.55.8-.55h5.4c.35 0 .65.2.8.5l6.25 19.655zM115.267 158.391c1.3 1.555 1.95 3.46 1.95 5.817 0 2.507-.75 4.512-2.2 6.066-1.45 1.555-3.3 2.357-5.55 2.357s-4.1-.802-5.55-2.357c-1.3-1.404-2.05-3.208-2.15-5.415 0 0-.5-3.86 2.15-6.718 1.45-1.555 3.3-2.356 5.6-2.356 0 .05 3.45-.151 5.75 2.606zm1.75-4.963c-.95-1.504-2.25-2.657-3.85-3.46-1.6-.802-3.4-1.254-5.4-1.254-2.65 0-5.1.703-7.2 2.156-2.15 1.454-3.8 3.31-4.95 5.667-1.15 2.356-1.75 4.963-1.75 7.771v.601c.05 2.809.65 5.316 1.75 7.521 1.2 2.357 2.8 4.162 4.85 5.416 2.05 1.253 4.35 1.905 6.9 1.905 1.8 0 3.4-.25 4.8-.803 0 0 3.1-1.002 4.85-3.86l.1 2.958c.05.401.45.752.85.752h5.9c.5 0 .9-.401.9-.903V150.42c0-.502-.4-.903-.9-.903h-5.9c-.45 0-.8.3-.85.752v.05l-.1 3.109zM137.517 150.42c-.05-.452-.4-.753-.85-.753h-5.95c-.5 0-.9.401-.9.903v27.476c0 .502.4.902.9.902h6.25c.4 0 .7-.25.85-.601v-15.142c0-2.357.55-4.162 1.6-5.415 1.05-1.304 2.55-1.906 4.45-1.906 3.45 0 5.2 2.256 5.2 6.82v15.643c.1.35.45.601.85.601h6.25c.5 0 .9-.4.9-.902V161.2c0-4.01-.9-7.07-2.7-9.225-1.8-2.107-4.45-3.21-7.85-3.21-2 0-3.8.402-5.3 1.154-1.5.802-2.7 1.905-3.5 3.36l-.2-2.859z"
			  fill="#000" transform="translate(0 -133.823)"/>
	</g>
</svg>
