<svg xmlns="http://www.w3.org/2000/svg" xmlns:xlink="http://www.w3.org/1999/xlink" width="183" height="180" viewBox="0 0 183 180">
  <defs>
    <polygon id="colored-a" points=".467 .05 24.617 .05 24.617 38.106 .467 38.106"/>
    <polygon id="colored-c" points=".385 .294 110.486 .294 110.486 108.872 .385 108.872"/>
  </defs>
  <g fill="none" fill-rule="evenodd">
    <g transform="translate(158 141.6)">
      <mask id="colored-b" fill="#fff">
        <use xlink:href="#colored-a"/>
      </mask>
      <path fill="#FFF" d="M24.61715,35.8493816 L24.61715,35.7496045 L24.01715,30.8860947 C23.96715,30.4343398 23.61715,30.1340056 23.16715,30.1340056 C23.06715,30.1340056 23.01715,30.1340056 22.91715,30.1836435 C22.86715,30.2342841 22.76715,30.2342841 22.71715,30.283922 C21.46715,30.7853148 20.16715,30.9863733 18.71715,30.9863733 C17.06715,30.9863733 15.91715,30.5346184 15.21715,29.6822507 C14.51715,28.7797437 14.16715,27.3257047 14.16715,25.3201337 L14.16715,14.5401894 L22.46715,14.5401894 C22.91715,14.4900501 23.26715,14.1390752 23.26715,13.6883231 L23.26715,13.6376825 L23.26715,8.82481337 L23.26715,8.7741727 C23.26715,8.32342061 22.86715,7.92230641 22.36715,7.92230641 L14.16715,7.92230641 L14.16715,1.00258496 L14.16715,0.852167131 C14.11715,0.401415042 13.76715,0.0504401114 13.26715,0.0504401114 L7.06715,0.0504401114 C6.61715,0.0504401114 6.21715,0.401415042 6.16715,0.902807799 L6.16715,7.97194429 L1.36715,7.97194429 C0.86715,7.97194429 0.46715,8.3730585 0.46715,8.87445125 L0.46715,13.6883231 C0.46715,14.1390752 0.76715,14.4900501 1.16715,14.5401894 L1.26715,14.5401894 L6.11715,14.5401894 L6.11715,26.7741727 C6.11715,30.5847577 6.96715,33.4426964 8.76715,35.2978496 C10.51715,37.1535042 13.21715,38.105649 16.81715,38.105649 C18.31715,38.105649 19.81715,37.9552312 21.21715,37.6548969 C22.31715,37.4042006 23.21715,37.1028635 24.01715,36.75239 C24.31715,36.6521114 24.51715,36.3507744 24.56715,36.0003008 C24.61715,35.9000223 24.61715,35.9000223 24.61715,35.8493816 C24.61715,35.9000223 24.61715,35.8493816 24.61715,35.8493816" mask="url(#colored-b)"/>
    </g>
    <path fill="#FFF" d="M42.1672 170.781794C42.0672 170.581738 41.9172 170.331042 41.8672 170.080345 41.7672 169.478173 42.2672 168.97678 42.5172 168.525526 42.8172 168.024134 43.1172 167.472602 43.4172 166.92107 43.9672 165.818507 44.4172 164.714942 44.8172 163.56224 45.5672 161.155053 45.9172 158.59795 45.8672 156.090986 45.8172 153.383465 45.3172 150.675944 44.3172 148.118841 43.4172 145.812435 42.0672 143.656446 40.4672 141.751655 38.9672 139.99678 37.2172 138.54224 35.2672 137.338897 33.1672 136.085415 30.8672 135.182908 28.5172 134.631376 26.0172 134.079844 23.3672 133.929426 20.8172 134.129983 18.2172 134.33054 15.6172 134.932212 13.2172 136.035276 10.8172 137.088201 8.6172 138.592379 6.7672 140.397393 4.8672 142.202407 3.3172 144.408535 2.2172 146.765582 1.0672 149.171766.3672 151.728869.1172 154.386251-.1328 156.993493.0172 159.701014.5672 162.258117 1.1172 164.765081 2.1672 167.221905 3.5172 169.377894 4.8672 171.533883 6.6172 173.389036 8.6172 174.943354 10.6172 176.447532 12.8172 177.601237 15.1672 178.353326 16.4672 178.753939 17.7672 179.054774 19.1172 179.255331 20.3672 179.455889 21.6672 179.556167 22.9672 179.506028 24.2172 179.455889 25.4172 179.356111 26.6672 179.205192 27.3172 179.105415 28.0172 178.954496 28.6672 178.804078 29.2172 178.65366 29.8172 178.553382 30.0672 177.95171 30.2672 177.450318 29.9672 177.049203 29.7672 176.598451 29.5172 176.046418 29.2172 175.545025 28.9672 174.993493 28.4672 173.990708 27.9672 173.038061 27.4672 172.035276 27.3172 171.784579 27.1172 171.533883 26.8172 171.433604 26.5172 171.333827 26.2672 171.433604 26.0172 171.483744 25.7172 171.533883 25.3672 171.584524 25.0172 171.634162 23.6672 171.83522 22.2672 171.83522 20.9172 171.634162 18.3672 171.283187 15.8672 170.280401 13.8172 168.675944 11.7672 167.121627 10.1672 165.015777 9.1672 162.659231 8.1172 160.252546 7.7672 157.595164 8.0672 154.987922 8.3672 152.430819 9.3172 149.973994 10.8672 147.918284 12.3172 145.912713 14.3172 144.258618 16.5672 143.205192 18.9672 142.051989 21.6172 141.600735 24.2672 141.851432 26.6672 142.102128 28.9672 142.854217 30.9672 144.157838 32.7672 145.311042 34.3672 146.915499 35.5172 148.720513 36.9172 150.876501 37.7172 153.383465 37.8672 155.940568 38.0172 158.246975 37.6172 160.553883 36.6672 162.659231 35.8172 164.664802 34.4672 166.519955 32.8672 167.973994 32.6172 168.174552 32.4172 168.375109 32.3172 168.675944 32.2172 168.926641 32.2672 169.227476 32.3672 169.428033L36.6172 177.901571C36.8172 178.353326 37.0672 179.004635 37.4672 179.255331 37.7672 179.455889 38.1672 179.405749 38.5172 179.405749L45.0672 179.405749C45.8672 179.405749 46.4172 178.553382 46.0172 177.851933 45.6172 177.049203 45.1672 176.297114 44.7672 175.494886L42.1672 170.781794zM80.7172 169.478373L85.9672 150.024334C86.0672 149.673359 86.4172 149.422663 86.8172 149.422663L93.1172 149.422663C93.6172 149.422663 94.0172 149.823777 94.0172 150.32517 94.0172 150.425448 94.0172 150.475588 93.9672 150.575866L84.8172 178.152468C84.6672 178.452802 84.3672 178.653861 84.0172 178.653861L78.0672 178.653861C77.7172 178.653861 77.4172 178.452802 77.2672 178.152468L70.8672 159.399877 64.7172 178.202106C64.5672 178.452802 64.2672 178.653861 63.9672 178.653861L58.1172 178.653861C57.7672 178.653861 57.4672 178.452802 57.3172 178.102329L48.1672 150.275031C48.1672 149.773638 48.5672 149.372022 49.0672 149.372022L55.5672 149.372022C55.8672 149.422663 56.1672 149.622719 56.2672 149.873415L61.4672 169.378095 67.4672 149.873415C67.6172 149.573081 67.9172 149.322384 68.2672 149.322384L73.6672 149.322384C74.0172 149.322384 74.3172 149.522942 74.4672 149.823777L80.7172 169.478373zM115.26725 158.146596C116.56725 159.701415 117.21725 161.606206 117.21725 163.963253 117.21725 166.470217 116.46725 168.475788 115.01725 170.029604 113.56725 171.584423 111.71725 172.38615 109.46725 172.38615 107.21725 172.38615 105.36725 171.584423 103.91725 170.029604 102.61725 168.625705 101.86725 166.821192 101.76725 164.614563 101.76725 164.614563 101.26725 160.753838 103.91725 157.8959 105.36725 156.341582 107.21725 155.539855 109.51725 155.539855 109.51725 155.589493 112.96725 155.388936 115.26725 158.146596zM117.01725 153.183309C116.06725 151.679131 114.76725 150.525928 113.16725 149.723198 111.56725 148.921471 109.76725 148.469716 107.76725 148.469716 105.11725 148.469716 102.66725 149.172167 100.56725 150.625705 98.41725 152.079744 96.76725 153.935398 95.61725 156.291944 94.46725 158.647989 93.86725 161.255231 93.86725 164.063532L93.86725 164.664702C93.91725 167.473003 94.51725 169.979967 95.61725 172.185593 96.81725 174.542139 98.41725 176.347655 100.46725 177.601136 102.51725 178.854618 104.81725 179.506429 107.36725 179.506429 109.16725 179.506429 110.76725 179.255733 112.16725 178.703699 112.16725 178.703699 115.26725 177.700914 117.01725 174.843476L117.11725 177.801192C117.16725 178.202306 117.56725 178.553281 117.96725 178.553281L123.86725 178.553281C124.36725 178.553281 124.76725 178.152167 124.76725 177.650774L124.76725 150.174953C124.76725 149.67356 124.36725 149.272446 123.86725 149.272446L117.96725 149.272446C117.51725 149.272446 117.16725 149.57278 117.11725 150.024535L117.11725 150.074173 117.01725 153.183309zM137.51725 150.174752C137.46725 149.723499 137.11725 149.422663 136.66725 149.422663L130.71725 149.422663C130.21725 149.422663 129.81725 149.823777 129.81725 150.32517L129.81725 177.801493C129.81725 178.302886 130.21725 178.703499 130.71725 178.703499L136.96725 178.703499C137.36725 178.703499 137.66725 178.452802 137.81725 178.102329L137.81725 162.960267C137.81725 160.603721 138.36725 158.798708 139.41725 157.545226 140.46725 156.241604 141.96725 155.639432 143.86725 155.639432 147.31725 155.639432 149.06725 157.895699 149.06725 162.458875L149.06725 178.102329C149.16725 178.452802 149.51725 178.703499 149.91725 178.703499L156.16725 178.703499C156.66725 178.703499 157.06725 178.302886 157.06725 177.801493L157.06725 160.954696C157.06725 156.943554 156.16725 153.884557 154.36725 151.72907 152.56725 149.622719 149.91725 148.520156 146.51725 148.520156 144.51725 148.520156 142.71725 148.92127 141.21725 149.673359 139.71725 150.475588 138.51725 151.578652 137.71725 153.032691L137.51725 150.174752z"/>
    <g transform="translate(35.5 .208)">
      <mask id="colored-d" fill="#fff">
        <use xlink:href="#colored-c"/>
      </mask>
      <path fill="#FFF" d="M101.3173,87.9442897 C101.0173,87.4428969 100.6673,86.8913649 100.5673,86.2896936 C100.3173,84.8857939 101.4673,83.6824513 102.1673,82.5292479 C102.9173,81.275766 103.6173,80.0222841 104.2673,78.7688022 C105.5673,76.1615599 106.6673,73.454039 107.5673,70.6963788 C109.4173,64.9303621 110.1673,58.913649 110.0173,52.8467967 C109.8673,46.3788301 108.7173,39.8607242 106.3173,33.8440111 C104.1673,28.2785515 100.9673,23.1142061 97.1173,18.6518106 C93.5673,14.54039 89.3173,10.9805014 84.6673,8.17270195 C79.6673,5.1643454 74.2173,3.00835655 68.5673,1.75487465 C62.5673,0.401114206 56.3173,9.49240686e-15 50.1673,0.501392758 C43.9173,1.00278552 37.7173,2.45682451 31.9673,5.06406685 C26.2673,7.62116992 21.0673,11.1810585 16.5673,15.4930362 C12.0673,19.8551532 8.3673,25.0194986 5.6673,30.6852368 C2.9173,36.4011142 1.2673,42.5682451 0.6673,48.8356546 C0.0673,55.1030641 0.4173,61.5208914 1.7673,67.637883 C3.1173,73.6545961 5.5173,79.4206128 8.8173,84.6350975 C12.0673,89.7493036 16.1673,94.2116992 20.9673,97.8718663 C25.6673,101.431755 31.0173,104.189415 36.6173,106.044568 C39.7173,107.047354 42.8673,107.799443 46.0673,108.250696 C49.0673,108.651811 52.2173,108.952646 55.2673,108.852368 C58.2173,108.752089 61.1673,108.551532 64.0673,108.100279 C65.6673,107.849582 67.2673,107.548747 68.8673,107.147632 C70.2173,106.796657 71.6673,106.5961 72.1673,105.142061 C72.5673,103.938719 71.9673,102.986072 71.4673,101.983287 C70.8173,100.679666 70.1673,99.4261838 69.5173,98.1225627 C68.3173,95.7660167 67.1673,93.4094708 65.9673,91.0529248 C65.6173,90.4011142 65.1173,89.8997214 64.4173,89.6490251 C63.7673,89.448468 63.1173,89.5988858 62.4673,89.7493036 C61.7173,89.8997214 60.9173,90.0501393 60.1173,90.1504178 C56.8673,90.6016713 53.6173,90.6016713 50.3673,90.2005571 C44.2673,89.3983287 38.3673,86.9415042 33.4673,83.1810585 C28.6173,79.4707521 24.7673,74.5069638 22.3173,68.8913649 C19.8673,63.1754875 18.9673,56.8077994 19.6673,50.6406685 C20.3673,44.5236769 22.6673,38.6573816 26.3173,33.6935933 C29.8173,28.8802228 34.5173,24.9693593 39.9173,22.4623955 C45.6173,19.7548747 51.9673,18.6016713 58.2673,19.2033426 C63.9673,19.7548747 69.4673,21.5598886 74.2673,24.6685237 C78.6173,27.4763231 82.3673,31.1866295 85.1173,35.5487465 C88.4173,40.7130919 90.3173,46.6796657 90.6673,52.7966574 C90.9673,58.2618384 90.0173,63.8272981 87.8673,68.8913649 C85.8173,73.7047354 82.6673,78.0668524 78.7673,81.5264624 C78.2173,82.0278552 77.6673,82.4289694 77.4173,83.1810585 C77.2173,83.7827298 77.2673,84.4345404 77.5173,85.0362117 L87.7173,105.292479 C88.2173,106.345404 88.7173,107.899721 89.7673,108.501393 C90.5173,108.952646 91.4673,108.852368 92.3173,108.852368 L107.9173,108.852368 C109.8173,108.802228 111.1173,106.846797 110.1673,105.091922 C109.1673,103.236769 108.2173,101.381616 107.2173,99.4763231 L101.3173,87.9442897 Z" mask="url(#colored-d)"/>
    </g>
  </g>
</svg>
