<svg xmlns="http://www.w3.org/2000/svg" xmlns:xlink="http://www.w3.org/1999/xlink" width="52" height="51" viewBox="0 0 52 51">
  <defs>
    <path id="fill-1-a" d="M54.8549642,51.1659652 C54.3960319,50.2834485 53.9201022,49.4175671 53.4611699,48.5348807 L50.6227587,43.187838 C50.4866088,42.9503614 50.3166339,42.6785958 50.2656414,42.407 C50.2656414,42.407 50.1636565,42.2372526 50.2996364,41.7789347 C50.3171438,41.7356491 50.3604874,41.642288 50.4226983,41.5124313 C50.3876834,41.6069806 50.3543684,41.7018694 50.3166339,41.7959094 L50.2996364,41.8638084 C50.4356164,41.4394399 50.8095612,41.0150714 51.0305286,40.6587717 C51.2344985,40.3192769 51.4384684,39.9626376 51.6254408,39.6231428 C51.7614207,39.3685218 51.8804032,39.1310452 52.0163831,38.8764241 C52.6282928,37.6710479 53.155215,36.3979425 53.5631548,35.0908876 C54.4130294,32.3749294 54.7699767,29.5571228 54.7021567,26.7053667 C54.6339968,23.6668884 54.0900771,20.6114354 52.9682426,17.7766541 C51.9483931,15.1625443 50.4527838,12.7521314 48.6168848,10.630289 C46.9341331,8.69516883 44.9454266,7.03164443 42.7357526,5.70761481 C42.4722915,5.5553514 42.2091703,5.40546446 41.9457092,5.26236741 C41.8921671,5.22332551 41.839135,5.18411386 41.7840631,5.14744843 L41.7668956,5.14744843 C41.5291007,5.01182026 41.2741383,4.89282734 41.0360035,4.77400417 C40.7130511,4.67232549 40.3731013,4.57030731 40.050149,4.48543361 C40.3561038,4.53635783 40.6450612,4.62123152 40.9341885,4.72307996 C39.0982894,3.82358855 37.1435779,3.12745451 35.1550413,2.68611131 C33.9820444,2.41451549 32.79222,2.22779336 31.6023956,2.12611467 C29.9026464,1.97317228 28.1858998,1.95636729 26.4861506,2.09199545 C23.5285871,2.31266705 20.6050185,3.02560608 17.9024173,4.23081253 C15.2168136,5.43618873 12.7521774,7.11651812 10.6274909,9.13651203 C8.48580695,11.1734807 6.7520628,13.6008683 5.47725092,16.2659023 C4.304424,18.69329 3.53953687,21.3243745 3.19958704,23.9894084 C3.18258955,24.1761306 3.16559206,24.3630224 3.16559206,24.5665496 C3.16559206,24.5721512 3.16593201,24.5777529 3.16610198,24.5833546 C3.16593201,24.5833546 3.16576203,24.5835243 3.16559206,24.5835243 C3.16576203,24.5865798 3.16610198,24.589805 3.16627196,24.5926907 C3.16746178,24.8113253 3.18377937,25.0263952 3.21488478,25.2367123 C3.23545175,25.4819972 3.25907826,25.7327141 3.28559435,25.9881839 C3.22644308,25.5223971 3.17919005,25.0540641 3.14859457,24.5835243 L3.14859457,24.6514233 C2.85963721,27.6050278 2.97861965,30.7623292 3.62452433,33.6480348 C4.25343152,36.4828162 5.39226346,39.1987744 6.9560327,41.6431368 C8.00987718,43.2898562 9.25069407,44.7834634 10.6614859,46.1246375 C11.3073906,46.7355584 11.9872902,47.3128693 12.7011849,47.8558911 C14.9278563,49.553365 17.4434851,50.8264704 20.0950937,51.6923519 C21.556878,52.1506698 23.0526573,52.4901646 24.5654341,52.7108362 C25.9932234,52.914533 27.4550076,53.050331 28.8997944,52.9822623 C30.2765913,52.914533 31.6705555,52.8296594 33.0471824,52.6259625 C33.8120695,52.5069696 34.5601291,52.3713414 35.3078488,52.1844495 C35.936756,52.0318466 36.6336531,51.9128537 36.871618,51.2338642 C37.0755879,50.6738675 36.7866306,50.2153798 36.5316682,49.7402569 C36.2427108,49.1800905 35.970751,48.6027797 35.6817936,48.042783 C35.6649661,48.0086638 35.6477986,47.9579093 35.6308011,47.9237901 C35.0868814,46.8036271 34.5259642,45.7002691 33.9652169,44.5969111 C33.8120695,44.2742213 33.5741046,44.0365749 33.2341548,43.9347265 C33.1831623,43.9177518 33.1491673,43.900777 33.1153423,43.900777 C33.1054838,43.9045115 33.0954553,43.9079064 33.0859367,43.9116408 C32.8292746,43.8758241 32.5727824,43.9376122 32.3162903,43.9856507 C31.9423454,44.0537194 31.5855681,44.1214486 31.2114533,44.1723728 C29.6986765,44.3932142 28.1519048,44.3932142 26.6221305,44.1893476 C23.732557,43.8159033 20.9619658,42.6616211 18.650307,40.8962483 C17.8004324,40.2512082 17.0185478,39.5212944 16.3046531,38.7234817 C15.0978312,37.3655026 14.1119767,35.8377761 13.398082,34.1742517 C12.2422526,31.4924127 11.8173153,28.504689 12.1572651,25.6020086 C12.1572651,25.5512542 12.1572651,25.4831855 12.1742626,25.4152865 C12.1735827,25.4130798 12.1727329,25.4110428 12.171883,25.4088361 C12.1725629,25.4052714 12.1735827,25.4018765 12.1742626,25.3983118 C12.1912601,25.2794886 12.2082576,25.1436907 12.2252551,25.0078928 C12.2252551,24.9399938 12.2422526,24.8551201 12.2592501,24.7702464 C12.7011849,22.2070609 13.7380319,19.7626985 15.2678061,17.6580006 C16.0666882,16.5714476 17.0015503,15.569938 18.0383973,14.7042263 C19.1432342,13.7706157 20.3670536,12.9899475 21.6758605,12.3786871 C24.3614642,11.1055817 27.3700202,10.5454154 30.3275837,10.8339859 C32.7242301,11.0546575 35.0358889,11.7675965 37.1265804,12.9388535 C37.1265804,12.9390233 37.1267504,12.9390233 37.1267504,12.9390233 C37.2117378,12.9899475 37.2797278,13.023897 37.3647153,13.0748212 C37.3978604,13.0873825 37.4303256,13.1016413 37.4636407,13.1145421 C37.6116888,13.1982275 37.752768,13.283271 37.8914675,13.3801967 C39.948164,14.6874214 41.6990756,16.4526244 43.02471,18.4895931 C44.5714817,20.9169807 45.4893463,23.7178126 45.6423237,26.5865435 C45.7784736,29.1667038 45.3363689,31.7638388 44.3165194,34.1403022 C43.959572,34.9722342 43.5346347,35.7868519 43.0417075,36.5507151 C42.2090004,37.8579398 41.1891509,39.0461715 40.016154,40.0814608 C39.7611916,40.3192769 39.4894017,40.5058293 39.3872468,40.8622988 C39.3022593,41.1508693 39.3022593,41.4564146 39.4382393,41.7280105 L44.2315319,51.2679834 C44.4694968,51.7600811 44.7074617,52.4901646 45.2173864,52.7785654 C45.5743337,52.9822623 46.0162685,52.931338 46.4072108,52.931338 L53.7841222,52.931338 C54.6679918,52.914533 55.297069,51.9809224 54.8549642,51.1659652"/>
  </defs>
  <g fill="none" fill-rule="evenodd" transform="translate(-3 -2)">
    <use fill="#FFF" xlink:href="#fill-1-a"/>
  </g>
</svg>
