<svg xmlns="http://www.w3.org/2000/svg" xmlns:xlink="http://www.w3.org/1999/xlink">
<svg id="icon-web" width="24" height="24" viewBox="0 0 24 24" fill="none" stroke="currentColor" stroke-width="2" stroke-linecap="round" stroke-linejoin="round" class="feather feather-globe icon_1WWsQ"><g><circle r="10" cy="12" cx="12"></circle><line y2="12" x2="22" y1="12" x1="2"></line><path d="M12 2a15.3 15.3 0 0 1 4 10 15.3 15.3 0 0 1-4 10 15.3 15.3 0 0 1-4-10 15.3 15.3 0 0 1 4-10z"></path></g></svg>
<svg id="icon-news" width="24" height="24" viewBox="0 0 24 24" fill="none" stroke="currentColor" stroke-width="2" stroke-linecap="round" stroke-linejoin="round" class="feather feather-file-text icon_1WWsQ"><g><path d="M14 2H6a2 2 0 0 0-2 2v16a2 2 0 0 0 2 2h12a2 2 0 0 0 2-2V8z"></path><polyline points="14 2 14 8 20 8"></polyline><line y2="13" x2="8" y1="13" x1="16"></line><line y2="17" x2="8" y1="17" x1="16"></line><polyline points="10 9 9 9 8 9"></polyline></g></svg>
<svg id="icon-social" width="24" height="24" viewBox="0 0 24 24" fill="none" stroke="currentColor" stroke-width="2" stroke-linecap="round" stroke-linejoin="round" class="feather feather-twitter icon_1WWsQ"><g><path d="M23 3a10.9 10.9 0 0 1-3.14 1.53 4.48 4.48 0 0 0-7.86 3v1A10.66 10.66 0 0 1 3 4s-4 9 5 13a11.64 11.64 0 0 1-7 2c9 5 20 0 20-11.5a4.5 4.5 0 0 0-.08-.83A7.72 7.72 0 0 0 23 3z"></path></g></svg>
<svg id="icon-images" width="24" height="24" viewBox="0 0 24 24" fill="none" stroke="currentColor" stroke-width="2" stroke-linecap="round" stroke-linejoin="round" class="feather feather-image icon_1WWsQ"><g><rect ry="2" rx="2" height="18" width="18" y="3" x="3"></rect><circle r="1.5" cy="8.5" cx="8.5"></circle><polyline points="21 15 16 10 5 21"></polyline></g></svg>
<svg id="icon-videos" width="24" height="24" viewBox="0 0 24 24" fill="none" stroke="currentColor" stroke-width="2" stroke-linecap="round" stroke-linejoin="round" class="feather feather-video icon_1WWsQ"><g><polygon points="23 7 16 12 23 17 23 7"></polygon><rect ry="2" rx="2" height="14" width="15" y="5" x="1"></rect></g></svg>
<svg id="icon-shopping" width="24" height="24" viewBox="0 0 24 24" fill="none" stroke="currentColor" stroke-width="2" stroke-linecap="round" stroke-linejoin="round" class="feather feather-shopping-cart icon_1WWsQ"><g><circle r="1" cy="21" cx="9"></circle><circle r="1" cy="21" cx="20"></circle><path d="M1 1h4l2.68 13.39a2 2 0 0 0 2 1.61h9.72a2 2 0 0 0 2-1.61L23 6H6"></path></g></svg>
<svg id="icon-music" width="24" height="24" viewBox="0 0 24 24" fill="none" stroke="currentColor" stroke-width="2" stroke-linecap="round" stroke-linejoin="round" class="feather feather-music"><path d="M9 17H5a2 2 0 0 0-2 2 2 2 0 0 0 2 2h2a2 2 0 0 0 2-2zm12-2h-4a2 2 0 0 0-2 2 2 2 0 0 0 2 2h2a2 2 0 0 0 2-2z"></path><polyline points="9 17 9 5 21 3 21 15"></polyline></svg>
</svg>
