<?xml version="1.0" encoding="UTF-8"?>
<svg width="62px" height="14px" viewBox="0 0 62 14" version="1.1" xmlns="http://www.w3.org/2000/svg" xmlns:xlink="http://www.w3.org/1999/xlink">
    <!-- Generator: Sketch 47.1 (45422) - http://www.bohemiancoding.com/sketch -->
    <title>logo-player</title>
    <desc>Created with Sketch.</desc>
    <defs/>
    <g id="desktop" stroke="none" stroke-width="1" fill="none" fill-rule="evenodd">
        <g id="Artiste/Clips" transform="translate(-465.000000, -1196.000000)">
            <g id="Videos" transform="translate(212.000000, 990.000000)">
                <g id="Row">
                    <g id="Components/Video/3col/hover">
                        <g id="bar" transform="translate(0.000000, 188.000000)">
                            <g id="Logos/Youtube/Empty" transform="translate(253.000000, 18.000000)">
                                <g id="logo-player">
                                    <path d="M19.4674417,2.18610066 C19.2388,1.32558796 18.5649862,0.647977422 17.7095029,0.417991533 C16.1589292,0 9.94141329,0 9.94141329,0 C9.94141329,0 3.72389741,0 2.17332368,0.417991533 C1.31784037,0.647977422 0.64402656,1.32558796 0.415384856,2.18610066 C0,3.74579022 0,7 0,7 C0,7 0,10.2542098 0.415384856,11.8137347 C0.64402656,12.6742474 1.31784037,13.3520226 2.17332368,13.5820085 C3.72389741,14 9.94141329,14 9.94141329,14 C9.94141329,14 16.1589292,14 17.7095029,13.5820085 C18.5649862,13.3520226 19.2388,12.6742474 19.4674417,11.8137347 C19.8829902,10.2542098 19.8829902,7 19.8829902,7 C19.8829902,7 19.8829902,3.74579022 19.4674417,2.18610066" id="Fill-1" fill="#323FDC"/>
                                    <polygon id="Fill-4" fill="#FFFFFF" points="8.06067172 9.69230769 13.4344529 6.73076923 8.06067172 3.76923077"/>
                                    <path d="M30.6659104,11.1779412 C30.7742337,10.8967238 30.8286398,10.4369916 30.8286398,9.79890663 L30.8286398,7.11081776 C30.8286398,6.49168581 30.7742337,6.03908123 30.6659104,5.75284205 C30.5572612,5.46676485 30.3661886,5.32356427 30.0926925,5.32356427 C29.8284812,5.32356427 29.6421325,5.46676485 29.5338091,5.75284205 C29.42516,6.03908123 29.3710797,6.49168581 29.3710797,7.11081776 L29.3710797,9.79890663 C29.3710797,10.4369916 29.4227166,10.8967238 29.5266419,11.1779412 C29.6304042,11.4594827 29.8190335,11.6000914 30.0926925,11.6000914 C30.3661886,11.6000914 30.5572612,11.4594827 30.6659104,11.1779412 M28.4724031,12.5291133 C28.0808101,12.2666869 27.8024272,11.858306 27.6375802,11.3046187 C27.4724075,10.7512553 27.3898211,10.0146795 27.3898211,9.09521505 L27.3898211,7.84269588 C27.3898211,6.91383596 27.4839728,6.16786457 27.672765,5.60510569 C27.8613942,5.04218483 28.1562292,4.63169808 28.55727,4.37364543 C28.9581478,4.11575478 29.4842899,3.98664746 30.1352074,3.98664746 C30.7766771,3.98664746 31.2907651,4.11802266 31.6776342,4.38077306 C32.0645034,4.64336147 32.3474473,5.05401022 32.5267916,5.61207133 C32.7058102,6.17029444 32.7957268,6.91383596 32.7957268,7.84269588 L32.7957268,9.09521505 C32.7957268,10.0146795 32.7084165,10.7536852 32.5339589,11.3117463 C32.3593384,11.8699694 32.0762316,12.2781883 31.6848015,12.536079 C31.2932085,12.7941316 30.7625055,12.9230769 30.0926925,12.9230769 C29.403984,12.9230769 28.8638332,12.7917017 28.4724031,12.5291133 Z M58.5293983,9.11570699 L58.5293983,9.55195041 C58.5293983,10.1056378 58.5456875,10.5208223 58.5789175,10.7975039 C58.6118218,11.0743476 58.6800736,11.2760272 58.7841618,11.4027046 C58.8879242,11.5292201 59.0480473,11.5927208 59.2653456,11.5927208 C59.5575743,11.5927208 59.7580947,11.4801366 59.8665809,11.2548063 C59.9749043,11.0296379 60.0340342,10.6544653 60.0434819,10.1289645 L61.7276251,10.2274554 C61.7370728,10.3027815 61.7417967,10.4059702 61.7417967,10.5370214 C61.7417967,11.3346681 61.5223808,11.9304733 61.0837119,12.3245989 C60.645206,12.7184005 60.0245864,12.9155443 59.2228307,12.9155443 C58.2606261,12.9155443 57.5859263,12.6155358 57.1990571,12.0148709 C56.8120251,11.41453 56.6188349,10.4856701 56.6188349,9.22829116 L56.6188349,7.7224171 C56.6188349,6.42761812 56.8191924,5.48255904 57.220396,4.88659188 C57.6212739,4.29094871 58.3077019,3.99304613 59.2795172,3.99304613 C59.9491673,3.99304613 60.4634182,4.11502582 60.8219441,4.3588232 C61.1803071,4.60294456 61.4327901,4.98297689 61.5790673,5.4987582 C61.7253446,6.01486349 61.7984832,6.72811257 61.7984832,7.63801947 L61.7984832,9.11570699 L58.5293983,9.11570699 Z M58.7769945,5.48482692 C58.6781189,5.60680661 58.6118218,5.80621828 58.5789175,6.08289996 C58.5456875,6.35974363 58.5293983,6.77946391 58.5293983,7.34238477 L58.5293983,7.96167872 L59.958615,7.96167872 L59.958615,7.34238477 C59.958615,6.78902142 59.9397195,6.36913915 59.9020914,6.08289996 C59.8643004,5.79682277 59.7960486,5.59514321 59.6968472,5.47786128 C59.5978087,5.36041736 59.4445271,5.30177639 59.2370023,5.30177639 C59.0293147,5.30177639 58.876033,5.36300922 58.7769945,5.48482692 Z M23.7169751,8.95420135 L21.4951246,0.97449437 L23.4338684,0.97449437 L24.2121676,4.59144316 C24.4104075,5.48288302 24.5565219,6.24278569 24.6508365,6.87131316 L24.707523,6.87131316 C24.7734944,6.42097647 24.9197716,5.66577155 25.1461919,4.60553643 L25.9528344,0.97449437 L27.8915781,0.97449437 L25.6415473,8.95420135 L25.6415473,12.7823872 L23.7169751,12.7823872 L23.7169751,8.95420135 Z M39.1012376,4.15542653 L39.1012376,12.78229 L37.5728194,12.78229 L37.4029228,11.7269146 L37.3605708,11.7269146 C36.9453584,12.5243994 36.3226213,12.9230607 35.4925223,12.9230607 C34.9170239,12.9230607 34.4925267,12.7354744 34.2188676,12.3601399 C33.9452086,11.9849673 33.808542,11.3983956 33.808542,10.6010729 L33.808542,4.15542653 L35.7614574,4.15542653 L35.7614574,10.4883267 C35.7614574,10.8732188 35.8039723,11.1476326 35.8888392,11.3115681 C35.973706,11.4759896 36.1150965,11.5579574 36.3133364,11.5579574 C36.4832331,11.5579574 36.6459624,11.506444 36.8015245,11.4030934 C36.9572495,11.2999047 37.0727402,11.1686915 37.1483222,11.0091298 L37.1483222,4.15542653 L39.1012376,4.15542653 Z M49.1184767,4.15542653 L49.1184767,12.78229 L47.5900586,12.78229 L47.420162,11.7269146 L47.37781,11.7269146 C46.9624347,12.5243994 46.3398604,12.9230607 45.5097614,12.9230607 C44.9342631,12.9230607 44.5097658,12.7354744 44.2361068,12.3601399 C43.9624478,11.9849673 43.8257812,11.3983956 43.8257812,10.6010729 L43.8257812,4.15542653 L45.7786966,4.15542653 L45.7786966,10.4883267 C45.7786966,10.8732188 45.8210486,11.1476326 45.9059154,11.3115681 C45.9909452,11.4759896 46.1323357,11.5579574 46.3305756,11.5579574 C46.5004722,11.5579574 46.6632016,11.506444 46.8187637,11.4030934 C46.9744887,11.2999047 47.0898164,11.1686915 47.1655613,11.0091298 L47.1655613,4.15542653 L49.1184767,4.15542653 Z M44.4079581,2.5369359 L42.4692144,2.5369359 L42.4692144,12.7824196 L40.5588139,12.7824196 L40.5588139,2.5369359 L38.6200701,2.5369359 L38.6200701,0.97468876 L44.4079581,0.97468876 L44.4079581,2.5369359 Z M55.5817813,5.53444495 C55.6997153,6.07873678 55.7586823,6.83410368 55.7586823,7.80038367 L55.7586823,9.16532502 C55.7586823,10.4508905 55.6029573,11.3959496 55.2916701,12.0011502 C54.980383,12.6063509 54.4943125,12.9089513 53.834273,12.9089513 C53.4661365,12.9089513 53.1310671,12.8243916 52.8293906,12.6555964 C52.5272255,12.4866391 52.3009681,12.256773 52.1501299,11.9659981 L52.107615,11.9659981 L51.9093751,12.7822738 L50.296253,12.7822738 L50.296253,0.538461538 L52.1784731,0.538461538 L52.1783102,5.08427025 L52.1926448,5.08427025 C52.3623785,4.75591325 52.6029704,4.49073297 52.9142575,4.28905341 C53.2255446,4.08737385 53.5604511,3.98645307 53.918977,3.98645307 C54.3811024,3.98645307 54.744515,4.10859475 55.0087263,4.35223014 C55.2727746,4.59635151 55.4638473,4.99047711 55.5817813,5.53444495 Z M53.7917581,9.05338881 L53.7917581,7.94147837 C53.7917581,7.26597333 53.7704193,6.74533228 53.7279044,6.37955521 C53.6855524,6.01345416 53.6099704,5.75313363 53.501647,5.59826965 C53.3929979,5.44356766 53.2397163,5.36613566 53.0416393,5.36613566 C52.8526842,5.36613566 52.6783895,5.44146176 52.5181035,5.59130401 C52.3574917,5.74147024 52.2442816,5.93391628 52.1784731,6.16831814 L52.1784731,11.0658107 C52.26334,11.2161389 52.3741067,11.3285611 52.5110991,11.4035632 C52.6477658,11.4788893 52.7963235,11.5161473 52.9567724,11.5161473 C53.1639713,11.5161473 53.329307,11.4411452 53.4519649,11.290979 C53.5746228,11.1411368 53.661933,10.8877819 53.7137327,10.5310763 C53.7656954,10.1746948 53.7917581,9.68207827 53.7917581,9.05338881 Z" id="Combined-Shape" fill="#FFFFFF"/>
                                </g>
                            </g>
                        </g>
                    </g>
                </g>
            </g>
        </g>
    </g>
</svg>