<svg xmlns="http://www.w3.org/2000/svg" xmlns:xlink="http://www.w3.org/1999/xlink" width="58" height="55" viewBox="0 0 58 55">
    <defs>
        <path id="a" d="M.23.023h39.457V27.4H.229z"/>
    </defs>
    <g fill="none" fill-rule="evenodd">
        <path fill="#3496D3" d="M43.37 49.965c.245.498.491 1.232 1.031 1.517.369.213.835.166 1.253.166h7.685c.933-.024 1.571-.948 1.13-1.778-.492-.877-.983-1.778-1.45-2.655l-2.97-5.404c-.148-.237-.32-.521-.369-.782 0 0-.098-.166.05-.616.122-.332.27-.687.368-1.043a22.202 22.202 0 0 0 1.105-6.897c0-5.001-1.695-9.6-4.543-13.345a23.29 23.29 0 0 0-10.46-7.68c.197.096.369.214.54.333 2.137 1.327 3.978 3.081 5.353 5.167 1.62 2.441 2.579 5.262 2.726 8.177a16.635 16.635 0 0 1-1.375 7.632c-.368.853-.835 1.66-1.326 2.441a17.636 17.636 0 0 1-3.143 3.556c-.27.237-.54.426-.663.782-.098.284-.073.593.05.877l5.008 9.552z"/>
        <path fill="#4EBDC3" d="M53.093 33.658a27.478 27.478 0 0 1-1.62 3.816c-.123.26-.27.498-.418.758-.196.356-.417.688-.613 1.043-.221.356-.614.806-.762 1.21l.025-.072c.123-.332.27-.687.368-1.043a22.21 22.21 0 0 0 1.105-6.897c0-5.001-1.694-9.6-4.542-13.345a23.29 23.29 0 0 0-10.46-7.68c-.074-.046-.172-.094-.246-.141a4.804 4.804 0 0 0 2.26.545c1.988 0 3.707-1.185 4.394-2.868.221-.522.344-1.09.344-1.683 0-1.612-.86-3.01-2.136-3.84.344.19.687.356 1.007.545a25.487 25.487 0 0 1 6.138 4.954 25.072 25.072 0 0 1 4.542 7.206c1.179 2.868 1.744 5.949 1.817 9.006.074 2.892-.294 5.736-1.203 8.486"/>
        <path fill="#E63C5C" d="M.5 23.04c0 2.488 2.037 4.503 4.591 4.574h.147c2.308 0 4.248-1.612 4.666-3.745 0 .07-.025.118-.025.19-.344 2.938.098 5.949 1.301 8.65a16.45 16.45 0 0 0 3.02 4.575c.737.806 1.572 1.54 2.456 2.205a17.821 17.821 0 0 0 8.323 3.318c1.596.213 3.217.19 4.788-.024.393-.047.762-.118 1.154-.19.295-.047.565-.118.835-.07-2.529.924-5.279 1.422-8.176 1.422-.639 0-1.252-.024-1.866-.072-7.047-.545-13.21-4.1-17.09-9.338C2.244 31.31.795 27.282.5 23.039"/>
        <path fill="#42AE6B" d="M42.953 7.277c0 .593-.123 1.162-.344 1.683-.688 1.683-2.406 2.868-4.395 2.868-.81 0-1.596-.19-2.259-.545-2.185-1.185-4.592-1.896-7.096-2.133-3.094-.285-6.237.284-9.036 1.564-1.375.616-2.627 1.422-3.781 2.347a16.982 16.982 0 0 0-2.897 2.986 16.828 16.828 0 0 0-3.143 7.182 21.323 21.323 0 0 1 1.449-6.732C14.74 8.036 23.138 1.992 33.009 1.992c.466 0 .933.023 1.399.047a22.84 22.84 0 0 1 4.616.735l1.031.284c.246.119.516.237.762.38 1.276.83 2.136 2.228 2.136 3.84"/>
        <g transform="translate(.246 .214)">
            <mask id="b" fill="#fff">
                <use xlink:href="#a"/>
            </mask>
            <path fill="#F7D434" d="M39.687 2.797a3.82 3.82 0 0 0-.933-.237c-1.473-.38-3.02-.64-4.616-.735-.467-.024-.933-.047-1.4-.047-9.87 0-18.268 6.02-21.558 14.505a22.625 22.625 0 0 0-1.448 6.732c-.025.07-.025.166-.05.237-.024.142-.048.26-.048.403C9.216 25.788 7.3 27.4 4.968 27.4h-.147C2.268 27.329.229 25.314.229 22.825c0-.19.025-.403.05-.592a25.035 25.035 0 0 1 2.381-7.798 24.776 24.776 0 0 1 5.378-7.206 27.108 27.108 0 0 1 7.586-4.954c2.824-1.232 5.869-1.92 8.962-2.157a33.325 33.325 0 0 1 5.329.024c1.252.119 2.504.285 3.707.569a30.453 30.453 0 0 1 6.065 2.086" mask="url(#b)"/>
        </g>
        <path fill="#6F55A0" d="M35.685 49.918c-.246.687-.982.805-1.645.972a27.57 27.57 0 0 1-2.357.45c-1.425.213-2.873.308-4.346.355-1.498.071-3.045-.07-4.518-.284a28.777 28.777 0 0 1-4.666-1.043c-2.774-.877-5.401-2.157-7.71-3.863a29.653 29.653 0 0 1-2.135-1.755 23.717 23.717 0 0 1-3.855-4.527c-1.62-2.465-2.824-5.214-3.487-8.058-.663-2.916-.81-6.092-.491-9.078v-.071c.295 4.218 1.743 8.272 4.15 11.519 3.854 5.238 10.017 8.793 17.089 9.338.614.048 1.252.072 1.866.072 2.873 0 5.623-.498 8.176-1.423.05 0 .074.024.123.024.344.095.59.356.761.664.59 1.114 1.154 2.228 1.743 3.342.025.047.05.071.05.118l.883 1.707c.295.521.59.995.369 1.54"/>
    </g>
</svg>
